{"glyphs":{"0":{"ha":833,"x_min":0,"x_max":0,"o":"m 424 734 b 72 347 211 734 72 567 b 408 -20 72 123 215 -20 b 760 370 618 -20 760 147 b 424 734 760 590 619 734 z m 411 710 b 625 366 526 710 625 614 b 421 5 625 139 541 5 b 207 351 306 5 207 102 b 411 710 207 578 292 710 z "},"1":{"ha":514,"x_min":0,"x_max":0,"o":"m 351 730 b 65 660 281 681 199 663 l 65 629 b 227 479 191 629 227 612 l 227 143 b 79 29 227 53 171 29 l 79 0 b 293 5 122 1 207 5 b 485 0 368 5 447 1 l 485 29 b 351 143 389 29 351 54 z "},"2":{"ha":665,"x_min":0,"x_max":0,"o":"m 339 734 b 65 561 189 734 107 648 l 87 549 b 273 679 136 636 200 679 b 412 529 359 679 412 635 b 71 24 412 300 183 144 l 71 0 l 396 0 b 603 -7 479 0 578 -1 b 597 178 599 36 597 79 l 574 178 b 481 107 567 125 557 107 l 199 107 b 547 559 300 244 547 375 b 339 734 547 672 467 734 z "},"3":{"ha":627,"x_min":0,"x_max":0,"o":"m 315 734 b 61 561 178 734 103 652 l 85 550 b 269 673 127 633 193 673 b 390 549 343 673 390 636 b 283 349 390 478 358 406 b 235 354 265 350 250 354 b 199 328 215 354 199 345 b 221 310 199 317 205 310 b 286 330 237 310 258 319 b 433 136 376 323 433 244 b 52 -184 433 -69 241 -180 l 52 -210 b 566 136 289 -210 566 -75 b 309 347 566 279 437 345 b 515 576 414 385 515 468 b 315 734 515 675 431 734 z "},"4":{"ha":686,"x_min":0,"x_max":0,"o":"m 636 68 b 631 239 632 109 631 147 l 607 239 b 514 168 600 186 590 168 l 497 168 l 497 734 l 475 734 l 24 104 l 24 75 l 386 75 l 386 -196 l 497 -196 l 497 75 b 636 68 559 74 618 73 z m 386 168 l 106 168 l 386 564 z "},"5":{"ha":576,"x_min":0,"x_max":0,"o":"m 437 785 b 345 714 431 732 421 714 l 187 714 b 113 720 161 714 134 715 l 86 306 l 100 297 b 214 321 139 313 165 321 b 389 135 326 321 389 252 b 62 -180 389 -75 225 -179 l 62 -205 b 521 149 279 -205 521 -66 b 275 363 521 271 443 363 b 113 321 199 363 153 342 l 129 589 l 277 589 b 469 582 354 589 446 587 b 464 785 465 628 464 679 z "},"6":{"ha":718,"x_min":0,"x_max":0,"o":"m 415 608 b 216 494 352 608 262 581 b 553 977 246 840 414 932 l 547 1004 b 77 375 359 968 77 794 b 359 -20 77 125 183 -20 b 665 306 526 -20 665 97 b 415 608 665 500 545 608 z m 374 8 b 211 378 297 8 211 85 b 213 448 211 402 212 426 b 380 568 247 540 326 568 b 530 296 463 568 530 496 b 374 8 530 89 456 8 z "},"7":{"ha":564,"x_min":0,"x_max":0,"o":"m 553 714 l 244 714 b 37 721 161 714 62 715 b 43 526 41 677 43 625 l 66 526 b 160 597 74 581 83 597 l 489 597 b 191 -127 366 381 191 149 b 253 -205 191 -168 210 -205 b 318 -135 292 -205 318 -176 b 313 -25 318 -106 313 -69 b 553 685 310 293 473 496 z "},"8":{"ha":722,"x_min":0,"x_max":0,"o":"m 425 556 b 602 812 530 627 602 707 b 372 1003 602 937 497 1003 b 118 786 229 1003 118 916 b 295 510 118 663 202 585 b 72 214 170 448 72 350 b 351 -20 72 57 204 -20 b 652 245 525 -20 652 87 b 425 556 652 394 536 475 z m 357 978 b 490 794 443 978 490 904 b 404 572 490 708 466 631 b 227 829 311 641 227 713 b 357 978 227 921 283 978 z m 359 5 b 195 235 239 5 195 117 b 316 494 195 337 227 429 b 533 187 422 409 533 326 b 359 5 533 69 453 5 z "},"9":{"ha":707,"x_min":0,"x_max":0,"o":"m 357 734 b 52 410 191 734 52 618 b 301 107 52 215 172 107 b 494 208 362 107 446 132 b 164 -178 452 -65 294 -141 l 170 -205 b 640 368 357 -175 640 -12 b 357 734 640 602 533 734 z m 336 147 b 186 419 254 147 186 220 b 343 707 186 627 261 707 b 505 366 419 707 505 636 b 500 256 505 326 503 290 b 336 147 464 173 389 147 z "},"A":{"ha":875,"x_min":0,"x_max":0,"o":"m 449 990 l 427 990 l 100 149 b -9 28 68 65 26 36 l -9 0 b 94 4 18 3 47 4 b 254 0 143 4 201 3 l 254 28 b 134 111 175 30 134 51 b 161 225 134 140 142 177 l 218 372 l 553 372 l 639 144 b 655 79 650 117 655 96 b 557 28 655 41 624 31 l 557 0 b 734 4 596 3 663 4 b 884 0 787 4 846 3 l 884 28 b 787 117 854 29 815 46 z m 543 400 l 229 400 l 388 814 z "},"Á":{"ha":875,"x_min":0,"x_max":0,"o":"m 633 1196 b 670 1251 659 1213 670 1232 b 663 1276 670 1259 667 1268 b 620 1299 653 1291 638 1299 b 578 1286 607 1299 593 1295 b 345 1090 519 1249 472 1187 l 354 1072 b 633 1196 497 1145 574 1160 z m 449 990 l 427 990 l 100 149 b -9 28 68 65 26 36 l -9 0 b 94 4 18 3 47 4 b 254 0 143 4 201 3 l 254 28 b 134 111 175 30 134 51 b 161 225 134 140 142 177 l 218 372 l 553 372 l 639 144 b 655 79 650 117 655 96 b 557 28 655 41 624 31 l 557 0 b 734 4 596 3 663 4 b 884 0 787 4 846 3 l 884 28 b 787 117 854 29 815 46 z m 543 400 l 229 400 l 388 814 z "},"Ă":{"ha":875,"x_min":0,"x_max":0,"o":"m 429 1086 b 705 1247 571 1086 661 1175 l 689 1263 b 429 1173 646 1221 562 1173 b 171 1261 296 1173 214 1219 l 153 1247 b 429 1086 197 1175 288 1086 z m 449 990 l 427 990 l 100 149 b -9 28 68 65 26 36 l -9 0 b 94 4 18 3 47 4 b 254 0 143 4 201 3 l 254 28 b 134 111 175 30 134 51 b 161 225 134 140 142 177 l 218 372 l 553 372 l 639 144 b 655 79 650 117 655 96 b 557 28 655 41 624 31 l 557 0 b 734 4 596 3 663 4 b 884 0 787 4 846 3 l 884 28 b 787 117 854 29 815 46 z m 543 400 l 229 400 l 388 814 z "},"Â":{"ha":875,"x_min":0,"x_max":0,"o":"m 401 1166 b 694 1069 465 1132 583 1093 l 702 1089 b 442 1272 581 1131 485 1202 l 417 1272 b 157 1089 374 1202 278 1131 l 164 1069 b 401 1166 253 1093 349 1132 z m 449 990 l 427 990 l 100 149 b -9 28 68 65 26 36 l -9 0 b 94 4 18 3 47 4 b 254 0 143 4 201 3 l 254 28 b 134 111 175 30 134 51 b 161 225 134 140 142 177 l 218 372 l 553 372 l 639 144 b 655 79 650 117 655 96 b 557 28 655 41 624 31 l 557 0 b 734 4 596 3 663 4 b 884 0 787 4 846 3 l 884 28 b 787 117 854 29 815 46 z m 543 400 l 229 400 l 388 814 z "},"Ä":{"ha":875,"x_min":0,"x_max":0,"o":"m 282 1072 b 363 1153 325 1072 363 1108 b 282 1234 363 1196 325 1234 b 201 1153 237 1234 201 1196 b 282 1072 201 1108 237 1072 z m 576 1072 b 657 1153 620 1072 657 1108 b 576 1234 657 1196 620 1234 b 496 1153 532 1234 496 1196 b 576 1072 496 1108 532 1072 z m 449 990 l 427 990 l 100 149 b -9 28 68 65 26 36 l -9 0 b 94 4 18 3 47 4 b 254 0 143 4 201 3 l 254 28 b 134 111 175 30 134 51 b 161 225 134 140 142 177 l 218 372 l 553 372 l 639 144 b 655 79 650 117 655 96 b 557 28 655 41 624 31 l 557 0 b 734 4 596 3 663 4 b 884 0 787 4 846 3 l 884 28 b 787 117 854 29 815 46 z m 543 400 l 229 400 l 388 814 z "},"À":{"ha":875,"x_min":0,"x_max":0,"o":"m 233 1196 b 513 1072 293 1160 370 1145 l 522 1090 b 289 1286 395 1187 347 1249 b 247 1299 274 1295 260 1299 b 204 1276 229 1299 214 1291 b 197 1251 199 1268 197 1259 b 233 1196 197 1232 208 1213 z m 449 990 l 427 990 l 100 149 b -9 28 68 65 26 36 l -9 0 b 94 4 18 3 47 4 b 254 0 143 4 201 3 l 254 28 b 134 111 175 30 134 51 b 161 225 134 140 142 177 l 218 372 l 553 372 l 639 144 b 655 79 650 117 655 96 b 557 28 655 41 624 31 l 557 0 b 734 4 596 3 663 4 b 884 0 787 4 846 3 l 884 28 b 787 117 854 29 815 46 z m 543 400 l 229 400 l 388 814 z "},"Ā":{"ha":875,"x_min":0,"x_max":0,"o":"m 673 1137 l 673 1173 l 184 1173 l 184 1137 z m 449 990 l 427 990 l 100 149 b -9 28 68 65 26 36 l -9 0 b 94 4 18 3 47 4 b 254 0 143 4 201 3 l 254 28 b 134 111 175 30 134 51 b 161 225 134 140 142 177 l 218 372 l 553 372 l 639 144 b 655 79 650 117 655 96 b 557 28 655 41 624 31 l 557 0 b 734 4 596 3 663 4 b 884 0 787 4 846 3 l 884 28 b 787 117 854 29 815 46 z m 543 400 l 229 400 l 388 814 z "},"Ą":{"ha":875,"x_min":0,"x_max":0,"o":"m 868 -149 b 783 -195 850 -174 818 -195 b 724 -134 745 -195 724 -170 b 858 1 724 -87 755 -28 l 884 0 l 884 28 b 787 117 854 29 815 46 l 449 990 l 427 990 l 100 149 b -9 28 68 65 26 36 l -9 0 b 94 4 18 3 47 4 b 254 0 143 4 201 3 l 254 28 b 134 111 175 30 134 51 b 161 225 134 140 142 177 l 218 372 l 553 372 l 639 144 b 655 79 650 117 655 96 b 557 28 655 41 624 31 l 557 0 b 734 4 596 3 663 4 b 811 3 760 4 786 4 b 622 -171 690 -37 622 -99 b 732 -261 622 -225 665 -261 b 888 -167 793 -261 846 -232 z m 543 400 l 229 400 l 388 814 z "},"Å":{"ha":875,"x_min":0,"x_max":0,"o":"m 429 1031 b 564 1158 502 1031 564 1079 b 429 1284 564 1236 502 1284 b 296 1158 359 1284 296 1236 b 429 1031 296 1079 359 1031 z m 429 1255 b 526 1157 475 1255 526 1221 b 429 1060 526 1092 475 1060 b 335 1157 385 1060 335 1092 b 429 1255 335 1221 385 1255 z m 449 990 l 427 990 l 100 149 b -9 28 68 65 26 36 l -9 0 b 94 4 18 3 47 4 b 254 0 143 4 201 3 l 254 28 b 134 111 175 30 134 51 b 161 225 134 140 142 177 l 218 372 l 553 372 l 639 144 b 655 79 650 117 655 96 b 557 28 655 41 624 31 l 557 0 b 734 4 596 3 663 4 b 884 0 787 4 846 3 l 884 28 b 787 117 854 29 815 46 z m 543 400 l 229 400 l 388 814 z "},"Ã":{"ha":875,"x_min":0,"x_max":0,"o":"m 270 1179 b 539 1072 366 1179 437 1072 b 693 1219 617 1072 685 1128 l 673 1223 b 587 1146 656 1164 624 1146 b 317 1253 490 1146 420 1253 b 163 1105 239 1253 171 1197 l 184 1101 b 270 1179 200 1161 231 1179 z m 449 990 l 427 990 l 100 149 b -9 28 68 65 26 36 l -9 0 b 94 4 18 3 47 4 b 254 0 143 4 201 3 l 254 28 b 134 111 175 30 134 51 b 161 225 134 140 142 177 l 218 372 l 553 372 l 639 144 b 655 79 650 117 655 96 b 557 28 655 41 624 31 l 557 0 b 734 4 596 3 663 4 b 884 0 787 4 846 3 l 884 28 b 787 117 854 29 815 46 z m 543 400 l 229 400 l 388 814 z "},"Æ":{"ha":1186,"x_min":0,"x_max":0,"o":"m 1109 178 b 1114 278 1109 216 1111 253 l 1082 278 b 924 32 1067 94 1060 32 l 822 32 b 710 147 728 32 710 46 l 710 481 l 811 481 b 917 325 907 481 908 400 l 949 325 b 940 494 942 416 940 454 b 939 548 940 511 939 528 b 945 664 939 576 941 611 l 913 664 b 811 509 904 608 908 509 l 710 509 l 710 836 b 822 951 710 937 728 951 l 909 951 b 1054 733 1023 951 1040 897 l 1086 733 b 1082 819 1083 754 1082 786 b 1092 983 1082 851 1084 918 b 829 979 1014 979 905 979 b 639 980 787 979 715 979 l 694 1072 l 661 1072 l 606 981 b 468 983 559 981 511 982 l 468 956 b 569 920 526 953 555 947 l 82 117 b -14 28 43 52 16 29 l -14 0 b 79 4 9 3 47 4 b 205 0 129 4 178 3 l 205 28 b 109 77 142 31 109 43 b 135 144 109 94 118 116 l 338 481 l 581 481 l 581 147 b 496 28 581 46 568 32 l 496 0 b 829 4 611 4 760 4 b 1120 0 914 4 1034 4 b 1109 178 1112 71 1109 143 z m 581 509 l 355 509 l 578 880 b 581 836 580 868 581 853 z "},"B":{"ha":865,"x_min":0,"x_max":0,"o":"m 519 522 b 730 764 675 570 730 665 b 437 982 730 892 632 982 b 228 979 404 982 315 979 b 58 983 167 979 97 981 l 58 956 b 171 836 153 951 171 937 l 171 147 b 58 28 171 46 153 32 l 58 0 b 231 4 97 3 165 4 b 469 0 345 4 428 0 b 803 269 677 0 803 111 b 519 519 803 382 739 490 z m 403 956 b 597 749 542 956 597 885 b 393 522 597 628 557 522 l 300 522 l 300 836 b 403 956 300 932 318 956 z m 404 32 b 300 147 318 32 300 50 l 300 498 l 416 498 b 664 275 593 498 664 416 b 404 32 664 119 586 32 z "},"C":{"ha":956,"x_min":0,"x_max":0,"o":"m 515 1003 b 74 484 257 1003 74 794 b 514 -20 74 165 250 -20 b 771 71 633 -20 703 22 b 800 82 783 78 792 82 b 833 0 819 82 829 57 l 865 0 b 860 334 861 71 860 165 l 828 334 b 764 114 814 221 804 168 b 526 8 711 39 610 8 b 212 489 347 8 212 179 b 513 978 212 790 332 978 b 758 869 608 978 700 945 b 828 664 798 819 808 782 l 860 664 b 865 983 860 825 861 916 l 833 983 b 798 901 829 926 817 901 b 771 913 790 901 781 905 b 515 1003 710 960 637 1003 z "},"Ć":{"ha":956,"x_min":0,"x_max":0,"o":"m 654 1286 b 420 1090 595 1249 548 1187 l 430 1072 b 709 1196 573 1145 650 1160 b 746 1251 735 1213 746 1232 b 739 1276 746 1259 743 1268 b 696 1299 729 1291 714 1299 b 654 1286 683 1299 669 1295 z m 515 1003 b 74 484 257 1003 74 794 b 514 -20 74 165 250 -20 b 771 71 633 -20 703 22 b 800 82 783 78 792 82 b 833 0 819 82 829 57 l 865 0 b 860 334 861 71 860 165 l 828 334 b 764 114 814 221 804 168 b 526 8 711 39 610 8 b 212 489 347 8 212 179 b 513 978 212 790 332 978 b 758 869 608 978 700 945 b 828 664 798 819 808 782 l 860 664 b 865 983 860 825 861 916 l 833 983 b 798 901 829 926 817 901 b 771 913 790 901 781 905 b 515 1003 710 960 637 1003 z "},"Č":{"ha":956,"x_min":0,"x_max":0,"o":"m 766 1286 b 529 1189 677 1263 582 1223 b 236 1286 465 1223 347 1263 l 229 1267 b 489 1083 350 1225 446 1154 l 514 1083 b 774 1267 557 1154 652 1225 z m 515 1003 b 74 484 257 1003 74 794 b 514 -20 74 165 250 -20 b 771 71 633 -20 703 22 b 800 82 783 78 792 82 b 833 0 819 82 829 57 l 865 0 b 860 334 861 71 860 165 l 828 334 b 764 114 814 221 804 168 b 526 8 711 39 610 8 b 212 489 347 8 212 179 b 513 978 212 790 332 978 b 758 869 608 978 700 945 b 828 664 798 819 808 782 l 860 664 b 865 983 860 825 861 916 l 833 983 b 798 901 829 926 817 901 b 771 913 790 901 781 905 b 515 1003 710 960 637 1003 z "},"Ç":{"ha":956,"x_min":0,"x_max":0,"o":"m 828 334 b 764 114 814 221 804 168 b 526 8 711 39 610 8 b 212 489 347 8 212 179 b 513 978 212 790 332 978 b 758 869 608 978 700 945 b 828 664 798 819 808 782 l 860 664 b 865 983 860 825 861 916 l 833 983 b 798 901 829 926 817 901 b 771 913 790 901 781 905 b 515 1003 710 960 637 1003 b 74 484 257 1003 74 794 b 488 -19 74 176 239 -7 l 450 -134 b 518 -123 471 -126 503 -123 b 576 -163 555 -123 576 -136 b 452 -225 576 -212 506 -225 b 399 -221 429 -225 408 -222 l 393 -245 b 509 -261 418 -254 457 -261 b 665 -155 575 -261 665 -233 b 581 -90 665 -114 632 -90 b 498 -100 550 -90 522 -94 l 526 -20 b 771 71 638 -17 705 24 b 800 82 783 78 792 82 b 833 0 819 82 829 57 l 865 0 b 860 334 861 71 860 165 z "},"Ĉ":{"ha":956,"x_min":0,"x_max":0,"o":"m 493 1272 b 233 1089 450 1202 354 1131 l 240 1069 b 477 1166 329 1093 425 1132 b 770 1069 541 1132 659 1093 l 778 1089 b 518 1272 656 1131 561 1202 z m 515 1003 b 74 484 257 1003 74 794 b 514 -20 74 165 250 -20 b 771 71 633 -20 703 22 b 800 82 783 78 792 82 b 833 0 819 82 829 57 l 865 0 b 860 334 861 71 860 165 l 828 334 b 764 114 814 221 804 168 b 526 8 711 39 610 8 b 212 489 347 8 212 179 b 513 978 212 790 332 978 b 758 869 608 978 700 945 b 828 664 798 819 808 782 l 860 664 b 865 983 860 825 861 916 l 833 983 b 798 901 829 926 817 901 b 771 913 790 901 781 905 b 515 1003 710 960 637 1003 z "},"Ċ":{"ha":956,"x_min":0,"x_max":0,"o":"m 524 1250 b 435 1161 475 1250 435 1210 b 524 1072 435 1112 475 1072 b 612 1161 572 1072 612 1112 b 524 1250 612 1210 572 1250 z m 515 1003 b 74 484 257 1003 74 794 b 514 -20 74 165 250 -20 b 771 71 633 -20 703 22 b 800 82 783 78 792 82 b 833 0 819 82 829 57 l 865 0 b 860 334 861 71 860 165 l 828 334 b 764 114 814 221 804 168 b 526 8 711 39 610 8 b 212 489 347 8 212 179 b 513 978 212 790 332 978 b 758 869 608 978 700 945 b 828 664 798 819 808 782 l 860 664 b 865 983 860 825 861 916 l 833 983 b 798 901 829 926 817 901 b 771 913 790 901 781 905 b 515 1003 710 960 637 1003 z "},"D":{"ha":1004,"x_min":0,"x_max":0,"o":"m 437 983 b 228 979 385 983 292 981 b 194 979 216 979 205 979 b 58 983 142 979 90 981 l 58 956 b 171 836 153 951 171 937 l 171 147 b 58 28 171 46 153 32 l 58 0 b 231 4 97 3 165 4 b 425 0 290 4 383 0 b 928 503 745 0 928 200 b 437 983 928 812 768 983 z m 403 958 b 789 497 690 958 789 808 b 404 25 789 195 707 25 b 300 144 318 25 300 47 l 300 839 b 403 958 300 935 318 958 z "},"Ð":{"ha":1006,"x_min":0,"x_max":0,"o":"m 439 983 b 229 979 386 983 293 981 b 195 979 218 979 207 979 b 60 983 144 979 92 981 l 60 956 b 172 836 154 951 172 937 l 172 509 l 60 509 l 60 481 l 172 481 l 172 147 b 60 28 172 46 154 32 l 60 0 b 232 4 98 3 167 4 b 427 0 292 4 385 0 b 929 503 746 0 929 200 b 439 983 929 812 770 983 z m 406 25 b 301 144 319 25 301 47 l 301 481 l 494 481 l 494 509 l 301 509 l 301 839 b 404 958 301 935 319 958 b 790 497 692 958 790 808 b 406 25 790 195 708 25 z "},"Ď":{"ha":1004,"x_min":0,"x_max":0,"o":"m 699 1286 b 461 1189 610 1263 514 1223 b 168 1286 397 1223 279 1263 l 161 1267 b 421 1083 282 1225 378 1154 l 446 1083 b 706 1267 489 1154 585 1225 z m 437 983 b 228 979 385 983 292 981 b 194 979 216 979 205 979 b 58 983 142 979 90 981 l 58 956 b 171 836 153 951 171 937 l 171 147 b 58 28 171 46 153 32 l 58 0 b 231 4 97 3 165 4 b 425 0 290 4 383 0 b 928 503 745 0 928 200 b 437 983 928 812 768 983 z m 403 958 b 789 497 690 958 789 808 b 404 25 789 195 707 25 b 300 144 318 25 300 47 l 300 839 b 403 958 300 935 318 958 z "},"Đ":{"ha":1006,"x_min":0,"x_max":0,"o":"m 439 983 b 229 979 386 983 293 981 b 195 979 218 979 207 979 b 60 983 144 979 92 981 l 60 956 b 172 836 154 951 172 937 l 172 509 l 60 509 l 60 481 l 172 481 l 172 147 b 60 28 172 46 154 32 l 60 0 b 232 4 98 3 167 4 b 427 0 292 4 385 0 b 929 503 746 0 929 200 b 439 983 929 812 770 983 z m 406 25 b 301 144 319 25 301 47 l 301 481 l 494 481 l 494 509 l 301 509 l 301 839 b 404 958 301 935 319 958 b 790 497 692 958 790 808 b 406 25 790 195 708 25 z "},"E":{"ha":846,"x_min":0,"x_max":0,"o":"m 770 178 b 774 278 770 216 771 253 l 742 278 b 514 32 722 94 688 32 l 412 32 b 300 147 318 32 300 46 l 300 481 l 392 481 b 525 297 513 481 514 386 l 557 297 b 549 494 550 403 549 449 b 548 561 549 515 548 535 b 553 692 548 593 549 633 l 521 692 b 392 509 510 625 513 509 l 300 509 l 300 836 b 412 951 300 937 318 951 l 528 951 b 714 733 675 951 696 897 l 746 733 b 742 819 743 754 742 786 b 751 983 742 851 745 918 b 461 979 665 979 546 979 b 58 983 378 979 195 979 l 58 956 b 171 836 153 951 171 937 l 171 147 b 58 28 171 46 153 32 l 58 0 b 461 4 195 4 378 4 b 779 0 554 4 685 4 b 770 178 772 71 770 143 z "},"É":{"ha":846,"x_min":0,"x_max":0,"o":"m 629 1196 b 666 1251 655 1213 666 1232 b 659 1276 666 1259 663 1268 b 616 1299 649 1291 634 1299 b 574 1286 603 1299 589 1295 b 340 1090 515 1249 468 1187 l 350 1072 b 629 1196 493 1145 570 1160 z m 770 178 b 774 278 770 216 771 253 l 742 278 b 514 32 722 94 688 32 l 412 32 b 300 147 318 32 300 46 l 300 481 l 392 481 b 525 297 513 481 514 386 l 557 297 b 549 494 550 403 549 449 b 548 561 549 515 548 535 b 553 692 548 593 549 633 l 521 692 b 392 509 510 625 513 509 l 300 509 l 300 836 b 412 951 300 937 318 951 l 528 951 b 714 733 675 951 696 897 l 746 733 b 742 819 743 754 742 786 b 751 983 742 851 745 918 b 461 979 665 979 546 979 b 58 983 378 979 195 979 l 58 956 b 171 836 153 951 171 937 l 171 147 b 58 28 171 46 153 32 l 58 0 b 461 4 195 4 378 4 b 779 0 554 4 685 4 b 770 178 772 71 770 143 z "},"Ĕ":{"ha":846,"x_min":0,"x_max":0,"o":"m 425 1086 b 701 1247 567 1086 657 1175 l 685 1263 b 425 1173 642 1221 558 1173 b 167 1261 292 1173 210 1219 l 149 1247 b 425 1086 193 1175 283 1086 z m 770 178 b 774 278 770 216 771 253 l 742 278 b 514 32 722 94 688 32 l 412 32 b 300 147 318 32 300 46 l 300 481 l 392 481 b 525 297 513 481 514 386 l 557 297 b 549 494 550 403 549 449 b 548 561 549 515 548 535 b 553 692 548 593 549 633 l 521 692 b 392 509 510 625 513 509 l 300 509 l 300 836 b 412 951 300 937 318 951 l 528 951 b 714 733 675 951 696 897 l 746 733 b 742 819 743 754 742 786 b 751 983 742 851 745 918 b 461 979 665 979 546 979 b 58 983 378 979 195 979 l 58 956 b 171 836 153 951 171 937 l 171 147 b 58 28 171 46 153 32 l 58 0 b 461 4 195 4 378 4 b 779 0 554 4 685 4 b 770 178 772 71 770 143 z "},"Ě":{"ha":846,"x_min":0,"x_max":0,"o":"m 434 1083 b 694 1267 477 1154 572 1225 l 686 1286 b 449 1189 597 1263 502 1223 b 156 1286 385 1223 267 1263 l 149 1267 b 409 1083 270 1225 366 1154 z m 770 178 b 774 278 770 216 771 253 l 742 278 b 514 32 722 94 688 32 l 412 32 b 300 147 318 32 300 46 l 300 481 l 392 481 b 525 297 513 481 514 386 l 557 297 b 549 494 550 403 549 449 b 548 561 549 515 548 535 b 553 692 548 593 549 633 l 521 692 b 392 509 510 625 513 509 l 300 509 l 300 836 b 412 951 300 937 318 951 l 528 951 b 714 733 675 951 696 897 l 746 733 b 742 819 743 754 742 786 b 751 983 742 851 745 918 b 461 979 665 979 546 979 b 58 983 378 979 195 979 l 58 956 b 171 836 153 951 171 937 l 171 147 b 58 28 171 46 153 32 l 58 0 b 461 4 195 4 378 4 b 779 0 554 4 685 4 b 770 178 772 71 770 143 z "},"Ê":{"ha":846,"x_min":0,"x_max":0,"o":"m 397 1166 b 690 1069 461 1132 579 1093 l 698 1089 b 438 1272 576 1131 481 1202 l 413 1272 b 153 1089 370 1202 274 1131 l 160 1069 b 397 1166 249 1093 345 1132 z m 770 178 b 774 278 770 216 771 253 l 742 278 b 514 32 722 94 688 32 l 412 32 b 300 147 318 32 300 46 l 300 481 l 392 481 b 525 297 513 481 514 386 l 557 297 b 549 494 550 403 549 449 b 548 561 549 515 548 535 b 553 692 548 593 549 633 l 521 692 b 392 509 510 625 513 509 l 300 509 l 300 836 b 412 951 300 937 318 951 l 528 951 b 714 733 675 951 696 897 l 746 733 b 742 819 743 754 742 786 b 751 983 742 851 745 918 b 461 979 665 979 546 979 b 58 983 378 979 195 979 l 58 956 b 171 836 153 951 171 937 l 171 147 b 58 28 171 46 153 32 l 58 0 b 461 4 195 4 378 4 b 779 0 554 4 685 4 b 770 178 772 71 770 143 z "},"Ë":{"ha":846,"x_min":0,"x_max":0,"o":"m 278 1072 b 359 1153 321 1072 359 1108 b 278 1234 359 1196 321 1234 b 197 1153 233 1234 197 1196 b 278 1072 197 1108 233 1072 z m 572 1072 b 653 1153 616 1072 653 1108 b 572 1234 653 1196 616 1234 b 492 1153 528 1234 492 1196 b 572 1072 492 1108 528 1072 z m 770 178 b 774 278 770 216 771 253 l 742 278 b 514 32 722 94 688 32 l 412 32 b 300 147 318 32 300 46 l 300 481 l 392 481 b 525 297 513 481 514 386 l 557 297 b 549 494 550 403 549 449 b 548 561 549 515 548 535 b 553 692 548 593 549 633 l 521 692 b 392 509 510 625 513 509 l 300 509 l 300 836 b 412 951 300 937 318 951 l 528 951 b 714 733 675 951 696 897 l 746 733 b 742 819 743 754 742 786 b 751 983 742 851 745 918 b 461 979 665 979 546 979 b 58 983 378 979 195 979 l 58 956 b 171 836 153 951 171 937 l 171 147 b 58 28 171 46 153 32 l 58 0 b 461 4 195 4 378 4 b 779 0 554 4 685 4 b 770 178 772 71 770 143 z "},"Ė":{"ha":846,"x_min":0,"x_max":0,"o":"m 444 1072 b 532 1161 492 1072 532 1112 b 444 1250 532 1210 492 1250 b 355 1161 395 1250 355 1210 b 444 1072 355 1112 395 1072 z m 770 178 b 774 278 770 216 771 253 l 742 278 b 514 32 722 94 688 32 l 412 32 b 300 147 318 32 300 46 l 300 481 l 392 481 b 525 297 513 481 514 386 l 557 297 b 549 494 550 403 549 449 b 548 561 549 515 548 535 b 553 692 548 593 549 633 l 521 692 b 392 509 510 625 513 509 l 300 509 l 300 836 b 412 951 300 937 318 951 l 528 951 b 714 733 675 951 696 897 l 746 733 b 742 819 743 754 742 786 b 751 983 742 851 745 918 b 461 979 665 979 546 979 b 58 983 378 979 195 979 l 58 956 b 171 836 153 951 171 937 l 171 147 b 58 28 171 46 153 32 l 58 0 b 461 4 195 4 378 4 b 779 0 554 4 685 4 b 770 178 772 71 770 143 z "},"È":{"ha":846,"x_min":0,"x_max":0,"o":"m 229 1196 b 509 1072 289 1160 366 1145 l 518 1090 b 285 1286 391 1187 343 1249 b 243 1299 270 1295 256 1299 b 200 1276 224 1299 210 1291 b 193 1251 195 1268 193 1259 b 229 1196 193 1232 203 1213 z m 770 178 b 774 278 770 216 771 253 l 742 278 b 514 32 722 94 688 32 l 412 32 b 300 147 318 32 300 46 l 300 481 l 392 481 b 525 297 513 481 514 386 l 557 297 b 549 494 550 403 549 449 b 548 561 549 515 548 535 b 553 692 548 593 549 633 l 521 692 b 392 509 510 625 513 509 l 300 509 l 300 836 b 412 951 300 937 318 951 l 528 951 b 714 733 675 951 696 897 l 746 733 b 742 819 743 754 742 786 b 751 983 742 851 745 918 b 461 979 665 979 546 979 b 58 983 378 979 195 979 l 58 956 b 171 836 153 951 171 937 l 171 147 b 58 28 171 46 153 32 l 58 0 b 461 4 195 4 378 4 b 779 0 554 4 685 4 b 770 178 772 71 770 143 z "},"Ē":{"ha":846,"x_min":0,"x_max":0,"o":"m 669 1137 l 669 1173 l 180 1173 l 180 1137 z m 770 178 b 774 278 770 216 771 253 l 742 278 b 514 32 722 94 688 32 l 412 32 b 300 147 318 32 300 46 l 300 481 l 392 481 b 525 297 513 481 514 386 l 557 297 b 549 494 550 403 549 449 b 548 561 549 515 548 535 b 553 692 548 593 549 633 l 521 692 b 392 509 510 625 513 509 l 300 509 l 300 836 b 412 951 300 937 318 951 l 528 951 b 714 733 675 951 696 897 l 746 733 b 742 819 743 754 742 786 b 751 983 742 851 745 918 b 461 979 665 979 546 979 b 58 983 378 979 195 979 l 58 956 b 171 836 153 951 171 937 l 171 147 b 58 28 171 46 153 32 l 58 0 b 461 4 195 4 378 4 b 779 0 554 4 685 4 b 770 178 772 71 770 143 z "},"Ę":{"ha":846,"x_min":0,"x_max":0,"o":"m 781 -149 b 696 -195 762 -174 730 -195 b 636 -134 658 -195 636 -170 b 767 1 636 -88 667 -30 l 779 0 b 779 4 779 1 779 3 b 770 178 772 73 770 144 b 774 278 770 216 771 253 l 742 278 b 514 32 722 94 688 32 l 412 32 b 300 147 318 32 300 46 l 300 481 l 392 481 b 525 297 513 481 514 386 l 557 297 b 549 494 550 403 549 449 b 548 561 549 515 548 535 b 553 692 548 593 549 633 l 521 692 b 392 509 510 625 513 509 l 300 509 l 300 836 b 412 951 300 937 318 951 l 528 951 b 714 733 675 951 696 897 l 746 733 b 742 819 743 754 742 786 b 751 983 742 851 745 918 b 461 979 665 979 546 979 b 58 983 378 979 195 979 l 58 956 b 171 836 153 951 171 937 l 171 147 b 58 28 171 46 153 32 l 58 0 b 461 4 195 4 378 4 b 720 2 536 4 635 4 b 534 -171 602 -38 534 -100 b 644 -261 534 -225 578 -261 b 801 -167 705 -261 758 -232 z "},"F":{"ha":790,"x_min":0,"x_max":0,"o":"m 751 983 b 461 979 665 979 546 979 b 58 983 378 979 195 979 l 58 956 b 171 836 153 951 171 937 l 171 147 b 58 28 171 46 153 32 l 58 0 b 236 4 97 3 164 4 b 440 0 311 4 392 3 l 440 28 b 300 147 323 32 300 46 l 300 467 l 401 467 b 534 283 522 467 524 372 l 567 283 b 558 481 559 389 558 435 b 557 547 558 501 557 522 b 562 677 557 579 558 619 l 530 677 b 401 494 519 611 522 494 l 300 494 l 300 836 b 412 951 300 937 318 951 l 500 951 b 714 692 673 951 694 885 l 746 692 b 742 806 743 721 742 761 b 751 983 742 840 745 913 z "},"G":{"ha":977,"x_min":0,"x_max":0,"o":"m 522 1003 b 75 475 264 1003 75 799 b 530 -20 75 165 243 -20 b 747 56 621 -20 686 9 b 793 79 775 77 782 79 b 831 0 817 79 829 32 l 859 0 l 859 275 b 929 395 859 378 868 390 l 929 422 b 785 418 896 419 846 418 b 589 422 722 418 637 419 l 589 395 b 729 261 705 390 729 374 l 729 127 b 689 52 729 93 724 75 b 545 8 661 32 611 8 b 214 490 318 8 214 157 b 519 978 214 789 335 978 b 760 869 612 978 705 937 b 829 664 803 817 817 742 l 861 664 b 867 983 861 825 863 916 l 835 983 b 800 899 829 925 818 899 b 772 913 791 899 783 904 b 522 1003 707 960 643 1003 z "},"Ǵ":{"ha":977,"x_min":0,"x_max":0,"o":"m 650 1286 b 416 1090 591 1249 544 1187 l 426 1072 b 705 1196 569 1145 646 1160 b 742 1251 731 1213 742 1232 b 734 1276 742 1259 739 1268 b 692 1299 725 1291 710 1299 b 650 1286 679 1299 665 1295 z m 522 1003 b 75 475 264 1003 75 799 b 530 -20 75 165 243 -20 b 747 56 621 -20 686 9 b 793 79 775 77 782 79 b 831 0 817 79 829 32 l 859 0 l 859 275 b 929 395 859 378 868 390 l 929 422 b 785 418 896 419 846 418 b 589 422 722 418 637 419 l 589 395 b 729 261 705 390 729 374 l 729 127 b 689 52 729 93 724 75 b 545 8 661 32 611 8 b 214 490 318 8 214 157 b 519 978 214 789 335 978 b 760 869 612 978 705 937 b 829 664 803 817 817 742 l 861 664 b 867 983 861 825 863 916 l 835 983 b 800 899 829 925 818 899 b 772 913 791 899 783 904 b 522 1003 707 960 643 1003 z "},"Ğ":{"ha":977,"x_min":0,"x_max":0,"o":"m 761 1263 b 501 1173 718 1221 634 1173 b 243 1261 368 1173 286 1219 l 224 1247 b 501 1086 269 1175 359 1086 b 777 1247 643 1086 733 1175 z m 522 1003 b 75 475 264 1003 75 799 b 530 -20 75 165 243 -20 b 747 56 621 -20 686 9 b 793 79 775 77 782 79 b 831 0 817 79 829 32 l 859 0 l 859 275 b 929 395 859 378 868 390 l 929 422 b 785 418 896 419 846 418 b 589 422 722 418 637 419 l 589 395 b 729 261 705 390 729 374 l 729 127 b 689 52 729 93 724 75 b 545 8 661 32 611 8 b 214 490 318 8 214 157 b 519 978 214 789 335 978 b 760 869 612 978 705 937 b 829 664 803 817 817 742 l 861 664 b 867 983 861 825 863 916 l 835 983 b 800 899 829 925 818 899 b 772 913 791 899 783 904 b 522 1003 707 960 643 1003 z "},"Ĝ":{"ha":977,"x_min":0,"x_max":0,"o":"m 489 1272 b 229 1089 446 1202 350 1131 l 236 1069 b 473 1166 325 1093 420 1132 b 766 1069 537 1132 655 1093 l 774 1089 b 514 1272 652 1131 557 1202 z m 522 1003 b 75 475 264 1003 75 799 b 530 -20 75 165 243 -20 b 747 56 621 -20 686 9 b 793 79 775 77 782 79 b 831 0 817 79 829 32 l 859 0 l 859 275 b 929 395 859 378 868 390 l 929 422 b 785 418 896 419 846 418 b 589 422 722 418 637 419 l 589 395 b 729 261 705 390 729 374 l 729 127 b 689 52 729 93 724 75 b 545 8 661 32 611 8 b 214 490 318 8 214 157 b 519 978 214 789 335 978 b 760 869 612 978 705 937 b 829 664 803 817 817 742 l 861 664 b 867 983 861 825 863 916 l 835 983 b 800 899 829 925 818 899 b 772 913 791 899 783 904 b 522 1003 707 960 643 1003 z "},"Ģ":{"ha":977,"x_min":0,"x_max":0,"o":"m 522 1003 b 75 475 264 1003 75 799 b 530 -20 75 165 243 -20 b 747 56 621 -20 686 9 b 793 79 775 77 782 79 b 831 0 817 79 829 32 l 859 0 l 859 275 b 929 395 859 378 868 390 l 929 422 b 785 418 896 419 846 418 b 589 422 722 418 637 419 l 589 395 b 729 261 705 390 729 374 l 729 127 b 689 52 729 93 724 75 b 545 8 661 32 611 8 b 214 490 318 8 214 157 b 519 978 214 789 335 978 b 760 869 612 978 705 937 b 829 664 803 817 817 742 l 861 664 b 867 983 861 825 863 916 l 835 983 b 800 899 829 925 818 899 b 772 913 791 899 783 904 b 522 1003 707 960 643 1003 z m 515 -96 b 437 -170 472 -96 437 -127 b 510 -244 437 -218 469 -244 b 568 -222 533 -244 554 -235 b 482 -310 568 -267 525 -297 l 492 -335 b 606 -193 581 -302 606 -260 b 515 -96 606 -139 570 -96 z "},"Ġ":{"ha":977,"x_min":0,"x_max":0,"o":"m 519 1250 b 431 1161 471 1250 431 1210 b 519 1072 431 1112 471 1072 b 608 1161 568 1072 608 1112 b 519 1250 608 1210 568 1250 z m 522 1003 b 75 475 264 1003 75 799 b 530 -20 75 165 243 -20 b 747 56 621 -20 686 9 b 793 79 775 77 782 79 b 831 0 817 79 829 32 l 859 0 l 859 275 b 929 395 859 378 868 390 l 929 422 b 785 418 896 419 846 418 b 589 422 722 418 637 419 l 589 395 b 729 261 705 390 729 374 l 729 127 b 689 52 729 93 724 75 b 545 8 661 32 611 8 b 214 490 318 8 214 157 b 519 978 214 789 335 978 b 760 869 612 978 705 937 b 829 664 803 817 817 742 l 861 664 b 867 983 861 825 863 916 l 835 983 b 800 899 829 925 818 899 b 772 913 791 899 783 904 b 522 1003 707 960 643 1003 z "},"H":{"ha":1051,"x_min":0,"x_max":0,"o":"m 993 983 b 815 979 954 981 888 979 b 639 983 751 979 682 981 l 639 956 b 751 836 733 951 751 937 l 751 509 l 300 509 l 300 836 b 412 956 300 937 318 951 l 412 983 b 236 979 370 981 300 979 b 58 983 164 979 97 981 l 58 956 b 171 836 153 951 171 937 l 171 147 b 58 28 171 46 153 32 l 58 0 b 236 4 97 3 164 4 b 412 0 300 4 370 3 l 412 28 b 300 147 318 32 300 46 l 300 481 l 751 481 l 751 147 b 639 28 751 46 733 32 l 639 0 b 815 4 682 3 751 4 b 993 0 888 4 954 3 l 993 28 b 880 147 899 32 880 46 l 880 836 b 993 956 880 937 899 951 z "},"Ħ":{"ha":1051,"x_min":0,"x_max":0,"o":"m 993 983 b 815 979 954 981 888 979 b 639 983 751 979 682 981 l 639 956 b 751 836 733 951 751 937 l 751 741 l 300 741 l 300 836 b 412 956 300 937 318 951 l 412 983 b 236 979 370 981 300 979 b 58 983 164 979 97 981 l 58 956 b 171 836 153 951 171 937 l 171 741 l 58 741 l 58 713 l 171 713 l 171 147 b 58 28 171 46 153 32 l 58 0 b 236 4 97 3 164 4 b 412 0 300 4 370 3 l 412 28 b 300 147 318 32 300 46 l 300 481 l 751 481 l 751 147 b 639 28 751 46 733 32 l 639 0 b 815 4 682 3 751 4 b 993 0 888 4 954 3 l 993 28 b 880 147 899 32 880 46 l 880 713 l 993 713 l 993 741 l 880 741 l 880 836 b 993 956 880 937 899 951 z m 751 713 l 751 509 l 300 509 l 300 713 z "},"Ĥ":{"ha":1051,"x_min":0,"x_max":0,"o":"m 517 1272 b 257 1089 473 1202 378 1131 l 264 1069 b 501 1166 353 1093 448 1132 b 794 1069 565 1132 683 1093 l 802 1089 b 542 1272 680 1131 585 1202 z m 993 983 b 815 979 954 981 888 979 b 639 983 751 979 682 981 l 639 956 b 751 836 733 951 751 937 l 751 509 l 300 509 l 300 836 b 412 956 300 937 318 951 l 412 983 b 236 979 370 981 300 979 b 58 983 164 979 97 981 l 58 956 b 171 836 153 951 171 937 l 171 147 b 58 28 171 46 153 32 l 58 0 b 236 4 97 3 164 4 b 412 0 300 4 370 3 l 412 28 b 300 147 318 32 300 46 l 300 481 l 751 481 l 751 147 b 639 28 751 46 733 32 l 639 0 b 815 4 682 3 751 4 b 993 0 888 4 954 3 l 993 28 b 880 147 899 32 880 46 l 880 836 b 993 956 880 937 899 951 z "},"I":{"ha":471,"x_min":0,"x_max":0,"o":"m 412 983 b 236 979 370 981 300 979 b 58 983 164 979 97 981 l 58 956 b 171 836 153 951 171 937 l 171 147 b 58 28 171 46 153 32 l 58 0 b 236 4 97 3 164 4 b 412 0 300 4 370 3 l 412 28 b 300 147 318 32 300 46 l 300 836 b 412 956 300 937 318 951 z "},"Ĳ":{"ha":899,"x_min":0,"x_max":0,"o":"m 412 983 b 236 979 370 981 300 979 b 58 983 164 979 97 981 l 58 956 b 171 836 153 951 171 937 l 171 147 b 58 28 171 46 153 32 l 58 0 b 236 4 97 3 164 4 b 412 0 300 4 370 3 l 412 28 b 300 147 318 32 300 46 l 300 836 b 412 956 300 937 318 951 z m 850 983 b 673 979 806 981 737 979 b 496 983 601 979 534 981 l 496 956 b 608 836 590 951 608 937 l 608 201 b 585 -117 608 9 604 -58 b 418 -235 559 -191 498 -235 b 329 -212 394 -235 347 -231 b 387 -142 363 -205 387 -182 b 311 -66 387 -94 354 -66 b 237 -140 268 -66 237 -97 b 304 -236 237 -179 258 -212 b 420 -261 329 -249 369 -261 b 713 -35 579 -261 683 -163 b 737 328 736 58 737 212 l 737 836 b 850 956 737 937 755 951 z "},"Í":{"ha":471,"x_min":0,"x_max":0,"o":"m 385 1286 b 151 1090 326 1249 279 1187 l 161 1072 b 440 1196 304 1145 380 1160 b 477 1251 466 1213 477 1232 b 469 1276 477 1259 474 1268 b 427 1299 460 1291 445 1299 b 385 1286 414 1299 399 1295 z m 412 983 b 236 979 370 981 300 979 b 58 983 164 979 97 981 l 58 956 b 171 836 153 951 171 937 l 171 147 b 58 28 171 46 153 32 l 58 0 b 236 4 97 3 164 4 b 412 0 300 4 370 3 l 412 28 b 300 147 318 32 300 46 l 300 836 b 412 956 300 937 318 951 z "},"Ĭ":{"ha":471,"x_min":0,"x_max":0,"o":"m 496 1263 b 236 1173 452 1221 369 1173 b -22 1261 102 1173 20 1219 l -41 1247 b 236 1086 4 1175 94 1086 b 512 1247 378 1086 468 1175 z m 412 983 b 236 979 370 981 300 979 b 58 983 164 979 97 981 l 58 956 b 171 836 153 951 171 937 l 171 147 b 58 28 171 46 153 32 l 58 0 b 236 4 97 3 164 4 b 412 0 300 4 370 3 l 412 28 b 300 147 318 32 300 46 l 300 836 b 412 956 300 937 318 951 z "},"Î":{"ha":471,"x_min":0,"x_max":0,"o":"m 224 1272 b -36 1089 180 1202 85 1131 l -29 1069 b 208 1166 60 1093 155 1132 b 501 1069 272 1132 390 1093 l 509 1089 b 249 1272 387 1131 292 1202 z m 412 983 b 236 979 370 981 300 979 b 58 983 164 979 97 981 l 58 956 b 171 836 153 951 171 937 l 171 147 b 58 28 171 46 153 32 l 58 0 b 236 4 97 3 164 4 b 412 0 300 4 370 3 l 412 28 b 300 147 318 32 300 46 l 300 836 b 412 956 300 937 318 951 z "},"Ï":{"ha":471,"x_min":0,"x_max":0,"o":"m 89 1234 b 8 1153 44 1234 8 1196 b 89 1072 8 1108 44 1072 b 170 1153 132 1072 170 1108 b 89 1234 170 1196 132 1234 z m 383 1234 b 302 1153 339 1234 302 1196 b 383 1072 302 1108 339 1072 b 464 1153 427 1072 464 1108 b 383 1234 464 1196 427 1234 z m 412 983 b 236 979 370 981 300 979 b 58 983 164 979 97 981 l 58 956 b 171 836 153 951 171 937 l 171 147 b 58 28 171 46 153 32 l 58 0 b 236 4 97 3 164 4 b 412 0 300 4 370 3 l 412 28 b 300 147 318 32 300 46 l 300 836 b 412 956 300 937 318 951 z "},"İ":{"ha":471,"x_min":0,"x_max":0,"o":"m 236 1332 b 147 1243 187 1332 147 1291 b 236 1154 147 1194 187 1154 b 325 1243 284 1154 325 1194 b 236 1332 325 1291 284 1332 z m 412 983 b 236 979 370 981 300 979 b 58 983 164 979 97 981 l 58 956 b 171 836 153 951 171 937 l 171 147 b 58 28 171 46 153 32 l 58 0 b 236 4 97 3 164 4 b 412 0 300 4 370 3 l 412 28 b 300 147 318 32 300 46 l 300 836 b 412 956 300 937 318 951 z "},"Ì":{"ha":471,"x_min":0,"x_max":0,"o":"m 96 1286 b 54 1299 81 1295 66 1299 b 11 1276 35 1299 20 1291 b 3 1251 6 1268 3 1259 b 40 1196 3 1232 14 1213 b 319 1072 100 1160 176 1145 l 329 1090 b 96 1286 201 1187 154 1249 z m 412 983 b 236 979 370 981 300 979 b 58 983 164 979 97 981 l 58 956 b 171 836 153 951 171 937 l 171 147 b 58 28 171 46 153 32 l 58 0 b 236 4 97 3 164 4 b 412 0 300 4 370 3 l 412 28 b 300 147 318 32 300 46 l 300 836 b 412 956 300 937 318 951 z "},"Ī":{"ha":471,"x_min":0,"x_max":0,"o":"m 480 1137 l 480 1173 l -9 1173 l -9 1137 z m 412 983 b 236 979 370 981 300 979 b 58 983 164 979 97 981 l 58 956 b 171 836 153 951 171 937 l 171 147 b 58 28 171 46 153 32 l 58 0 b 236 4 97 3 164 4 b 412 0 300 4 370 3 l 412 28 b 300 147 318 32 300 46 l 300 836 b 412 956 300 937 318 951 z "},"Į":{"ha":471,"x_min":0,"x_max":0,"o":"m 414 -149 b 329 -195 395 -174 363 -195 b 269 -134 291 -195 269 -170 b 400 1 269 -88 300 -30 l 412 0 l 412 28 b 300 147 318 32 300 46 l 300 836 b 412 956 300 937 318 951 l 412 983 b 236 979 370 981 300 979 b 58 983 164 979 97 981 l 58 956 b 171 836 153 951 171 937 l 171 147 b 58 28 171 46 153 32 l 58 0 b 236 4 97 3 164 4 b 355 3 276 4 318 3 b 168 -171 235 -37 168 -99 b 277 -261 168 -225 211 -261 b 434 -167 338 -261 391 -232 z "},"Ĩ":{"ha":471,"x_min":0,"x_max":0,"o":"m 123 1253 b -31 1105 46 1253 -22 1197 l -9 1101 b 77 1179 7 1161 38 1179 b 346 1072 172 1179 243 1072 b 500 1219 424 1072 492 1128 l 479 1223 b 393 1146 463 1164 431 1146 b 123 1253 297 1146 227 1253 z m 412 983 b 236 979 370 981 300 979 b 58 983 164 979 97 981 l 58 956 b 171 836 153 951 171 937 l 171 147 b 58 28 171 46 153 32 l 58 0 b 236 4 97 3 164 4 b 412 0 300 4 370 3 l 412 28 b 300 147 318 32 300 46 l 300 836 b 412 956 300 937 318 951 z "},"J":{"ha":453,"x_min":0,"x_max":0,"o":"m 404 983 b 228 979 361 981 292 979 b 50 983 155 979 89 981 l 50 956 b 163 836 144 951 163 937 l 163 201 b 139 -117 163 9 158 -58 b -28 -235 114 -191 53 -235 b -117 -212 -52 -235 -98 -231 b -58 -142 -82 -205 -58 -182 b -135 -66 -58 -94 -92 -66 b -208 -140 -178 -66 -208 -97 b -142 -236 -208 -179 -187 -212 b -25 -261 -117 -249 -77 -261 b 268 -35 134 -261 237 -163 b 292 328 290 58 292 212 l 292 836 b 404 956 292 937 310 951 z "},"Ĵ":{"ha":453,"x_min":0,"x_max":0,"o":"m 216 1272 b -44 1089 172 1202 77 1131 l -37 1069 b 200 1166 52 1093 147 1132 b 493 1069 264 1132 382 1093 l 500 1089 b 241 1272 379 1131 283 1202 z m 404 983 b 228 979 361 981 292 979 b 50 983 155 979 89 981 l 50 956 b 163 836 144 951 163 937 l 163 201 b 139 -117 163 9 158 -58 b -28 -235 114 -191 53 -235 b -117 -212 -52 -235 -98 -231 b -58 -142 -82 -205 -58 -182 b -135 -66 -58 -94 -92 -66 b -208 -140 -178 -66 -208 -97 b -142 -236 -208 -179 -187 -212 b -25 -261 -117 -249 -77 -261 b 268 -35 134 -261 237 -163 b 292 328 290 58 292 212 l 292 836 b 404 956 292 937 310 951 z "},"K":{"ha":909,"x_min":0,"x_max":0,"o":"m 464 564 l 690 854 b 854 956 743 922 798 947 l 854 983 b 736 979 827 981 783 979 b 576 983 688 979 629 981 l 576 956 b 663 905 635 954 663 937 b 591 772 663 875 637 830 l 458 603 b 300 525 425 559 375 528 l 300 836 b 412 956 300 937 318 951 l 412 983 b 236 979 370 981 300 979 b 58 983 164 979 97 981 l 58 956 b 171 836 153 951 171 937 l 171 147 b 58 28 171 46 153 32 l 58 0 b 236 4 97 3 164 4 b 412 0 300 4 370 3 l 412 28 b 300 147 318 32 300 46 l 300 497 b 446 396 364 494 390 480 l 648 90 b 663 57 658 77 663 66 b 599 28 663 38 642 30 l 599 0 b 742 4 667 4 710 4 b 908 0 787 4 864 3 l 908 28 b 786 113 851 41 817 66 z "},"Ķ":{"ha":909,"x_min":0,"x_max":0,"o":"m 464 564 l 690 854 b 854 956 743 922 798 947 l 854 983 b 736 979 827 981 783 979 b 576 983 688 979 629 981 l 576 956 b 663 905 635 954 663 937 b 591 772 663 875 637 830 l 458 603 b 300 525 425 559 375 528 l 300 836 b 412 956 300 937 318 951 l 412 983 b 236 979 370 981 300 979 b 58 983 164 979 97 981 l 58 956 b 171 836 153 951 171 937 l 171 147 b 58 28 171 46 153 32 l 58 0 b 236 4 97 3 164 4 b 412 0 300 4 370 3 l 412 28 b 300 147 318 32 300 46 l 300 497 b 446 396 364 494 390 480 l 648 90 b 663 57 658 77 663 66 b 599 28 663 38 642 30 l 599 0 b 742 4 667 4 710 4 b 908 0 787 4 864 3 l 908 28 b 786 113 851 41 817 66 z m 473 -96 b 395 -170 429 -96 395 -127 b 467 -244 395 -218 427 -244 b 526 -222 490 -244 511 -235 b 439 -310 526 -267 482 -297 l 449 -335 b 563 -193 538 -302 563 -260 b 473 -96 563 -139 527 -96 z "},"L":{"ha":817,"x_min":0,"x_max":0,"o":"m 412 983 b 236 979 370 981 300 979 b 58 983 164 979 97 981 l 58 956 b 171 836 153 951 171 937 l 171 147 b 58 28 171 46 153 32 l 58 0 b 461 4 195 4 378 4 b 779 0 554 4 685 4 b 770 178 772 71 770 143 b 774 292 770 222 771 262 l 742 292 b 514 32 722 98 688 32 l 412 32 b 300 147 318 32 300 46 l 300 836 b 412 956 300 937 318 951 z "},"Ĺ":{"ha":817,"x_min":0,"x_max":0,"o":"m 385 1286 b 151 1090 326 1249 279 1187 l 161 1072 b 440 1196 304 1145 380 1160 b 477 1251 466 1213 477 1232 b 469 1276 477 1259 474 1268 b 427 1299 460 1291 445 1299 b 385 1286 414 1299 399 1295 z m 412 983 b 236 979 370 981 300 979 b 58 983 164 979 97 981 l 58 956 b 171 836 153 951 171 937 l 171 147 b 58 28 171 46 153 32 l 58 0 b 461 4 195 4 378 4 b 779 0 554 4 685 4 b 770 178 772 71 770 143 b 774 292 770 222 771 262 l 742 292 b 514 32 722 98 688 32 l 412 32 b 300 147 318 32 300 46 l 300 836 b 412 956 300 937 318 951 z "},"Ľ":{"ha":817,"x_min":0,"x_max":0,"o":"m 608 991 b 518 981 581 985 555 981 b 461 983 502 981 483 981 l 461 954 b 503 899 496 954 503 935 b 475 669 503 871 497 811 l 494 664 b 615 942 568 798 615 882 b 608 991 615 958 612 982 z m 412 983 b 236 979 370 981 300 979 b 58 983 164 979 97 981 l 58 956 b 171 836 153 951 171 937 l 171 147 b 58 28 171 46 153 32 l 58 0 b 461 4 195 4 378 4 b 779 0 554 4 685 4 b 770 178 772 71 770 143 b 774 292 770 222 771 262 l 742 292 b 514 32 722 98 688 32 l 412 32 b 300 147 318 32 300 46 l 300 836 b 412 956 300 937 318 951 z "},"Ļ":{"ha":817,"x_min":0,"x_max":0,"o":"m 412 983 b 236 979 370 981 300 979 b 58 983 164 979 97 981 l 58 956 b 171 836 153 951 171 937 l 171 147 b 58 28 171 46 153 32 l 58 0 b 461 4 195 4 378 4 b 779 0 554 4 685 4 b 770 178 772 71 770 143 b 774 292 770 222 771 262 l 742 292 b 514 32 722 98 688 32 l 412 32 b 300 147 318 32 300 46 l 300 836 b 412 956 300 937 318 951 z m 453 -96 b 375 -170 410 -96 375 -127 b 448 -244 375 -218 407 -244 b 506 -222 471 -244 492 -235 b 420 -310 506 -267 463 -297 l 429 -335 b 543 -193 518 -302 543 -260 b 453 -96 543 -139 507 -96 z "},"Ŀ":{"ha":860,"x_min":0,"x_max":0,"o":"m 412 983 b 236 979 370 981 300 979 b 58 983 164 979 97 981 l 58 956 b 171 836 153 951 171 937 l 171 147 b 58 28 171 46 153 32 l 58 0 b 461 4 195 4 378 4 b 779 0 554 4 685 4 b 770 178 772 71 770 143 b 774 292 770 222 771 262 l 742 292 b 514 32 722 98 688 32 l 412 32 b 300 147 318 32 300 46 l 300 836 b 412 956 300 937 318 951 z m 733 583 b 644 494 684 583 644 543 b 733 406 644 446 684 406 b 822 494 782 406 822 446 b 733 583 822 543 782 583 z "},"Ł":{"ha":817,"x_min":0,"x_max":0,"o":"m 770 178 b 774 292 770 222 771 262 l 742 292 b 514 32 722 98 688 32 l 412 32 b 300 147 318 32 300 46 l 300 418 l 657 625 l 657 657 l 300 450 l 300 836 b 412 956 300 937 318 951 l 412 983 b 236 979 370 981 300 979 b 58 983 164 979 97 981 l 58 956 b 171 836 153 951 171 937 l 171 389 l 58 323 l 58 292 l 171 357 l 171 147 b 58 28 171 46 153 32 l 58 0 b 461 4 195 4 378 4 b 779 0 554 4 685 4 b 770 178 772 71 770 143 z "},"M":{"ha":1210,"x_min":0,"x_max":0,"o":"m 1152 983 b 975 979 1108 981 1039 979 l 909 979 l 611 178 l 306 983 b 187 979 275 981 228 979 b 58 983 140 979 89 981 l 58 956 b 171 836 153 951 171 937 l 171 161 b 58 28 171 60 153 32 l 58 0 b 187 4 89 3 140 4 b 329 0 235 4 296 3 l 329 28 b 203 161 221 32 203 60 l 203 895 l 553 -7 l 575 -7 l 909 890 l 909 147 b 798 28 909 46 892 32 l 798 0 b 975 4 836 3 903 4 b 1152 0 1039 4 1108 3 l 1152 28 b 1039 147 1057 32 1039 46 l 1039 836 b 1152 956 1039 937 1057 951 z "},"N":{"ha":981,"x_min":0,"x_max":0,"o":"m 930 983 b 802 979 900 981 848 979 b 660 983 754 979 693 981 l 660 956 b 786 822 768 951 786 924 l 786 228 l 296 983 b 187 979 265 981 228 979 b 58 983 140 979 89 981 l 58 956 b 171 836 153 951 171 937 l 171 161 b 58 28 171 60 153 32 l 58 0 b 187 4 89 3 140 4 b 329 0 235 4 296 3 l 329 28 b 203 161 221 32 203 60 l 203 895 l 786 -7 l 818 -7 l 818 822 b 930 956 818 924 836 951 z "},"Ń":{"ha":981,"x_min":0,"x_max":0,"o":"m 668 1286 b 435 1090 610 1249 562 1187 l 444 1072 b 724 1196 587 1145 664 1160 b 760 1251 749 1213 760 1232 b 753 1276 760 1259 758 1268 b 710 1299 743 1291 728 1299 b 668 1286 697 1299 683 1295 z m 930 983 b 802 979 900 981 848 979 b 660 983 754 979 693 981 l 660 956 b 786 822 768 951 786 924 l 786 228 l 296 983 b 187 979 265 981 228 979 b 58 983 140 979 89 981 l 58 956 b 171 836 153 951 171 937 l 171 161 b 58 28 171 60 153 32 l 58 0 b 187 4 89 3 140 4 b 329 0 235 4 296 3 l 329 28 b 203 161 221 32 203 60 l 203 895 l 786 -7 l 818 -7 l 818 822 b 930 956 818 924 836 951 z "},"Ň":{"ha":981,"x_min":0,"x_max":0,"o":"m 781 1286 b 543 1189 692 1263 596 1223 b 250 1286 479 1223 361 1263 l 243 1267 b 503 1083 364 1225 460 1154 l 528 1083 b 788 1267 571 1154 667 1225 z m 930 983 b 802 979 900 981 848 979 b 660 983 754 979 693 981 l 660 956 b 786 822 768 951 786 924 l 786 228 l 296 983 b 187 979 265 981 228 979 b 58 983 140 979 89 981 l 58 956 b 171 836 153 951 171 937 l 171 161 b 58 28 171 60 153 32 l 58 0 b 187 4 89 3 140 4 b 329 0 235 4 296 3 l 329 28 b 203 161 221 32 203 60 l 203 895 l 786 -7 l 818 -7 l 818 822 b 930 956 818 924 836 951 z "},"Ņ":{"ha":981,"x_min":0,"x_max":0,"o":"m 930 983 b 802 979 900 981 848 979 b 660 983 754 979 693 981 l 660 956 b 786 822 768 951 786 924 l 786 228 l 296 983 b 187 979 265 981 228 979 b 58 983 140 979 89 981 l 58 956 b 171 836 153 951 171 937 l 171 161 b 58 28 171 60 153 32 l 58 0 b 187 4 89 3 140 4 b 329 0 235 4 296 3 l 329 28 b 203 161 221 32 203 60 l 203 895 l 786 -7 l 818 -7 l 818 822 b 930 956 818 924 836 951 z m 502 -96 b 424 -170 458 -96 424 -127 b 496 -244 424 -218 456 -244 b 555 -222 519 -244 541 -235 b 469 -310 555 -267 511 -297 l 478 -335 b 592 -193 567 -302 592 -260 b 502 -96 592 -139 556 -96 z "},"Ŋ":{"ha":979,"x_min":0,"x_max":0,"o":"m 802 979 b 673 983 754 979 707 981 l 673 956 b 786 836 768 951 786 937 l 786 256 l 315 983 b 187 979 281 981 233 979 b 58 983 140 979 89 981 l 58 956 b 171 836 153 951 171 937 l 171 147 b 58 28 171 46 153 32 l 58 0 b 187 4 89 3 140 4 b 315 0 235 4 282 3 l 315 28 b 203 147 221 32 203 46 l 203 895 l 783 -3 b 627 -237 772 -149 725 -237 b 595 -235 615 -237 603 -236 b 631 -171 615 -222 631 -196 b 561 -106 631 -135 599 -106 b 496 -175 525 -106 496 -132 b 621 -261 496 -237 555 -261 b 818 126 730 -261 818 -193 l 818 836 b 930 956 818 937 836 951 l 930 983 b 802 979 900 981 848 979 z "},"Ñ":{"ha":981,"x_min":0,"x_max":0,"o":"m 407 1253 b 253 1105 330 1253 261 1197 l 274 1101 b 360 1179 290 1161 321 1179 b 629 1072 456 1179 527 1072 b 783 1219 707 1072 775 1128 l 763 1223 b 677 1146 746 1164 714 1146 b 407 1253 581 1146 510 1253 z m 930 983 b 802 979 900 981 848 979 b 660 983 754 979 693 981 l 660 956 b 786 822 768 951 786 924 l 786 228 l 296 983 b 187 979 265 981 228 979 b 58 983 140 979 89 981 l 58 956 b 171 836 153 951 171 937 l 171 161 b 58 28 171 60 153 32 l 58 0 b 187 4 89 3 140 4 b 329 0 235 4 296 3 l 329 28 b 203 161 221 32 203 60 l 203 895 l 786 -7 l 818 -7 l 818 822 b 930 956 818 924 836 951 z "},"O":{"ha":1029,"x_min":0,"x_max":0,"o":"m 515 1003 b 74 484 257 1003 74 794 b 514 -20 74 165 250 -20 b 956 500 772 -20 956 189 b 515 1003 956 818 779 1003 z m 510 978 b 817 494 681 978 817 790 b 519 5 817 207 700 5 b 212 489 349 5 212 193 b 510 978 212 777 329 978 z "},"Ó":{"ha":1029,"x_min":0,"x_max":0,"o":"m 661 1286 b 428 1090 603 1249 555 1187 l 437 1072 b 717 1196 581 1145 657 1160 b 753 1251 743 1213 753 1232 b 746 1276 753 1259 751 1268 b 703 1299 736 1291 722 1299 b 661 1286 690 1299 676 1295 z m 515 1003 b 74 484 257 1003 74 794 b 514 -20 74 165 250 -20 b 956 500 772 -20 956 189 b 515 1003 956 818 779 1003 z m 510 978 b 817 494 681 978 817 790 b 519 5 817 207 700 5 b 212 489 349 5 212 193 b 510 978 212 777 329 978 z "},"Ŏ":{"ha":1029,"x_min":0,"x_max":0,"o":"m 772 1263 b 513 1173 729 1221 646 1173 b 254 1261 379 1173 297 1219 l 236 1247 b 513 1086 281 1175 371 1086 b 789 1247 654 1086 745 1175 z m 515 1003 b 74 484 257 1003 74 794 b 514 -20 74 165 250 -20 b 956 500 772 -20 956 189 b 515 1003 956 818 779 1003 z m 510 978 b 817 494 681 978 817 790 b 519 5 817 207 700 5 b 212 489 349 5 212 193 b 510 978 212 777 329 978 z "},"Ô":{"ha":1029,"x_min":0,"x_max":0,"o":"m 500 1272 b 241 1089 457 1202 361 1131 l 248 1069 b 485 1166 336 1093 432 1132 b 778 1069 549 1132 667 1093 l 785 1089 b 526 1272 664 1131 568 1202 z m 515 1003 b 74 484 257 1003 74 794 b 514 -20 74 165 250 -20 b 956 500 772 -20 956 189 b 515 1003 956 818 779 1003 z m 510 978 b 817 494 681 978 817 790 b 519 5 817 207 700 5 b 212 489 349 5 212 193 b 510 978 212 777 329 978 z "},"Ö":{"ha":1029,"x_min":0,"x_max":0,"o":"m 366 1234 b 285 1153 321 1234 285 1196 b 366 1072 285 1108 321 1072 b 446 1153 408 1072 446 1108 b 366 1234 446 1196 408 1234 z m 660 1234 b 579 1153 616 1234 579 1196 b 660 1072 579 1108 616 1072 b 741 1153 703 1072 741 1108 b 660 1234 741 1196 703 1234 z m 515 1003 b 74 484 257 1003 74 794 b 514 -20 74 165 250 -20 b 956 500 772 -20 956 189 b 515 1003 956 818 779 1003 z m 510 978 b 817 494 681 978 817 790 b 519 5 817 207 700 5 b 212 489 349 5 212 193 b 510 978 212 777 329 978 z "},"Ò":{"ha":1029,"x_min":0,"x_max":0,"o":"m 372 1286 b 330 1299 357 1295 343 1299 b 288 1276 312 1299 297 1291 b 280 1251 283 1268 280 1259 b 317 1196 280 1232 291 1213 b 596 1072 376 1160 453 1145 l 606 1090 b 372 1286 478 1187 431 1249 z m 515 1003 b 74 484 257 1003 74 794 b 514 -20 74 165 250 -20 b 956 500 772 -20 956 189 b 515 1003 956 818 779 1003 z m 510 978 b 817 494 681 978 817 790 b 519 5 817 207 700 5 b 212 489 349 5 212 193 b 510 978 212 777 329 978 z "},"Ő":{"ha":1029,"x_min":0,"x_max":0,"o":"m 469 1280 b 307 1089 416 1235 374 1156 l 319 1072 b 538 1198 397 1126 484 1154 b 567 1251 558 1216 567 1234 b 554 1283 567 1263 562 1274 b 516 1301 545 1294 532 1301 b 469 1280 502 1301 486 1295 z m 729 1280 b 567 1089 676 1235 633 1156 l 579 1072 b 798 1198 657 1126 743 1154 b 827 1251 818 1216 827 1234 b 814 1283 827 1263 822 1274 b 776 1301 805 1294 791 1301 b 729 1280 762 1301 745 1295 z m 515 1003 b 74 484 257 1003 74 794 b 514 -20 74 165 250 -20 b 956 500 772 -20 956 189 b 515 1003 956 818 779 1003 z m 510 978 b 817 494 681 978 817 790 b 519 5 817 207 700 5 b 212 489 349 5 212 193 b 510 978 212 777 329 978 z "},"Ō":{"ha":1029,"x_min":0,"x_max":0,"o":"m 757 1137 l 757 1173 l 268 1173 l 268 1137 z m 515 1003 b 74 484 257 1003 74 794 b 514 -20 74 165 250 -20 b 956 500 772 -20 956 189 b 515 1003 956 818 779 1003 z m 510 978 b 817 494 681 978 817 790 b 519 5 817 207 700 5 b 212 489 349 5 212 193 b 510 978 212 777 329 978 z "},"Ø":{"ha":1029,"x_min":0,"x_max":0,"o":"m 920 1055 l 893 1074 l 785 917 b 515 1003 713 973 621 1003 b 74 484 257 1003 74 794 b 218 89 74 309 127 175 l 102 -82 l 131 -102 l 244 66 b 514 -20 317 10 408 -20 b 956 500 772 -20 956 189 b 810 895 956 675 902 810 z m 510 978 b 728 846 595 978 673 930 l 282 169 b 212 489 239 250 212 359 b 510 978 212 777 329 978 z m 519 5 b 302 136 434 5 357 52 l 747 814 b 817 494 791 733 817 624 b 519 5 817 207 700 5 z "},"Õ":{"ha":1029,"x_min":0,"x_max":0,"o":"m 400 1253 b 246 1105 323 1253 254 1197 l 267 1101 b 353 1179 283 1161 315 1179 b 623 1072 449 1179 520 1072 b 777 1219 701 1072 768 1128 l 756 1223 b 670 1146 739 1164 707 1146 b 400 1253 574 1146 503 1253 z m 515 1003 b 74 484 257 1003 74 794 b 514 -20 74 165 250 -20 b 956 500 772 -20 956 189 b 515 1003 956 818 779 1003 z m 510 978 b 817 494 681 978 817 790 b 519 5 817 207 700 5 b 212 489 349 5 212 193 b 510 978 212 777 329 978 z "},"Œ":{"ha":1289,"x_min":0,"x_max":0,"o":"m 1213 178 b 1217 278 1213 216 1214 253 l 1185 278 b 957 32 1165 94 1131 32 l 925 32 b 812 147 831 32 812 46 l 812 481 l 872 481 b 1006 325 993 481 994 400 l 1038 325 b 1029 494 1031 416 1029 454 b 1029 556 1029 513 1029 532 b 1034 664 1029 583 1029 616 l 1002 664 b 872 509 990 608 993 509 l 812 509 l 812 836 b 925 951 812 937 831 951 l 971 951 b 1157 733 1118 951 1139 897 l 1189 733 b 1185 819 1186 754 1185 786 b 1194 983 1185 851 1187 918 b 932 979 1117 979 1008 979 b 637 982 869 979 749 979 b 515 1003 600 996 559 1003 b 74 484 257 1003 74 794 b 514 -20 74 165 250 -20 b 628 1 554 -20 591 -12 b 932 4 737 4 868 4 b 1222 0 1017 4 1136 4 b 1213 178 1215 71 1213 143 z m 684 147 b 519 5 684 46 591 5 b 212 489 349 5 212 193 b 510 978 212 777 329 978 b 684 836 604 978 684 937 z "},"P":{"ha":812,"x_min":0,"x_max":0,"o":"m 300 397 l 407 397 b 772 708 694 397 772 574 b 437 982 772 869 661 982 b 228 979 404 982 315 979 b 58 983 167 979 97 981 l 58 956 b 171 836 153 951 171 937 l 171 147 b 58 28 171 46 153 32 l 58 0 b 236 4 97 3 164 4 b 440 0 311 4 392 3 l 440 28 b 300 147 323 32 300 46 z m 403 956 b 633 693 571 956 633 868 b 393 425 633 551 590 425 l 300 425 l 300 836 b 403 956 300 932 318 956 z "},"Þ":{"ha":806,"x_min":0,"x_max":0,"o":"m 300 192 l 397 192 b 762 505 685 192 762 366 b 428 777 762 659 652 777 b 300 774 405 777 356 775 l 300 836 b 412 956 300 937 318 951 l 412 983 b 236 979 370 981 300 979 b 58 983 164 979 97 981 l 58 956 b 171 836 153 951 171 937 l 171 147 b 58 28 171 46 153 32 l 58 0 b 236 4 97 3 164 4 b 412 0 300 4 370 3 l 412 28 b 300 147 318 32 300 46 z m 393 750 b 624 497 561 750 624 663 b 383 220 624 349 581 220 l 300 220 l 300 749 b 393 750 331 749 365 750 z "},"Q":{"ha":1029,"x_min":0,"x_max":0,"o":"m 1039 -32 b 793 -153 997 -115 926 -153 b 353 -86 685 -153 492 -114 b 558 -18 435 -62 475 -28 l 558 -18 b 956 500 793 5 956 207 b 515 1003 956 818 779 1003 b 74 484 257 1003 74 794 b 461 -17 74 187 227 6 b 304 -79 410 -36 369 -62 b 200 -68 269 -72 231 -68 b 125 -97 149 -68 125 -79 b 189 -125 125 -117 151 -125 b 304 -104 225 -125 268 -117 b 338 -114 313 -107 325 -110 b 785 -261 515 -174 637 -261 b 972 -199 879 -261 937 -231 b 1060 -40 1008 -165 1038 -117 z m 212 489 b 510 978 212 777 329 978 b 817 494 681 978 817 790 b 519 5 817 207 700 5 b 212 489 349 5 212 193 z "},"R":{"ha":900,"x_min":0,"x_max":0,"o":"m 896 85 b 820 32 870 52 854 32 b 749 146 781 32 766 65 l 714 288 b 519 471 688 403 643 450 l 503 473 b 772 741 712 506 772 644 b 437 982 772 876 661 982 b 228 979 404 982 315 979 b 58 983 167 979 97 981 l 58 956 b 171 836 153 951 171 937 l 171 147 b 58 28 171 46 153 32 l 58 0 b 236 4 97 3 164 4 b 412 0 300 4 370 3 l 412 28 b 300 147 318 32 300 46 l 300 467 l 432 467 b 589 269 542 467 562 387 l 619 131 b 768 -20 646 12 699 -20 b 917 69 843 -20 878 12 z m 403 956 b 633 725 571 956 633 871 b 393 494 633 597 590 494 l 300 494 l 300 836 b 403 956 300 932 318 956 z "},"Ŕ":{"ha":900,"x_min":0,"x_max":0,"o":"m 615 1196 b 652 1251 641 1213 652 1232 b 644 1276 652 1259 649 1268 b 602 1299 635 1291 620 1299 b 559 1286 589 1299 574 1295 b 326 1090 501 1249 454 1187 l 336 1072 b 615 1196 479 1145 555 1160 z m 896 85 b 820 32 870 52 854 32 b 749 146 781 32 766 65 l 714 288 b 519 471 688 403 643 450 l 503 473 b 772 741 712 506 772 644 b 437 982 772 876 661 982 b 228 979 404 982 315 979 b 58 983 167 979 97 981 l 58 956 b 171 836 153 951 171 937 l 171 147 b 58 28 171 46 153 32 l 58 0 b 236 4 97 3 164 4 b 412 0 300 4 370 3 l 412 28 b 300 147 318 32 300 46 l 300 467 l 432 467 b 589 269 542 467 562 387 l 619 131 b 768 -20 646 12 699 -20 b 917 69 843 -20 878 12 z m 403 956 b 633 725 571 956 633 871 b 393 494 633 597 590 494 l 300 494 l 300 836 b 403 956 300 932 318 956 z "},"Ř":{"ha":900,"x_min":0,"x_max":0,"o":"m 420 1083 b 680 1267 463 1154 558 1225 l 672 1286 b 435 1189 583 1263 488 1223 b 142 1286 371 1223 253 1263 l 135 1267 b 395 1083 256 1225 351 1154 z m 896 85 b 820 32 870 52 854 32 b 749 146 781 32 766 65 l 714 288 b 519 471 688 403 643 450 l 503 473 b 772 741 712 506 772 644 b 437 982 772 876 661 982 b 228 979 404 982 315 979 b 58 983 167 979 97 981 l 58 956 b 171 836 153 951 171 937 l 171 147 b 58 28 171 46 153 32 l 58 0 b 236 4 97 3 164 4 b 412 0 300 4 370 3 l 412 28 b 300 147 318 32 300 46 l 300 467 l 432 467 b 589 269 542 467 562 387 l 619 131 b 768 -20 646 12 699 -20 b 917 69 843 -20 878 12 z m 403 956 b 633 725 571 956 633 871 b 393 494 633 597 590 494 l 300 494 l 300 836 b 403 956 300 932 318 956 z "},"Ŗ":{"ha":900,"x_min":0,"x_max":0,"o":"m 896 85 b 820 32 870 52 854 32 b 749 146 781 32 766 65 l 714 288 b 519 471 688 403 643 450 l 503 473 b 772 741 712 506 772 644 b 437 982 772 876 661 982 b 228 979 404 982 315 979 b 58 983 167 979 97 981 l 58 956 b 171 836 153 951 171 937 l 171 147 b 58 28 171 46 153 32 l 58 0 b 236 4 97 3 164 4 b 412 0 300 4 370 3 l 412 28 b 300 147 318 32 300 46 l 300 467 l 432 467 b 589 269 542 467 562 387 l 619 131 b 768 -20 646 12 699 -20 b 917 69 843 -20 878 12 z m 403 956 b 633 725 571 956 633 871 b 393 494 633 597 590 494 l 300 494 l 300 836 b 403 956 300 932 318 956 z m 460 -96 b 382 -170 416 -96 382 -127 b 454 -244 382 -218 414 -244 b 513 -222 477 -244 498 -235 b 427 -310 513 -267 469 -297 l 436 -335 b 550 -193 525 -302 550 -260 b 460 -96 550 -139 514 -96 z "},"S":{"ha":750,"x_min":0,"x_max":0,"o":"m 355 999 b 94 758 218 999 94 922 b 342 447 94 602 210 526 b 558 193 471 370 558 306 b 378 8 558 62 468 8 b 125 323 200 8 136 155 l 93 323 b 87 -9 93 127 92 47 l 119 -9 b 150 52 125 31 132 52 b 197 32 161 52 175 46 b 387 -20 237 7 289 -20 b 682 244 549 -20 682 68 b 432 557 682 393 576 467 b 199 811 307 635 199 685 b 368 972 199 907 269 972 b 596 705 522 972 586 838 l 628 705 b 635 989 628 880 631 940 l 603 989 b 572 928 597 949 590 928 b 525 947 559 928 547 933 b 355 999 488 972 447 999 z "},"Ś":{"ha":750,"x_min":0,"x_max":0,"o":"m 530 1286 b 297 1090 472 1249 425 1187 l 307 1072 b 586 1196 450 1145 526 1160 b 623 1251 612 1213 623 1232 b 615 1276 623 1259 620 1268 b 572 1299 606 1291 591 1299 b 530 1286 559 1299 545 1295 z m 355 999 b 94 758 218 999 94 922 b 342 447 94 602 210 526 b 558 193 471 370 558 306 b 378 8 558 62 468 8 b 125 323 200 8 136 155 l 93 323 b 87 -9 93 127 92 47 l 119 -9 b 150 52 125 31 132 52 b 197 32 161 52 175 46 b 387 -20 237 7 289 -20 b 682 244 549 -20 682 68 b 432 557 682 393 576 467 b 199 811 307 635 199 685 b 368 972 199 907 269 972 b 596 705 522 972 586 838 l 628 705 b 635 989 628 880 631 940 l 603 989 b 572 928 597 949 590 928 b 525 947 559 928 547 933 b 355 999 488 972 447 999 z "},"Š":{"ha":750,"x_min":0,"x_max":0,"o":"m 643 1286 b 406 1189 554 1263 458 1223 b 113 1286 342 1223 224 1263 l 106 1267 b 366 1083 227 1225 322 1154 l 391 1083 b 650 1267 433 1154 529 1225 z m 355 999 b 94 758 218 999 94 922 b 342 447 94 602 210 526 b 558 193 471 370 558 306 b 378 8 558 62 468 8 b 125 323 200 8 136 155 l 93 323 b 87 -9 93 127 92 47 l 119 -9 b 150 52 125 31 132 52 b 197 32 161 52 175 46 b 387 -20 237 7 289 -20 b 682 244 549 -20 682 68 b 432 557 682 393 576 467 b 199 811 307 635 199 685 b 368 972 199 907 269 972 b 596 705 522 972 586 838 l 628 705 b 635 989 628 880 631 940 l 603 989 b 572 928 597 949 590 928 b 525 947 559 928 547 933 b 355 999 488 972 447 999 z "},"Ş":{"ha":750,"x_min":0,"x_max":0,"o":"m 682 244 b 432 557 682 393 576 467 b 199 811 307 635 199 685 b 368 972 199 907 269 972 b 596 705 522 972 586 838 l 628 705 b 635 989 628 880 631 940 l 603 989 b 572 928 597 949 590 928 b 525 947 559 928 547 933 b 355 999 488 972 447 999 b 94 758 218 999 94 922 b 342 447 94 602 210 526 b 558 193 471 370 558 306 b 378 8 558 62 468 8 b 125 323 200 8 136 155 l 93 323 b 87 -9 93 127 92 47 l 119 -9 b 150 52 125 31 132 52 b 197 32 161 52 175 46 b 366 -19 235 9 281 -16 l 328 -134 b 396 -123 349 -126 381 -123 b 454 -163 433 -123 454 -136 b 330 -225 454 -212 384 -225 b 277 -221 307 -225 286 -222 l 271 -245 b 387 -261 296 -254 335 -261 b 543 -155 453 -261 543 -233 b 458 -90 543 -114 510 -90 b 376 -100 428 -90 400 -94 l 404 -20 b 682 244 558 -14 682 74 z "},"Ŝ":{"ha":750,"x_min":0,"x_max":0,"o":"m 370 1272 b 110 1089 326 1202 231 1131 l 117 1069 b 354 1166 205 1093 301 1132 b 647 1069 418 1132 536 1093 l 654 1089 b 395 1272 533 1131 437 1202 z m 355 999 b 94 758 218 999 94 922 b 342 447 94 602 210 526 b 558 193 471 370 558 306 b 378 8 558 62 468 8 b 125 323 200 8 136 155 l 93 323 b 87 -9 93 127 92 47 l 119 -9 b 150 52 125 31 132 52 b 197 32 161 52 175 46 b 387 -20 237 7 289 -20 b 682 244 549 -20 682 68 b 432 557 682 393 576 467 b 199 811 307 635 199 685 b 368 972 199 907 269 972 b 596 705 522 972 586 838 l 628 705 b 635 989 628 880 631 940 l 603 989 b 572 928 597 949 590 928 b 525 947 559 928 547 933 b 355 999 488 972 447 999 z "},"Ș":{"ha":750,"x_min":0,"x_max":0,"o":"m 355 999 b 94 758 218 999 94 922 b 342 447 94 602 210 526 b 558 193 471 370 558 306 b 378 8 558 62 468 8 b 125 323 200 8 136 155 l 93 323 b 87 -9 93 127 92 47 l 119 -9 b 150 52 125 31 132 52 b 197 32 161 52 175 46 b 387 -20 237 7 289 -20 b 682 244 549 -20 682 68 b 432 557 682 393 576 467 b 199 811 307 635 199 685 b 368 972 199 907 269 972 b 596 705 522 972 586 838 l 628 705 b 635 989 628 880 631 940 l 603 989 b 572 928 597 949 590 928 b 525 947 559 928 547 933 b 355 999 488 972 447 999 z m 389 -96 b 311 -170 346 -96 311 -127 b 384 -244 311 -218 343 -244 b 442 -222 407 -244 428 -235 b 356 -310 442 -267 399 -297 l 366 -335 b 479 -193 454 -302 479 -260 b 389 -96 479 -139 444 -96 z "},"ẞ":{"ha":946,"x_min":0,"x_max":0,"o":"m 511 1003 b 135 532 272 1003 135 859 l 135 147 b 22 28 135 46 117 32 l 22 0 b 182 4 61 3 134 4 b 340 0 267 4 298 0 l 340 28 b 264 147 277 29 264 54 l 264 616 b 526 978 264 901 390 978 b 685 937 582 978 648 965 l 467 582 b 753 273 636 557 753 450 b 541 7 753 138 684 7 b 439 29 514 7 460 11 b 497 100 473 36 497 60 b 421 175 497 147 464 175 b 347 102 378 175 347 144 b 415 5 347 65 367 29 b 547 -20 441 -7 482 -20 b 892 269 761 -20 892 113 b 591 572 892 427 761 536 l 802 904 b 511 1003 720 968 628 1003 z "},"T":{"ha":863,"x_min":0,"x_max":0,"o":"m 822 983 b 432 979 707 979 546 979 b 40 983 318 979 155 979 b 50 806 47 913 50 840 b 46 692 50 761 49 721 l 78 692 b 292 951 97 885 118 951 l 367 951 l 367 161 b 227 28 367 49 343 32 l 227 0 b 432 4 271 3 349 4 b 636 0 507 4 587 3 l 636 28 b 496 161 519 32 496 49 l 496 951 l 571 951 b 785 692 745 951 765 885 l 817 692 b 812 806 814 721 812 761 b 822 983 812 840 815 913 z "},"Ŧ":{"ha":871,"x_min":0,"x_max":0,"o":"m 825 983 b 435 979 709 979 549 979 b 43 983 321 979 158 979 b 53 806 50 913 53 840 b 49 692 53 761 52 721 l 81 692 b 294 951 100 885 121 951 l 370 951 l 370 509 l 146 509 l 146 481 l 370 481 l 370 161 b 229 28 370 49 346 32 l 229 0 b 435 4 273 3 351 4 b 639 0 510 4 590 3 l 639 28 b 498 161 522 32 498 49 l 498 481 l 721 481 l 721 509 l 498 509 l 498 951 l 574 951 b 787 692 747 951 768 885 l 819 692 b 815 806 817 721 815 761 b 825 983 815 840 818 913 z "},"Ť":{"ha":863,"x_min":0,"x_max":0,"o":"m 693 1286 b 456 1189 604 1263 509 1223 b 163 1286 392 1223 274 1263 l 156 1267 b 416 1083 277 1225 372 1154 l 441 1083 b 701 1267 484 1154 579 1225 z m 822 983 b 432 979 707 979 546 979 b 40 983 318 979 155 979 b 50 806 47 913 50 840 b 46 692 50 761 49 721 l 78 692 b 292 951 97 885 118 951 l 367 951 l 367 161 b 227 28 367 49 343 32 l 227 0 b 432 4 271 3 349 4 b 636 0 507 4 587 3 l 636 28 b 496 161 519 32 496 49 l 496 951 l 571 951 b 785 692 745 951 765 885 l 817 692 b 812 806 814 721 812 761 b 822 983 812 840 815 913 z "},"Ţ":{"ha":863,"x_min":0,"x_max":0,"o":"m 822 983 b 432 979 707 979 546 979 b 40 983 318 979 155 979 b 50 806 47 913 50 840 b 46 692 50 761 49 721 l 78 692 b 292 951 97 885 118 951 l 367 951 l 367 161 b 227 28 367 49 343 32 l 227 0 b 409 4 267 3 334 4 l 363 -134 b 431 -123 384 -126 416 -123 b 489 -163 468 -123 489 -136 b 364 -225 489 -212 418 -225 b 311 -221 342 -225 321 -222 l 306 -245 b 421 -261 331 -254 370 -261 b 578 -155 488 -261 578 -233 b 493 -90 578 -114 545 -90 b 411 -100 463 -90 435 -94 l 447 4 b 636 0 517 4 591 3 l 636 28 b 496 161 519 32 496 49 l 496 951 l 571 951 b 785 692 745 951 765 885 l 817 692 b 812 806 814 721 812 761 b 822 983 812 840 815 913 z "},"Ț":{"ha":863,"x_min":0,"x_max":0,"o":"m 822 983 b 432 979 707 979 546 979 b 40 983 318 979 155 979 b 50 806 47 913 50 840 b 46 692 50 761 49 721 l 78 692 b 292 951 97 885 118 951 l 367 951 l 367 161 b 227 28 367 49 343 32 l 227 0 b 432 4 271 3 349 4 b 636 0 507 4 587 3 l 636 28 b 496 161 519 32 496 49 l 496 951 l 571 951 b 785 692 745 951 765 885 l 817 692 b 812 806 814 721 812 761 b 822 983 812 840 815 913 z m 424 -96 b 346 -170 380 -96 346 -127 b 418 -244 346 -218 378 -244 b 477 -222 441 -244 463 -235 b 391 -310 477 -267 433 -297 l 400 -335 b 514 -193 489 -302 514 -260 b 424 -96 514 -139 478 -96 z "},"U":{"ha":947,"x_min":0,"x_max":0,"o":"m 909 983 b 781 979 879 981 828 979 b 639 983 733 979 672 981 l 639 956 b 765 822 733 951 765 924 l 765 389 b 498 29 765 182 708 29 b 279 376 301 29 279 186 l 279 836 b 392 956 279 937 297 951 l 392 983 b 215 979 349 981 279 979 b 37 983 143 979 77 981 l 37 956 b 150 836 132 951 150 937 l 150 400 b 253 56 150 211 171 132 b 486 -20 314 -1 397 -20 b 741 110 600 -20 694 32 b 798 404 782 180 798 275 l 798 822 b 909 956 798 924 815 951 z "},"Ú":{"ha":947,"x_min":0,"x_max":0,"o":"m 637 1286 b 404 1090 579 1249 532 1187 l 414 1072 b 693 1196 557 1145 633 1160 b 730 1251 719 1213 730 1232 b 722 1276 730 1259 727 1268 b 680 1299 713 1291 698 1299 b 637 1286 667 1299 652 1295 z m 909 983 b 781 979 879 981 828 979 b 639 983 733 979 672 981 l 639 956 b 765 822 733 951 765 924 l 765 389 b 498 29 765 182 708 29 b 279 376 301 29 279 186 l 279 836 b 392 956 279 937 297 951 l 392 983 b 215 979 349 981 279 979 b 37 983 143 979 77 981 l 37 956 b 150 836 132 951 150 937 l 150 400 b 253 56 150 211 171 132 b 486 -20 314 -1 397 -20 b 741 110 600 -20 694 32 b 798 404 782 180 798 275 l 798 822 b 909 956 798 924 815 951 z "},"Ŭ":{"ha":947,"x_min":0,"x_max":0,"o":"m 749 1263 b 489 1173 705 1221 622 1173 b 231 1261 355 1173 273 1219 l 212 1247 b 489 1086 257 1175 347 1086 b 765 1247 631 1086 721 1175 z m 909 983 b 781 979 879 981 828 979 b 639 983 733 979 672 981 l 639 956 b 765 822 733 951 765 924 l 765 389 b 498 29 765 182 708 29 b 279 376 301 29 279 186 l 279 836 b 392 956 279 937 297 951 l 392 983 b 215 979 349 981 279 979 b 37 983 143 979 77 981 l 37 956 b 150 836 132 951 150 937 l 150 400 b 253 56 150 211 171 132 b 486 -20 314 -1 397 -20 b 741 110 600 -20 694 32 b 798 404 782 180 798 275 l 798 822 b 909 956 798 924 815 951 z "},"Û":{"ha":947,"x_min":0,"x_max":0,"o":"m 477 1272 b 217 1089 433 1202 338 1131 l 224 1069 b 461 1166 313 1093 408 1132 b 754 1069 525 1132 643 1093 l 762 1089 b 502 1272 640 1131 545 1202 z m 909 983 b 781 979 879 981 828 979 b 639 983 733 979 672 981 l 639 956 b 765 822 733 951 765 924 l 765 389 b 498 29 765 182 708 29 b 279 376 301 29 279 186 l 279 836 b 392 956 279 937 297 951 l 392 983 b 215 979 349 981 279 979 b 37 983 143 979 77 981 l 37 956 b 150 836 132 951 150 937 l 150 400 b 253 56 150 211 171 132 b 486 -20 314 -1 397 -20 b 741 110 600 -20 694 32 b 798 404 782 180 798 275 l 798 822 b 909 956 798 924 815 951 z "},"Ü":{"ha":947,"x_min":0,"x_max":0,"o":"m 342 1234 b 261 1153 297 1234 261 1196 b 342 1072 261 1108 297 1072 b 422 1153 385 1072 422 1108 b 342 1234 422 1196 385 1234 z m 636 1234 b 555 1153 592 1234 555 1196 b 636 1072 555 1108 592 1072 b 717 1153 680 1072 717 1108 b 636 1234 717 1196 680 1234 z m 909 983 b 781 979 879 981 828 979 b 639 983 733 979 672 981 l 639 956 b 765 822 733 951 765 924 l 765 389 b 498 29 765 182 708 29 b 279 376 301 29 279 186 l 279 836 b 392 956 279 937 297 951 l 392 983 b 215 979 349 981 279 979 b 37 983 143 979 77 981 l 37 956 b 150 836 132 951 150 937 l 150 400 b 253 56 150 211 171 132 b 486 -20 314 -1 397 -20 b 741 110 600 -20 694 32 b 798 404 782 180 798 275 l 798 822 b 909 956 798 924 815 951 z "},"Ù":{"ha":947,"x_min":0,"x_max":0,"o":"m 349 1286 b 307 1299 334 1295 319 1299 b 264 1276 288 1299 273 1291 b 256 1251 259 1268 256 1259 b 293 1196 256 1232 267 1213 b 572 1072 353 1160 429 1145 l 582 1090 b 349 1286 454 1187 407 1249 z m 909 983 b 781 979 879 981 828 979 b 639 983 733 979 672 981 l 639 956 b 765 822 733 951 765 924 l 765 389 b 498 29 765 182 708 29 b 279 376 301 29 279 186 l 279 836 b 392 956 279 937 297 951 l 392 983 b 215 979 349 981 279 979 b 37 983 143 979 77 981 l 37 956 b 150 836 132 951 150 937 l 150 400 b 253 56 150 211 171 132 b 486 -20 314 -1 397 -20 b 741 110 600 -20 694 32 b 798 404 782 180 798 275 l 798 822 b 909 956 798 924 815 951 z "},"Ű":{"ha":947,"x_min":0,"x_max":0,"o":"m 446 1280 b 283 1089 393 1235 350 1156 l 296 1072 b 514 1198 374 1126 460 1154 b 543 1251 534 1216 543 1234 b 530 1283 543 1263 538 1274 b 492 1301 522 1294 508 1301 b 446 1280 478 1301 462 1295 z m 705 1280 b 543 1089 652 1235 610 1156 l 555 1072 b 774 1198 633 1126 720 1154 b 803 1251 794 1216 803 1234 b 790 1283 803 1263 798 1274 b 752 1301 781 1294 768 1301 b 705 1280 738 1301 722 1295 z m 909 983 b 781 979 879 981 828 979 b 639 983 733 979 672 981 l 639 956 b 765 822 733 951 765 924 l 765 389 b 498 29 765 182 708 29 b 279 376 301 29 279 186 l 279 836 b 392 956 279 937 297 951 l 392 983 b 215 979 349 981 279 979 b 37 983 143 979 77 981 l 37 956 b 150 836 132 951 150 937 l 150 400 b 253 56 150 211 171 132 b 486 -20 314 -1 397 -20 b 741 110 600 -20 694 32 b 798 404 782 180 798 275 l 798 822 b 909 956 798 924 815 951 z "},"Ū":{"ha":947,"x_min":0,"x_max":0,"o":"m 733 1137 l 733 1173 l 244 1173 l 244 1137 z m 909 983 b 781 979 879 981 828 979 b 639 983 733 979 672 981 l 639 956 b 765 822 733 951 765 924 l 765 389 b 498 29 765 182 708 29 b 279 376 301 29 279 186 l 279 836 b 392 956 279 937 297 951 l 392 983 b 215 979 349 981 279 979 b 37 983 143 979 77 981 l 37 956 b 150 836 132 951 150 937 l 150 400 b 253 56 150 211 171 132 b 486 -20 314 -1 397 -20 b 741 110 600 -20 694 32 b 798 404 782 180 798 275 l 798 822 b 909 956 798 924 815 951 z "},"Ų":{"ha":947,"x_min":0,"x_max":0,"o":"m 781 979 b 639 983 733 979 672 981 l 639 956 b 765 822 733 951 765 924 l 765 389 b 498 29 765 182 708 29 b 279 376 301 29 279 186 l 279 836 b 392 956 279 937 297 951 l 392 983 b 215 979 349 981 279 979 b 37 983 143 979 77 981 l 37 956 b 150 836 132 951 150 937 l 150 400 b 253 56 150 211 171 132 b 486 -20 314 -1 397 -20 l 498 -20 b 366 -171 413 -58 366 -111 b 476 -261 366 -225 410 -261 b 633 -167 537 -261 590 -232 l 612 -149 b 528 -195 594 -174 562 -195 b 468 -134 490 -195 468 -170 b 569 -10 468 -93 492 -42 b 741 110 645 8 706 52 b 798 404 782 180 798 275 l 798 822 b 909 956 798 924 815 951 l 909 983 b 781 979 879 981 828 979 z "},"Ů":{"ha":947,"x_min":0,"x_max":0,"o":"m 489 1368 b 356 1242 418 1368 356 1319 b 489 1114 356 1162 418 1114 b 624 1242 562 1114 624 1162 b 489 1368 624 1319 562 1368 z m 489 1339 b 585 1240 535 1339 585 1304 b 489 1143 585 1175 535 1143 b 395 1240 445 1143 395 1175 b 489 1339 395 1304 445 1339 z m 909 983 b 781 979 879 981 828 979 b 639 983 733 979 672 981 l 639 956 b 765 822 733 951 765 924 l 765 389 b 498 29 765 182 708 29 b 279 376 301 29 279 186 l 279 836 b 392 956 279 937 297 951 l 392 983 b 215 979 349 981 279 979 b 37 983 143 979 77 981 l 37 956 b 150 836 132 951 150 937 l 150 400 b 253 56 150 211 171 132 b 486 -20 314 -1 397 -20 b 741 110 600 -20 694 32 b 798 404 782 180 798 275 l 798 822 b 909 956 798 924 815 951 z "},"Ũ":{"ha":947,"x_min":0,"x_max":0,"o":"m 376 1253 b 222 1105 299 1253 231 1197 l 243 1101 b 330 1179 260 1161 291 1179 b 599 1072 425 1179 496 1072 b 753 1219 677 1072 745 1128 l 732 1223 b 646 1146 715 1164 684 1146 b 376 1253 550 1146 479 1253 z m 909 983 b 781 979 879 981 828 979 b 639 983 733 979 672 981 l 639 956 b 765 822 733 951 765 924 l 765 389 b 498 29 765 182 708 29 b 279 376 301 29 279 186 l 279 836 b 392 956 279 937 297 951 l 392 983 b 215 979 349 981 279 979 b 37 983 143 979 77 981 l 37 956 b 150 836 132 951 150 937 l 150 400 b 253 56 150 211 171 132 b 486 -20 314 -1 397 -20 b 741 110 600 -20 694 32 b 798 404 782 180 798 275 l 798 822 b 909 956 798 924 815 951 z "},"V":{"ha":875,"x_min":0,"x_max":0,"o":"m 781 979 b 621 983 732 979 673 981 l 621 956 b 742 871 700 954 742 932 b 714 758 742 843 732 806 l 488 172 l 236 839 b 220 904 225 867 220 888 b 318 956 220 943 252 953 l 318 983 b 140 979 279 981 212 979 b -8 983 87 979 29 981 l -8 956 b 87 867 21 954 60 937 l 427 -7 b 437 -7 431 -7 433 -7 l 449 -7 l 775 835 b 885 956 807 918 848 947 l 885 983 b 781 979 857 981 828 979 z "},"W":{"ha":1257,"x_min":0,"x_max":0,"o":"m 1156 979 b 996 983 1107 979 1048 981 l 996 956 b 1114 870 1076 954 1114 933 b 1092 758 1114 842 1107 805 l 920 221 l 721 839 b 707 906 711 868 707 890 b 802 956 707 949 740 953 l 802 983 b 624 979 762 981 696 979 b 489 983 576 979 522 981 l 489 956 b 571 867 514 954 547 939 l 608 758 l 439 220 l 236 839 b 221 907 227 868 221 890 b 289 956 221 939 241 952 l 289 983 b 139 979 256 981 200 979 b -9 983 86 979 28 981 l -9 956 b 86 867 20 954 61 939 l 380 -7 b 392 -7 385 -7 387 -7 l 403 -7 l 624 709 l 865 -7 b 876 -7 869 -7 872 -7 l 888 -7 l 1150 835 b 1260 956 1177 920 1223 947 l 1260 983 b 1156 979 1232 981 1203 979 z "},"Ẃ":{"ha":1257,"x_min":0,"x_max":0,"o":"m 848 1196 b 885 1251 874 1213 885 1232 b 878 1276 885 1259 882 1268 b 835 1299 868 1291 853 1299 b 793 1286 822 1299 808 1295 b 559 1090 734 1249 687 1187 l 569 1072 b 848 1196 712 1145 789 1160 z m 1156 979 b 996 983 1107 979 1048 981 l 996 956 b 1114 870 1076 954 1114 933 b 1092 758 1114 842 1107 805 l 920 221 l 721 839 b 707 906 711 868 707 890 b 802 956 707 949 740 953 l 802 983 b 624 979 762 981 696 979 b 489 983 576 979 522 981 l 489 956 b 571 867 514 954 547 939 l 608 758 l 439 220 l 236 839 b 221 907 227 868 221 890 b 289 956 221 939 241 952 l 289 983 b 139 979 256 981 200 979 b -9 983 86 979 28 981 l -9 956 b 86 867 20 954 61 939 l 380 -7 b 392 -7 385 -7 387 -7 l 403 -7 l 624 709 l 865 -7 b 876 -7 869 -7 872 -7 l 888 -7 l 1150 835 b 1260 956 1177 920 1223 947 l 1260 983 b 1156 979 1232 981 1203 979 z "},"Ŵ":{"ha":1257,"x_min":0,"x_max":0,"o":"m 616 1166 b 909 1069 680 1132 798 1093 l 917 1089 b 657 1272 795 1131 700 1202 l 632 1272 b 372 1089 589 1202 493 1131 l 379 1069 b 616 1166 468 1093 564 1132 z m 1156 979 b 996 983 1107 979 1048 981 l 996 956 b 1114 870 1076 954 1114 933 b 1092 758 1114 842 1107 805 l 920 221 l 721 839 b 707 906 711 868 707 890 b 802 956 707 949 740 953 l 802 983 b 624 979 762 981 696 979 b 489 983 576 979 522 981 l 489 956 b 571 867 514 954 547 939 l 608 758 l 439 220 l 236 839 b 221 907 227 868 221 890 b 289 956 221 939 241 952 l 289 983 b 139 979 256 981 200 979 b -9 983 86 979 28 981 l -9 956 b 86 867 20 954 61 939 l 380 -7 b 392 -7 385 -7 387 -7 l 403 -7 l 624 709 l 865 -7 b 876 -7 869 -7 872 -7 l 888 -7 l 1150 835 b 1260 956 1177 920 1223 947 l 1260 983 b 1156 979 1232 981 1203 979 z "},"Ẅ":{"ha":1257,"x_min":0,"x_max":0,"o":"m 497 1072 b 578 1153 540 1072 578 1108 b 497 1234 578 1196 540 1234 b 416 1153 452 1234 416 1196 b 497 1072 416 1108 452 1072 z m 791 1072 b 872 1153 835 1072 872 1108 b 791 1234 872 1196 835 1234 b 711 1153 747 1234 711 1196 b 791 1072 711 1108 747 1072 z m 1156 979 b 996 983 1107 979 1048 981 l 996 956 b 1114 870 1076 954 1114 933 b 1092 758 1114 842 1107 805 l 920 221 l 721 839 b 707 906 711 868 707 890 b 802 956 707 949 740 953 l 802 983 b 624 979 762 981 696 979 b 489 983 576 979 522 981 l 489 956 b 571 867 514 954 547 939 l 608 758 l 439 220 l 236 839 b 221 907 227 868 221 890 b 289 956 221 939 241 952 l 289 983 b 139 979 256 981 200 979 b -9 983 86 979 28 981 l -9 956 b 86 867 20 954 61 939 l 380 -7 b 392 -7 385 -7 387 -7 l 403 -7 l 624 709 l 865 -7 b 876 -7 869 -7 872 -7 l 888 -7 l 1150 835 b 1260 956 1177 920 1223 947 l 1260 983 b 1156 979 1232 981 1203 979 z "},"Ẁ":{"ha":1257,"x_min":0,"x_max":0,"o":"m 448 1196 b 728 1072 508 1160 585 1145 l 737 1090 b 504 1286 610 1187 562 1249 b 462 1299 489 1295 475 1299 b 419 1276 444 1299 429 1291 b 412 1251 414 1268 412 1259 b 448 1196 412 1232 422 1213 z m 1156 979 b 996 983 1107 979 1048 981 l 996 956 b 1114 870 1076 954 1114 933 b 1092 758 1114 842 1107 805 l 920 221 l 721 839 b 707 906 711 868 707 890 b 802 956 707 949 740 953 l 802 983 b 624 979 762 981 696 979 b 489 983 576 979 522 981 l 489 956 b 571 867 514 954 547 939 l 608 758 l 439 220 l 236 839 b 221 907 227 868 221 890 b 289 956 221 939 241 952 l 289 983 b 139 979 256 981 200 979 b -9 983 86 979 28 981 l -9 956 b 86 867 20 954 61 939 l 380 -7 b 392 -7 385 -7 387 -7 l 403 -7 l 624 709 l 865 -7 b 876 -7 869 -7 872 -7 l 888 -7 l 1150 835 b 1260 956 1177 920 1223 947 l 1260 983 b 1156 979 1232 981 1203 979 z "},"X":{"ha":880,"x_min":0,"x_max":0,"o":"m 490 538 l 685 828 b 842 956 736 904 785 947 l 842 983 b 724 979 814 981 771 979 b 564 983 675 979 616 981 l 564 956 b 671 900 633 954 671 941 b 611 766 671 871 652 828 l 475 562 l 258 893 b 246 924 251 905 246 916 b 339 954 246 944 273 954 l 339 983 b 143 978 288 981 218 978 b 24 983 96 978 47 982 l 24 954 b 117 885 65 951 82 939 l 389 468 l 179 155 b 22 28 127 79 79 36 l 22 0 b 140 4 50 3 93 4 b 328 0 189 4 275 3 l 328 28 b 204 94 254 30 204 45 b 257 216 204 122 220 162 l 407 440 l 644 77 b 654 52 651 66 654 58 b 555 29 654 33 624 29 l 555 0 b 751 5 593 1 676 5 b 871 0 799 5 847 1 l 871 29 b 778 98 829 32 812 45 z "},"Y":{"ha":821,"x_min":0,"x_max":0,"o":"m 713 979 b 553 983 664 979 606 981 l 553 956 b 675 882 630 954 675 937 b 637 762 675 853 663 814 l 460 410 l 229 852 b 215 901 219 872 215 888 b 313 954 215 942 260 954 l 313 983 b 118 979 253 979 179 979 b -4 983 71 979 32 981 l -4 954 b 77 876 16 954 39 945 l 358 357 l 358 147 b 245 28 358 46 340 32 l 245 0 b 424 4 285 3 351 4 b 600 0 488 4 557 3 l 600 28 b 488 147 505 32 488 46 l 488 400 l 705 832 b 817 956 747 914 781 947 l 817 983 b 713 979 789 981 760 979 z "},"Ý":{"ha":821,"x_min":0,"x_max":0,"o":"m 627 1196 b 663 1251 652 1213 663 1232 b 656 1276 663 1259 661 1268 b 613 1299 646 1291 631 1299 b 571 1286 600 1299 586 1295 b 338 1090 513 1249 465 1187 l 347 1072 b 627 1196 490 1145 567 1160 z m 713 979 b 553 983 664 979 606 981 l 553 956 b 675 882 630 954 675 937 b 637 762 675 853 663 814 l 460 410 l 229 852 b 215 901 219 872 215 888 b 313 954 215 942 260 954 l 313 983 b 118 979 253 979 179 979 b -4 983 71 979 32 981 l -4 954 b 77 876 16 954 39 945 l 358 357 l 358 147 b 245 28 358 46 340 32 l 245 0 b 424 4 285 3 351 4 b 600 0 488 4 557 3 l 600 28 b 488 147 505 32 488 46 l 488 400 l 705 832 b 817 956 747 914 781 947 l 817 983 b 713 979 789 981 760 979 z "},"Ŷ":{"ha":821,"x_min":0,"x_max":0,"o":"m 395 1166 b 688 1069 458 1132 576 1093 l 695 1089 b 435 1272 574 1131 478 1202 l 410 1272 b 151 1089 367 1202 271 1131 l 157 1069 b 395 1166 246 1093 342 1132 z m 713 979 b 553 983 664 979 606 981 l 553 956 b 675 882 630 954 675 937 b 637 762 675 853 663 814 l 460 410 l 229 852 b 215 901 219 872 215 888 b 313 954 215 942 260 954 l 313 983 b 118 979 253 979 179 979 b -4 983 71 979 32 981 l -4 954 b 77 876 16 954 39 945 l 358 357 l 358 147 b 245 28 358 46 340 32 l 245 0 b 424 4 285 3 351 4 b 600 0 488 4 557 3 l 600 28 b 488 147 505 32 488 46 l 488 400 l 705 832 b 817 956 747 914 781 947 l 817 983 b 713 979 789 981 760 979 z "},"Ÿ":{"ha":821,"x_min":0,"x_max":0,"o":"m 275 1072 b 356 1153 318 1072 356 1108 b 275 1234 356 1196 318 1234 b 195 1153 231 1234 195 1196 b 275 1072 195 1108 231 1072 z m 570 1072 b 650 1153 613 1072 650 1108 b 570 1234 650 1196 613 1234 b 489 1153 526 1234 489 1196 b 570 1072 489 1108 526 1072 z m 713 979 b 553 983 664 979 606 981 l 553 956 b 675 882 630 954 675 937 b 637 762 675 853 663 814 l 460 410 l 229 852 b 215 901 219 872 215 888 b 313 954 215 942 260 954 l 313 983 b 118 979 253 979 179 979 b -4 983 71 979 32 981 l -4 954 b 77 876 16 954 39 945 l 358 357 l 358 147 b 245 28 358 46 340 32 l 245 0 b 424 4 285 3 351 4 b 600 0 488 4 557 3 l 600 28 b 488 147 505 32 488 46 l 488 400 l 705 832 b 817 956 747 914 781 947 l 817 983 b 713 979 789 981 760 979 z "},"Ỳ":{"ha":821,"x_min":0,"x_max":0,"o":"m 227 1196 b 506 1072 286 1160 363 1145 l 515 1090 b 282 1286 388 1187 340 1249 b 240 1299 267 1295 253 1299 b 197 1276 222 1299 207 1291 b 190 1251 193 1268 190 1259 b 227 1196 190 1232 201 1213 z m 713 979 b 553 983 664 979 606 981 l 553 956 b 675 882 630 954 675 937 b 637 762 675 853 663 814 l 460 410 l 229 852 b 215 901 219 872 215 888 b 313 954 215 942 260 954 l 313 983 b 118 979 253 979 179 979 b -4 983 71 979 32 981 l -4 954 b 77 876 16 954 39 945 l 358 357 l 358 147 b 245 28 358 46 340 32 l 245 0 b 424 4 285 3 351 4 b 600 0 488 4 557 3 l 600 28 b 488 147 505 32 488 46 l 488 400 l 705 832 b 817 956 747 914 781 947 l 817 983 b 713 979 789 981 760 979 z "},"Z":{"ha":825,"x_min":0,"x_max":0,"o":"m 764 956 l 764 983 b 427 979 663 979 532 979 b 81 983 325 979 183 979 b 90 806 87 913 90 840 b 86 692 90 761 89 721 l 118 692 b 346 951 138 885 172 951 l 637 951 l 58 28 l 58 0 b 401 4 164 4 292 4 b 747 0 503 4 644 4 b 737 178 741 71 737 143 b 742 292 737 222 739 262 l 710 292 b 482 32 690 98 656 32 l 189 32 z "},"Ź":{"ha":825,"x_min":0,"x_max":0,"o":"m 558 1286 b 325 1090 500 1249 452 1187 l 334 1072 b 614 1196 477 1145 554 1160 b 650 1251 640 1213 650 1232 b 643 1276 650 1259 648 1268 b 600 1299 633 1291 618 1299 b 558 1286 587 1299 573 1295 z m 764 956 l 764 983 b 427 979 663 979 532 979 b 81 983 325 979 183 979 b 90 806 87 913 90 840 b 86 692 90 761 89 721 l 118 692 b 346 951 138 885 172 951 l 637 951 l 58 28 l 58 0 b 401 4 164 4 292 4 b 747 0 503 4 644 4 b 737 178 741 71 737 143 b 742 292 737 222 739 262 l 710 292 b 482 32 690 98 656 32 l 189 32 z "},"Ž":{"ha":825,"x_min":0,"x_max":0,"o":"m 671 1286 b 433 1189 582 1263 486 1223 b 140 1286 370 1223 252 1263 l 134 1267 b 393 1083 254 1225 350 1154 l 418 1083 b 678 1267 461 1154 557 1225 z m 764 956 l 764 983 b 427 979 663 979 532 979 b 81 983 325 979 183 979 b 90 806 87 913 90 840 b 86 692 90 761 89 721 l 118 692 b 346 951 138 885 172 951 l 637 951 l 58 28 l 58 0 b 401 4 164 4 292 4 b 747 0 503 4 644 4 b 737 178 741 71 737 143 b 742 292 737 222 739 262 l 710 292 b 482 32 690 98 656 32 l 189 32 z "},"Ż":{"ha":825,"x_min":0,"x_max":0,"o":"m 410 1332 b 321 1243 361 1332 321 1291 b 410 1154 321 1194 361 1154 b 498 1243 458 1154 498 1194 b 410 1332 498 1291 458 1332 z m 764 956 l 764 983 b 427 979 663 979 532 979 b 81 983 325 979 183 979 b 90 806 87 913 90 840 b 86 692 90 761 89 721 l 118 692 b 346 951 138 885 172 951 l 637 951 l 58 28 l 58 0 b 401 4 164 4 292 4 b 747 0 503 4 644 4 b 737 178 741 71 737 143 b 742 292 737 222 739 262 l 710 292 b 482 32 690 98 656 32 l 189 32 z "},"a":{"ha":692,"x_min":0,"x_max":0,"o":"m 346 734 b 151 682 257 734 191 708 b 86 583 113 656 86 624 b 161 497 86 533 114 497 b 243 572 211 497 243 525 b 178 657 243 618 212 648 b 315 707 210 697 268 707 b 444 567 387 707 444 684 l 444 481 b 278 363 444 425 371 401 b 54 146 139 304 54 256 b 231 -9 54 37 138 -9 b 444 114 297 -9 385 16 b 564 -9 444 49 467 -9 b 690 41 623 -9 652 12 l 675 65 b 612 36 656 49 637 36 b 570 102 581 36 570 57 l 570 488 b 514 682 570 586 558 637 b 346 734 482 714 424 734 z m 444 151 b 288 46 397 75 343 46 b 176 168 224 46 176 85 b 311 345 176 275 250 315 b 444 424 399 387 429 401 z "},"á":{"ha":692,"x_min":0,"x_max":0,"o":"m 490 1129 b 460 1139 481 1136 471 1139 b 407 1108 443 1139 424 1131 b 256 844 366 1054 342 979 l 271 832 b 490 1043 380 949 448 989 b 509 1090 503 1060 509 1076 b 490 1129 509 1106 502 1120 z m 346 734 b 151 682 257 734 191 708 b 86 583 113 656 86 624 b 161 497 86 533 114 497 b 243 572 211 497 243 525 b 178 657 243 618 212 648 b 315 707 210 697 268 707 b 444 567 387 707 444 684 l 444 481 b 278 363 444 425 371 401 b 54 146 139 304 54 256 b 231 -9 54 37 138 -9 b 444 114 297 -9 385 16 b 564 -9 444 49 467 -9 b 690 41 623 -9 652 12 l 675 65 b 612 36 656 49 637 36 b 570 102 581 36 570 57 l 570 488 b 514 682 570 586 558 637 b 346 734 482 714 424 734 z m 444 151 b 288 46 397 75 343 46 b 176 168 224 46 176 85 b 311 345 176 275 250 315 b 444 424 399 387 429 401 z "},"ă":{"ha":692,"x_min":0,"x_max":0,"o":"m 566 1095 b 340 961 528 1032 460 961 b 115 1095 221 961 153 1032 l 92 1082 b 340 879 131 989 213 879 b 589 1082 469 879 551 989 z m 346 734 b 151 682 257 734 191 708 b 86 583 113 656 86 624 b 161 497 86 533 114 497 b 243 572 211 497 243 525 b 178 657 243 618 212 648 b 315 707 210 697 268 707 b 444 567 387 707 444 684 l 444 481 b 278 363 444 425 371 401 b 54 146 139 304 54 256 b 231 -9 54 37 138 -9 b 444 114 297 -9 385 16 b 564 -9 444 49 467 -9 b 690 41 623 -9 652 12 l 675 65 b 612 36 656 49 637 36 b 570 102 581 36 570 57 l 570 488 b 514 682 570 586 558 637 b 346 734 482 714 424 734 z m 444 151 b 288 46 397 75 343 46 b 176 168 224 46 176 85 b 311 345 176 275 250 315 b 444 424 399 387 429 401 z "},"â":{"ha":692,"x_min":0,"x_max":0,"o":"m 329 1114 b 97 875 292 1021 204 928 l 109 856 b 314 994 186 890 267 945 b 575 856 372 945 475 890 l 586 875 b 354 1114 479 928 391 1021 z m 346 734 b 151 682 257 734 191 708 b 86 583 113 656 86 624 b 161 497 86 533 114 497 b 243 572 211 497 243 525 b 178 657 243 618 212 648 b 315 707 210 697 268 707 b 444 567 387 707 444 684 l 444 481 b 278 363 444 425 371 401 b 54 146 139 304 54 256 b 231 -9 54 37 138 -9 b 444 114 297 -9 385 16 b 564 -9 444 49 467 -9 b 690 41 623 -9 652 12 l 675 65 b 612 36 656 49 637 36 b 570 102 581 36 570 57 l 570 488 b 514 682 570 586 558 637 b 346 734 482 714 424 734 z m 444 151 b 288 46 397 75 343 46 b 176 168 224 46 176 85 b 311 345 176 275 250 315 b 444 424 399 387 429 401 z "},"ä":{"ha":692,"x_min":0,"x_max":0,"o":"m 196 1032 b 115 951 152 1032 115 994 b 196 871 115 907 152 871 b 277 951 239 871 277 907 b 196 1032 277 994 239 1032 z m 490 1032 b 410 951 446 1032 410 994 b 490 871 410 907 446 871 b 571 951 534 871 571 907 b 490 1032 571 994 534 1032 z m 346 734 b 151 682 257 734 191 708 b 86 583 113 656 86 624 b 161 497 86 533 114 497 b 243 572 211 497 243 525 b 178 657 243 618 212 648 b 315 707 210 697 268 707 b 444 567 387 707 444 684 l 444 481 b 278 363 444 425 371 401 b 54 146 139 304 54 256 b 231 -9 54 37 138 -9 b 444 114 297 -9 385 16 b 564 -9 444 49 467 -9 b 690 41 623 -9 652 12 l 675 65 b 612 36 656 49 637 36 b 570 102 581 36 570 57 l 570 488 b 514 682 570 586 558 637 b 346 734 482 714 424 734 z m 444 151 b 288 46 397 75 343 46 b 176 168 224 46 176 85 b 311 345 176 275 250 315 b 444 424 399 387 429 401 z "},"à":{"ha":692,"x_min":0,"x_max":0,"o":"m 171 1129 b 152 1090 159 1120 152 1106 b 171 1043 152 1076 158 1060 b 390 832 214 989 280 949 l 406 844 b 254 1108 319 979 296 1054 b 201 1139 237 1131 218 1139 b 171 1129 190 1139 180 1136 z m 346 734 b 151 682 257 734 191 708 b 86 583 113 656 86 624 b 161 497 86 533 114 497 b 243 572 211 497 243 525 b 178 657 243 618 212 648 b 315 707 210 697 268 707 b 444 567 387 707 444 684 l 444 481 b 278 363 444 425 371 401 b 54 146 139 304 54 256 b 231 -9 54 37 138 -9 b 444 114 297 -9 385 16 b 564 -9 444 49 467 -9 b 690 41 623 -9 652 12 l 675 65 b 612 36 656 49 637 36 b 570 102 581 36 570 57 l 570 488 b 514 682 570 586 558 637 b 346 734 482 714 424 734 z m 444 151 b 288 46 397 75 343 46 b 176 168 224 46 176 85 b 311 345 176 275 250 315 b 444 424 399 387 429 401 z "},"ā":{"ha":692,"x_min":0,"x_max":0,"o":"m 554 954 l 554 989 l 121 989 l 121 954 z m 346 734 b 151 682 257 734 191 708 b 86 583 113 656 86 624 b 161 497 86 533 114 497 b 243 572 211 497 243 525 b 178 657 243 618 212 648 b 315 707 210 697 268 707 b 444 567 387 707 444 684 l 444 481 b 278 363 444 425 371 401 b 54 146 139 304 54 256 b 231 -9 54 37 138 -9 b 444 114 297 -9 385 16 b 564 -9 444 49 467 -9 b 690 41 623 -9 652 12 l 675 65 b 612 36 656 49 637 36 b 570 102 581 36 570 57 l 570 488 b 514 682 570 586 558 637 b 346 734 482 714 424 734 z m 444 151 b 288 46 397 75 343 46 b 176 168 224 46 176 85 b 311 345 176 275 250 315 b 444 424 399 387 429 401 z "},"ą":{"ha":692,"x_min":0,"x_max":0,"o":"m 556 -195 b 496 -134 518 -195 496 -170 b 617 -3 496 -89 527 -41 b 629 3 621 -1 625 -1 b 690 41 651 12 669 25 l 675 65 b 612 36 656 49 637 36 b 570 102 581 36 570 57 l 570 488 b 514 682 570 586 558 637 b 346 734 482 714 424 734 b 151 682 257 734 191 708 b 86 583 113 656 86 624 b 161 497 86 533 114 497 b 243 572 211 497 243 525 b 178 657 243 618 212 648 b 315 707 210 697 268 707 b 444 567 387 707 444 684 l 444 481 b 278 363 444 425 371 401 b 54 146 139 304 54 256 b 231 -9 54 37 138 -9 b 444 114 297 -9 385 16 b 550 -9 444 52 465 -4 b 395 -171 451 -49 395 -106 b 505 -261 395 -225 438 -261 b 661 -167 566 -261 618 -232 l 641 -149 b 556 -195 623 -174 591 -195 z m 444 151 b 288 46 397 75 343 46 b 176 168 224 46 176 85 b 311 345 176 275 250 315 b 444 424 399 387 429 401 z "},"å":{"ha":692,"x_min":0,"x_max":0,"o":"m 342 1099 b 209 972 271 1099 209 1050 b 342 844 209 893 271 844 b 477 972 414 844 477 893 b 342 1099 477 1050 414 1099 z m 342 1069 b 438 971 388 1069 438 1035 b 342 873 438 905 388 873 b 248 971 298 873 248 905 b 342 1069 248 1035 298 1069 z m 346 734 b 151 682 257 734 191 708 b 86 583 113 656 86 624 b 161 497 86 533 114 497 b 243 572 211 497 243 525 b 178 657 243 618 212 648 b 315 707 210 697 268 707 b 444 567 387 707 444 684 l 444 481 b 278 363 444 425 371 401 b 54 146 139 304 54 256 b 231 -9 54 37 138 -9 b 444 114 297 -9 385 16 b 564 -9 444 49 467 -9 b 690 41 623 -9 652 12 l 675 65 b 612 36 656 49 637 36 b 570 102 581 36 570 57 l 570 488 b 514 682 570 586 558 637 b 346 734 482 714 424 734 z m 444 151 b 288 46 397 75 343 46 b 176 168 224 46 176 85 b 311 345 176 275 250 315 b 444 424 399 387 429 401 z "},"ã":{"ha":692,"x_min":0,"x_max":0,"o":"m 239 1067 b 74 924 168 1067 103 1026 l 94 914 b 201 989 125 966 161 989 b 412 896 281 989 310 896 b 576 1039 481 896 547 936 l 556 1048 b 449 975 524 996 488 975 b 239 1067 368 975 339 1067 z m 346 734 b 151 682 257 734 191 708 b 86 583 113 656 86 624 b 161 497 86 533 114 497 b 243 572 211 497 243 525 b 178 657 243 618 212 648 b 315 707 210 697 268 707 b 444 567 387 707 444 684 l 444 481 b 278 363 444 425 371 401 b 54 146 139 304 54 256 b 231 -9 54 37 138 -9 b 444 114 297 -9 385 16 b 564 -9 444 49 467 -9 b 690 41 623 -9 652 12 l 675 65 b 612 36 656 49 637 36 b 570 102 581 36 570 57 l 570 488 b 514 682 570 586 558 637 b 346 734 482 714 424 734 z m 444 151 b 288 46 397 75 343 46 b 176 168 224 46 176 85 b 311 345 176 275 250 315 b 444 424 399 387 429 401 z "},"æ":{"ha":1031,"x_min":0,"x_max":0,"o":"m 758 39 b 562 340 659 39 562 150 b 567 429 562 371 564 403 l 971 429 b 725 734 971 639 879 734 b 529 646 644 734 577 705 b 335 734 490 714 420 734 b 144 685 243 734 183 711 b 79 585 106 659 79 624 b 153 511 79 542 110 511 b 229 586 195 511 229 539 b 171 657 229 625 205 650 b 304 707 203 697 262 707 b 440 567 371 707 440 684 l 440 481 b 273 361 440 428 372 404 b 57 134 143 304 57 252 b 235 -20 57 22 147 -20 b 473 158 331 -20 416 28 b 730 -20 515 44 603 -20 b 962 167 854 -20 935 74 l 935 178 b 758 39 892 74 831 39 z m 720 708 b 838 456 803 708 842 591 l 564 456 b 720 708 578 631 644 708 z m 440 151 b 288 36 396 61 338 36 b 179 157 235 36 179 64 b 328 353 179 257 240 310 b 440 424 366 371 418 397 z "},"b":{"ha":782,"x_min":0,"x_max":0,"o":"m 453 734 b 236 586 358 734 277 681 l 236 1088 b 92 1068 196 1074 146 1068 b 5 1072 64 1068 35 1069 l 5 1043 b 111 921 86 1043 111 1004 l 111 68 b 102 -12 111 40 109 12 l 125 -22 l 224 62 b 407 -20 273 7 340 -20 b 717 357 574 -20 717 107 b 453 734 717 610 604 734 z m 396 12 b 236 81 338 12 281 35 l 236 520 b 412 693 264 634 338 693 b 582 357 528 693 582 582 b 396 12 582 121 519 12 z "},"c":{"ha":675,"x_min":0,"x_max":0,"o":"m 387 734 b 64 349 197 734 64 576 b 371 -20 64 119 199 -20 b 627 174 519 -20 599 83 l 600 183 b 399 40 551 78 471 40 b 199 370 292 40 199 123 b 397 710 199 632 306 710 b 522 652 450 710 504 685 b 464 575 490 643 464 616 b 541 505 464 530 498 505 b 614 583 582 505 614 533 b 549 690 614 625 590 663 b 387 734 504 720 446 734 z "},"ć":{"ha":675,"x_min":0,"x_max":0,"o":"m 514 1129 b 484 1139 505 1136 495 1139 b 431 1108 467 1139 448 1131 b 279 844 389 1054 366 979 l 294 832 b 514 1043 404 949 471 989 b 533 1090 527 1060 533 1076 b 514 1129 533 1106 526 1120 z m 387 734 b 64 349 197 734 64 576 b 371 -20 64 119 199 -20 b 627 174 519 -20 599 83 l 600 183 b 399 40 551 78 471 40 b 199 370 292 40 199 123 b 397 710 199 632 306 710 b 522 652 450 710 504 685 b 464 575 490 643 464 616 b 541 505 464 530 498 505 b 614 583 582 505 614 533 b 549 690 614 625 590 663 b 387 734 504 720 446 734 z "},"č":{"ha":675,"x_min":0,"x_max":0,"o":"m 585 1114 b 380 975 507 1079 427 1025 b 119 1114 321 1025 218 1079 l 107 1095 b 339 856 214 1042 302 949 l 364 856 b 596 1095 401 949 489 1042 z m 387 734 b 64 349 197 734 64 576 b 371 -20 64 119 199 -20 b 627 174 519 -20 599 83 l 600 183 b 399 40 551 78 471 40 b 199 370 292 40 199 123 b 397 710 199 632 306 710 b 522 652 450 710 504 685 b 464 575 490 643 464 616 b 541 505 464 530 498 505 b 614 583 582 505 614 533 b 549 690 614 625 590 663 b 387 734 504 720 446 734 z "},"ç":{"ha":675,"x_min":0,"x_max":0,"o":"m 371 -20 b 627 174 519 -20 599 83 l 600 183 b 399 40 551 78 471 40 b 199 370 292 40 199 123 b 397 710 199 632 306 710 b 522 652 450 710 504 685 b 464 575 490 643 464 616 b 541 505 464 530 498 505 b 614 583 582 505 614 533 b 549 690 614 625 590 663 b 387 734 504 720 446 734 b 64 349 197 734 64 576 b 322 -16 64 142 174 8 l 283 -134 b 351 -123 304 -126 336 -123 b 410 -163 389 -123 410 -136 b 284 -225 410 -212 338 -225 b 232 -221 262 -225 241 -222 l 226 -245 b 341 -261 251 -254 290 -261 b 498 -155 408 -261 498 -233 b 414 -90 498 -114 465 -90 b 332 -100 383 -90 355 -94 l 358 -20 z "},"ĉ":{"ha":675,"x_min":0,"x_max":0,"o":"m 353 1114 b 121 875 315 1021 228 928 l 132 856 b 338 994 210 890 290 945 b 599 856 396 945 498 890 l 610 875 b 378 1114 503 928 415 1021 z m 387 734 b 64 349 197 734 64 576 b 371 -20 64 119 199 -20 b 627 174 519 -20 599 83 l 600 183 b 399 40 551 78 471 40 b 199 370 292 40 199 123 b 397 710 199 632 306 710 b 522 652 450 710 504 685 b 464 575 490 643 464 616 b 541 505 464 530 498 505 b 614 583 582 505 614 533 b 549 690 614 625 590 663 b 387 734 504 720 446 734 z "},"ċ":{"ha":675,"x_min":0,"x_max":0,"o":"m 385 1063 b 296 974 336 1063 296 1022 b 385 885 296 925 336 885 b 474 974 433 885 474 925 b 385 1063 474 1022 433 1063 z m 387 734 b 64 349 197 734 64 576 b 371 -20 64 119 199 -20 b 627 174 519 -20 599 83 l 600 183 b 399 40 551 78 471 40 b 199 370 292 40 199 123 b 397 710 199 632 306 710 b 522 652 450 710 504 685 b 464 575 490 643 464 616 b 541 505 464 530 498 505 b 614 583 582 505 614 533 b 549 690 614 625 590 663 b 387 734 504 720 446 734 z "},"d":{"ha":807,"x_min":0,"x_max":0,"o":"m 672 1089 b 528 1069 632 1075 582 1069 b 441 1074 500 1069 471 1071 l 441 1044 b 547 922 522 1044 547 1006 l 547 652 b 380 734 511 711 446 734 b 66 357 214 734 65 610 b 350 -20 65 104 176 -20 b 547 108 446 -20 513 25 l 547 -16 b 692 4 587 -1 637 4 b 778 0 720 4 749 3 l 778 29 b 672 151 697 29 672 68 z m 390 22 b 201 357 267 22 200 132 b 392 703 200 591 282 703 b 547 595 464 703 520 671 l 547 182 b 390 22 526 77 460 22 z "},"ð":{"ha":770,"x_min":0,"x_max":0,"o":"m 616 1043 l 604 1068 l 408 972 b 192 1086 342 1019 269 1056 l 180 1063 b 363 951 244 1033 307 999 l 122 833 l 135 808 l 385 931 b 533 663 450 869 503 785 b 367 734 497 711 442 734 b 64 354 167 734 64 538 b 375 -20 64 106 193 -20 b 692 419 538 -20 692 121 b 433 954 692 670 585 839 z m 368 8 b 199 351 278 8 199 102 b 376 705 199 615 278 705 b 557 508 448 705 536 677 b 559 419 559 479 559 450 b 368 8 559 100 465 8 z "},"ď":{"ha":807,"x_min":0,"x_max":0,"o":"m 672 1089 b 528 1069 632 1075 582 1069 b 441 1074 500 1069 471 1071 l 441 1044 b 547 922 522 1044 547 1006 l 547 652 b 380 734 511 711 446 734 b 66 357 214 734 65 610 b 350 -20 65 104 176 -20 b 547 108 446 -20 513 25 l 547 -16 b 692 4 587 -1 637 4 b 778 0 720 4 749 3 l 778 29 b 672 151 697 29 672 68 z m 773 782 b 867 1032 830 901 867 978 b 859 1089 867 1048 863 1079 b 777 1073 837 1080 813 1073 b 754 1074 770 1073 762 1073 l 754 1044 b 782 989 777 1044 782 1025 b 754 787 782 964 776 913 z m 390 22 b 201 357 267 22 200 132 b 392 703 200 591 282 703 b 547 595 464 703 520 671 l 547 182 b 390 22 526 77 460 22 z "},"đ":{"ha":807,"x_min":0,"x_max":0,"o":"m 672 844 l 791 844 l 791 872 l 672 872 l 672 1089 b 528 1069 632 1075 582 1069 b 441 1074 500 1069 471 1071 l 441 1044 b 547 922 522 1044 547 1006 l 547 872 l 300 872 l 300 844 l 547 844 l 547 652 b 380 734 511 711 446 734 b 66 357 214 734 65 610 b 350 -20 65 104 176 -20 b 547 108 446 -20 513 25 l 547 -16 b 692 4 587 -1 637 4 b 778 0 720 4 749 3 l 778 29 b 672 151 697 29 672 68 z m 390 22 b 201 357 267 22 200 132 b 392 703 200 591 282 703 b 547 595 464 703 520 671 l 547 182 b 390 22 526 77 460 22 z "},"e":{"ha":703,"x_min":0,"x_max":0,"o":"m 615 178 b 411 39 567 74 494 39 b 199 340 304 39 199 150 b 203 429 199 371 200 403 l 637 429 b 378 734 637 639 541 734 b 64 340 187 734 64 585 b 383 -20 64 127 182 -20 b 643 167 521 -20 612 74 z m 372 708 b 504 456 465 708 509 591 l 201 456 b 372 708 216 631 290 708 z "},"é":{"ha":703,"x_min":0,"x_max":0,"o":"m 525 1043 b 544 1090 538 1060 544 1076 b 525 1129 544 1106 536 1120 b 494 1139 516 1136 506 1139 b 441 1108 477 1139 458 1131 b 290 844 400 1054 376 979 l 305 832 b 525 1043 415 949 482 989 z m 615 178 b 411 39 567 74 494 39 b 199 340 304 39 199 150 b 203 429 199 371 200 403 l 637 429 b 378 734 637 639 541 734 b 64 340 187 734 64 585 b 383 -20 64 127 182 -20 b 643 167 521 -20 612 74 z m 372 708 b 504 456 465 708 509 591 l 201 456 b 372 708 216 631 290 708 z "},"ĕ":{"ha":703,"x_min":0,"x_max":0,"o":"m 375 879 b 624 1082 503 879 585 989 l 600 1095 b 375 961 563 1032 494 961 b 150 1095 256 961 188 1032 l 127 1082 b 375 879 165 989 248 879 z m 615 178 b 411 39 567 74 494 39 b 199 340 304 39 199 150 b 203 429 199 371 200 403 l 637 429 b 378 734 637 639 541 734 b 64 340 187 734 64 585 b 383 -20 64 127 182 -20 b 643 167 521 -20 612 74 z m 372 708 b 504 456 465 708 509 591 l 201 456 b 372 708 216 631 290 708 z "},"ě":{"ha":703,"x_min":0,"x_max":0,"o":"m 375 856 b 607 1095 412 949 500 1042 l 596 1114 b 391 975 518 1079 437 1025 b 130 1114 332 1025 229 1079 l 118 1095 b 350 856 225 1042 313 949 z m 615 178 b 411 39 567 74 494 39 b 199 340 304 39 199 150 b 203 429 199 371 200 403 l 637 429 b 378 734 637 639 541 734 b 64 340 187 734 64 585 b 383 -20 64 127 182 -20 b 643 167 521 -20 612 74 z m 372 708 b 504 456 465 708 509 591 l 201 456 b 372 708 216 631 290 708 z "},"ê":{"ha":703,"x_min":0,"x_max":0,"o":"m 349 994 b 610 856 407 945 509 890 l 621 875 b 389 1114 513 928 426 1021 l 363 1114 b 132 875 326 1021 239 928 l 143 856 b 349 994 220 890 301 945 z m 615 178 b 411 39 567 74 494 39 b 199 340 304 39 199 150 b 203 429 199 371 200 403 l 637 429 b 378 734 637 639 541 734 b 64 340 187 734 64 585 b 383 -20 64 127 182 -20 b 643 167 521 -20 612 74 z m 372 708 b 504 456 465 708 509 591 l 201 456 b 372 708 216 631 290 708 z "},"ë":{"ha":703,"x_min":0,"x_max":0,"o":"m 231 871 b 311 951 274 871 311 907 b 231 1032 311 994 274 1032 b 150 951 186 1032 150 994 b 231 871 150 907 186 871 z m 525 871 b 606 951 568 871 606 907 b 525 1032 606 994 568 1032 b 445 951 481 1032 445 994 b 525 871 445 907 481 871 z m 615 178 b 411 39 567 74 494 39 b 199 340 304 39 199 150 b 203 429 199 371 200 403 l 637 429 b 378 734 637 639 541 734 b 64 340 187 734 64 585 b 383 -20 64 127 182 -20 b 643 167 521 -20 612 74 z m 372 708 b 504 456 465 708 509 591 l 201 456 b 372 708 216 631 290 708 z "},"ė":{"ha":703,"x_min":0,"x_max":0,"o":"m 376 885 b 465 974 425 885 465 925 b 376 1063 465 1022 425 1063 b 288 974 328 1063 288 1022 b 376 885 288 925 328 885 z m 615 178 b 411 39 567 74 494 39 b 199 340 304 39 199 150 b 203 429 199 371 200 403 l 637 429 b 378 734 637 639 541 734 b 64 340 187 734 64 585 b 383 -20 64 127 182 -20 b 643 167 521 -20 612 74 z m 372 708 b 504 456 465 708 509 591 l 201 456 b 372 708 216 631 290 708 z "},"è":{"ha":703,"x_min":0,"x_max":0,"o":"m 440 844 b 289 1108 354 979 330 1054 b 235 1139 272 1131 253 1139 b 205 1129 224 1139 214 1136 b 186 1090 194 1120 186 1106 b 205 1043 186 1076 193 1060 b 425 832 248 989 315 949 z m 615 178 b 411 39 567 74 494 39 b 199 340 304 39 199 150 b 203 429 199 371 200 403 l 637 429 b 378 734 637 639 541 734 b 64 340 187 734 64 585 b 383 -20 64 127 182 -20 b 643 167 521 -20 612 74 z m 372 708 b 504 456 465 708 509 591 l 201 456 b 372 708 216 631 290 708 z "},"ē":{"ha":703,"x_min":0,"x_max":0,"o":"m 589 954 l 589 989 l 155 989 l 155 954 z m 615 178 b 411 39 567 74 494 39 b 199 340 304 39 199 150 b 203 429 199 371 200 403 l 637 429 b 378 734 637 639 541 734 b 64 340 187 734 64 585 b 383 -20 64 127 182 -20 b 643 167 521 -20 612 74 z m 372 708 b 504 456 465 708 509 591 l 201 456 b 372 708 216 631 290 708 z "},"ę":{"ha":703,"x_min":0,"x_max":0,"o":"m 477 -4 b 483 -1 479 -3 481 -2 l 488 0 b 643 167 567 33 621 100 l 615 178 b 411 39 567 74 494 39 b 199 340 304 39 199 150 b 203 429 199 371 200 403 l 637 429 b 378 734 637 639 541 734 b 64 340 187 734 64 585 b 383 -20 64 127 182 -20 l 388 -20 b 257 -171 304 -59 257 -111 b 367 -261 257 -225 300 -261 b 524 -167 428 -261 481 -232 l 503 -149 b 418 -195 485 -174 453 -195 b 359 -134 380 -195 359 -170 b 477 -4 359 -90 389 -42 z m 372 708 b 504 456 465 708 509 591 l 201 456 b 372 708 216 631 290 708 z "},"f":{"ha":461,"x_min":0,"x_max":0,"o":"m 383 1086 b 218 1017 315 1086 254 1060 b 147 714 165 954 147 878 l 36 714 l 36 686 l 147 686 l 147 129 b 41 29 147 52 118 29 l 41 0 b 205 5 74 1 142 5 b 419 0 292 5 376 1 l 419 29 b 272 143 328 29 272 53 l 272 686 l 421 686 l 421 714 l 272 714 l 272 750 b 297 1014 272 908 275 975 b 387 1065 314 1044 345 1065 b 456 1035 427 1065 450 1051 b 397 964 421 1028 397 1003 b 473 889 397 917 432 889 b 547 962 517 889 547 920 b 504 1048 547 996 532 1026 b 383 1086 475 1071 435 1086 z "},"g":{"ha":720,"x_min":0,"x_max":0,"o":"m 205 153 b 139 199 158 153 139 168 b 256 309 139 241 193 275 b 358 296 286 300 321 296 b 615 515 504 296 615 363 b 481 715 615 621 562 685 b 496 772 485 738 491 757 b 533 840 507 806 519 828 b 607 753 542 786 557 753 b 673 819 646 753 673 782 b 600 892 673 860 648 892 b 505 846 559 892 528 873 b 456 722 484 818 466 774 b 358 734 427 730 393 734 b 102 515 212 734 102 668 b 231 317 102 412 153 348 b 57 142 98 258 57 201 b 196 36 57 49 147 36 l 201 36 b 26 -134 113 -4 26 -66 b 306 -261 26 -218 165 -261 b 694 24 575 -261 694 -100 b 532 153 694 121 619 153 z m 358 710 b 485 515 436 710 485 664 b 358 321 485 367 436 321 b 232 515 281 321 232 367 b 358 710 232 664 281 710 z m 343 -237 b 140 -104 250 -237 140 -199 b 235 36 140 -53 174 5 l 493 36 b 599 -41 578 36 599 9 b 343 -237 599 -175 460 -237 z "},"ǵ":{"ha":720,"x_min":0,"x_max":0,"o":"m 498 1043 b 517 1090 511 1060 517 1076 b 498 1129 517 1106 510 1120 b 468 1139 490 1136 479 1139 b 415 1108 451 1139 432 1131 b 264 844 374 1054 350 979 l 279 832 b 498 1043 389 949 456 989 z m 205 153 b 139 199 158 153 139 168 b 256 309 139 241 193 275 b 358 296 286 300 321 296 b 615 515 504 296 615 363 b 481 715 615 621 562 685 b 496 772 485 738 491 757 b 533 840 507 806 519 828 b 607 753 542 786 557 753 b 673 819 646 753 673 782 b 600 892 673 860 648 892 b 505 846 559 892 528 873 b 456 722 484 818 466 774 b 358 734 427 730 393 734 b 102 515 212 734 102 668 b 231 317 102 412 153 348 b 57 142 98 258 57 201 b 196 36 57 49 147 36 l 201 36 b 26 -134 113 -4 26 -66 b 306 -261 26 -218 165 -261 b 694 24 575 -261 694 -100 b 532 153 694 121 619 153 z m 358 710 b 485 515 436 710 485 664 b 358 321 485 367 436 321 b 232 515 281 321 232 367 b 358 710 232 664 281 710 z m 343 -237 b 140 -104 250 -237 140 -199 b 235 36 140 -53 174 5 l 493 36 b 599 -41 578 36 599 9 b 343 -237 599 -175 460 -237 z "},"ğ":{"ha":701,"x_min":0,"x_max":0,"o":"m 334 879 b 583 1082 463 879 545 989 l 559 1095 b 334 961 522 1032 454 961 b 109 1095 215 961 147 1032 l 86 1082 b 334 879 125 989 207 879 z m 228 153 b 150 199 180 153 150 157 b 246 306 150 244 188 269 b 336 296 274 299 304 296 b 593 515 482 296 593 363 b 459 715 593 621 540 685 b 476 772 464 738 470 757 b 505 812 485 791 494 808 b 576 747 510 771 538 747 b 652 823 624 747 652 782 b 578 897 652 867 621 897 b 478 832 533 897 498 864 b 435 723 460 806 444 770 b 336 734 404 730 372 734 b 79 515 191 734 79 668 b 219 313 79 408 135 342 b 68 140 107 252 68 201 b 207 33 68 49 160 33 l 212 33 b 37 -139 121 -7 37 -64 b 294 -261 37 -215 160 -261 b 677 20 555 -261 677 -109 b 515 153 677 122 604 153 z m 336 710 b 463 515 414 710 463 664 b 336 321 463 367 414 321 b 210 515 258 321 210 367 b 336 710 210 664 258 710 z m 329 -237 b 151 -109 245 -237 151 -197 b 248 33 151 -52 186 1 l 490 33 b 596 -39 572 33 596 9 b 329 -237 596 -167 450 -237 z "},"ĝ":{"ha":701,"x_min":0,"x_max":0,"o":"m 309 994 b 472 897 347 960 411 921 l 486 917 b 349 1114 425 961 370 1038 l 323 1114 b 92 875 286 1021 199 928 l 103 856 b 309 994 180 890 261 945 z m 228 153 b 150 199 180 153 150 157 b 246 306 150 244 188 269 b 336 296 274 299 304 296 b 593 515 482 296 593 363 b 459 715 593 621 540 685 b 476 772 464 738 470 757 b 505 812 485 791 494 808 b 576 747 510 771 538 747 b 652 823 624 747 652 782 b 578 897 652 867 621 897 b 478 832 533 897 498 864 b 435 723 460 806 444 770 b 336 734 404 730 372 734 b 79 515 191 734 79 668 b 219 313 79 408 135 342 b 68 140 107 252 68 201 b 207 33 68 49 160 33 l 212 33 b 37 -139 121 -7 37 -64 b 294 -261 37 -215 160 -261 b 677 20 555 -261 677 -109 b 515 153 677 122 604 153 z m 336 710 b 463 515 414 710 463 664 b 336 321 463 367 414 321 b 210 515 258 321 210 367 b 336 710 210 664 258 710 z m 329 -237 b 151 -109 245 -237 151 -197 b 248 33 151 -52 186 1 l 490 33 b 596 -39 572 33 596 9 b 329 -237 596 -167 450 -237 z "},"ģ":{"ha":701,"x_min":0,"x_max":0,"o":"m 342 895 b 420 968 385 895 420 926 b 347 1043 420 1017 388 1043 b 289 1021 324 1043 303 1034 b 375 1109 288 1065 332 1096 l 366 1134 b 252 992 277 1101 252 1059 b 342 895 252 938 288 895 z m 228 153 b 150 199 180 153 150 157 b 246 306 150 244 188 269 b 336 296 274 299 304 296 b 593 515 482 296 593 363 b 459 715 593 621 540 685 b 476 772 464 738 470 757 b 505 812 485 791 494 808 b 576 747 510 771 538 747 b 652 823 624 747 652 782 b 578 897 652 867 621 897 b 478 832 533 897 498 864 b 435 723 460 806 444 770 b 336 734 404 730 372 734 b 79 515 191 734 79 668 b 219 313 79 408 135 342 b 68 140 107 252 68 201 b 207 33 68 49 160 33 l 212 33 b 37 -139 121 -7 37 -64 b 294 -261 37 -215 160 -261 b 677 20 555 -261 677 -109 b 515 153 677 122 604 153 z m 336 710 b 463 515 414 710 463 664 b 336 321 463 367 414 321 b 210 515 258 321 210 367 b 336 710 210 664 258 710 z m 329 -237 b 151 -109 245 -237 151 -197 b 248 33 151 -52 186 1 l 490 33 b 596 -39 572 33 596 9 b 329 -237 596 -167 450 -237 z "},"ġ":{"ha":701,"x_min":0,"x_max":0,"o":"m 336 885 b 425 974 385 885 425 925 b 336 1063 425 1022 385 1063 b 248 974 288 1063 248 1022 b 336 885 248 925 288 885 z m 228 153 b 150 199 180 153 150 157 b 246 306 150 244 188 269 b 336 296 274 299 304 296 b 593 515 482 296 593 363 b 459 715 593 621 540 685 b 476 772 464 738 470 757 b 505 812 485 791 494 808 b 576 747 510 771 538 747 b 652 823 624 747 652 782 b 578 897 652 867 621 897 b 478 832 533 897 498 864 b 435 723 460 806 444 770 b 336 734 404 730 372 734 b 79 515 191 734 79 668 b 219 313 79 408 135 342 b 68 140 107 252 68 201 b 207 33 68 49 160 33 l 212 33 b 37 -139 121 -7 37 -64 b 294 -261 37 -215 160 -261 b 677 20 555 -261 677 -109 b 515 153 677 122 604 153 z m 336 710 b 463 515 414 710 463 664 b 336 321 463 367 414 321 b 210 515 258 321 210 367 b 336 710 210 664 258 710 z m 329 -237 b 151 -109 245 -237 151 -197 b 248 33 151 -52 186 1 l 490 33 b 596 -39 572 33 596 9 b 329 -237 596 -167 450 -237 z "},"h":{"ha":817,"x_min":0,"x_max":0,"o":"m 258 1088 b 114 1068 218 1074 168 1068 b 28 1072 86 1068 57 1069 l 28 1043 b 134 921 109 1043 134 1004 l 134 129 b 28 29 134 52 104 29 l 28 0 b 195 5 60 1 134 5 b 350 0 256 5 321 1 l 350 29 b 258 129 283 29 258 52 l 258 439 b 453 690 258 586 339 690 b 566 530 553 690 566 616 l 566 129 b 473 29 566 52 541 29 l 473 0 b 629 5 503 1 568 5 b 796 0 690 5 764 1 l 796 29 b 690 129 720 29 690 52 l 690 500 b 642 682 690 595 676 644 b 494 734 610 715 566 734 b 258 568 400 734 307 693 z "},"ħ":{"ha":817,"x_min":0,"x_max":0,"o":"m 690 500 b 642 682 690 595 676 644 b 494 734 610 715 566 734 b 258 568 400 734 307 693 l 258 844 l 505 844 l 505 872 l 258 872 l 258 1088 b 114 1068 218 1074 168 1068 b 28 1072 86 1068 57 1069 l 28 1043 b 134 921 109 1043 134 1004 l 134 872 l 14 872 l 14 844 l 134 844 l 134 129 b 28 29 134 52 104 29 l 28 0 b 195 5 60 1 134 5 b 350 0 256 5 321 1 l 350 29 b 258 129 283 29 258 52 l 258 439 b 453 690 258 586 339 690 b 566 530 553 690 566 616 l 566 129 b 473 29 566 52 541 29 l 473 0 b 629 5 503 1 568 5 b 796 0 690 5 764 1 l 796 29 b 690 129 720 29 690 52 z "},"ĥ":{"ha":817,"x_min":0,"x_max":0,"o":"m 379 1361 b 119 1178 336 1291 240 1219 l 126 1158 b 363 1255 215 1182 311 1221 b 656 1158 427 1221 545 1182 l 664 1178 b 404 1361 543 1219 447 1291 z m 258 1088 b 114 1068 218 1074 168 1068 b 28 1072 86 1068 57 1069 l 28 1043 b 134 921 109 1043 134 1004 l 134 129 b 28 29 134 52 104 29 l 28 0 b 195 5 60 1 134 5 b 350 0 256 5 321 1 l 350 29 b 258 129 283 29 258 52 l 258 439 b 453 690 258 586 339 690 b 566 530 553 690 566 616 l 566 129 b 473 29 566 52 541 29 l 473 0 b 629 5 503 1 568 5 b 796 0 690 5 764 1 l 796 29 b 690 129 720 29 690 52 l 690 500 b 642 682 690 595 676 644 b 494 734 610 715 566 734 b 258 568 400 734 307 693 z "},"i":{"ha":407,"x_min":0,"x_max":0,"o":"m 199 1063 b 110 974 150 1063 110 1022 b 199 885 110 925 150 885 b 288 974 247 885 288 925 b 199 1063 288 1022 247 1063 z m 271 730 b 126 711 231 717 180 711 b 40 715 98 711 69 713 l 40 686 b 146 564 121 686 146 647 l 146 129 b 40 29 146 52 117 29 l 40 0 b 208 5 72 1 144 5 b 376 0 272 5 345 1 l 376 29 b 271 129 300 29 271 52 z "},"ı":{"ha":407,"x_min":0,"x_max":0,"o":"m 271 730 b 126 711 231 717 180 711 b 40 715 98 711 69 713 l 40 686 b 146 564 121 686 146 647 l 146 129 b 40 29 146 52 117 29 l 40 0 b 208 5 72 1 144 5 b 376 0 272 5 345 1 l 376 29 b 271 129 300 29 271 52 z "},"í":{"ha":407,"x_min":0,"x_max":0,"o":"m 345 1129 b 314 1139 336 1136 326 1139 b 261 1108 297 1139 278 1131 b 110 844 220 1054 196 979 l 125 832 b 345 1043 235 949 302 989 b 363 1090 357 1060 363 1076 b 345 1129 363 1106 356 1120 z m 271 730 b 126 711 231 717 180 711 b 40 715 98 711 69 713 l 40 686 b 146 564 121 686 146 647 l 146 129 b 40 29 146 52 117 29 l 40 0 b 208 5 72 1 144 5 b 376 0 272 5 345 1 l 376 29 b 271 129 300 29 271 52 z "},"ĭ":{"ha":407,"x_min":0,"x_max":0,"o":"m 420 1095 b 195 961 382 1032 314 961 b -31 1095 75 961 7 1032 l -54 1082 b 195 879 -15 989 67 879 b 444 1082 323 879 405 989 z m 271 730 b 126 711 231 717 180 711 b 40 715 98 711 69 713 l 40 686 b 146 564 121 686 146 647 l 146 129 b 40 29 146 52 117 29 l 40 0 b 208 5 72 1 144 5 b 376 0 272 5 345 1 l 376 29 b 271 129 300 29 271 52 z "},"î":{"ha":407,"x_min":0,"x_max":0,"o":"m 183 1114 b -49 875 146 1021 58 928 l -37 856 b 168 994 40 890 121 945 b 429 856 227 945 329 890 l 440 875 b 208 1114 333 928 245 1021 z m 271 730 b 126 711 231 717 180 711 b 40 715 98 711 69 713 l 40 686 b 146 564 121 686 146 647 l 146 129 b 40 29 146 52 117 29 l 40 0 b 208 5 72 1 144 5 b 376 0 272 5 345 1 l 376 29 b 271 129 300 29 271 52 z "},"ï":{"ha":407,"x_min":0,"x_max":0,"o":"m 50 1032 b -31 951 6 1032 -31 994 b 50 871 -31 907 6 871 b 131 951 94 871 131 907 b 50 1032 131 994 94 1032 z m 345 1032 b 264 951 300 1032 264 994 b 345 871 264 907 300 871 b 425 951 388 871 425 907 b 345 1032 425 994 388 1032 z m 271 730 b 126 711 231 717 180 711 b 40 715 98 711 69 713 l 40 686 b 146 564 121 686 146 647 l 146 129 b 40 29 146 52 117 29 l 40 0 b 208 5 72 1 144 5 b 376 0 272 5 345 1 l 376 29 b 271 129 300 29 271 52 z "},"ì":{"ha":407,"x_min":0,"x_max":0,"o":"m 25 1129 b 6 1090 14 1120 6 1106 b 25 1043 6 1076 12 1060 b 244 832 68 989 134 949 l 260 844 b 109 1108 174 979 150 1054 b 55 1139 92 1131 73 1139 b 25 1129 44 1139 34 1136 z m 271 730 b 126 711 231 717 180 711 b 40 715 98 711 69 713 l 40 686 b 146 564 121 686 146 647 l 146 129 b 40 29 146 52 117 29 l 40 0 b 208 5 72 1 144 5 b 376 0 272 5 345 1 l 376 29 b 271 129 300 29 271 52 z "},"ĳ":{"ha":781,"x_min":0,"x_max":0,"o":"m 171 1063 b 82 974 122 1063 82 1022 b 171 885 82 925 122 885 b 260 974 219 885 260 925 b 171 1063 260 1022 219 1063 z m 593 1063 b 505 974 545 1063 505 1022 b 593 885 505 925 545 885 b 682 974 642 885 682 925 b 593 1063 682 1022 642 1063 z m 671 730 b 526 711 631 717 581 711 b 440 715 498 711 469 713 l 440 686 b 546 564 521 686 546 647 l 546 277 b 358 25 546 135 473 25 b 253 184 258 25 253 98 l 253 730 b 109 711 212 717 163 711 b 22 715 81 711 52 713 l 22 686 b 127 564 103 686 127 647 l 127 215 b 174 33 127 127 139 71 b 318 -20 205 0 253 -20 b 546 157 433 -20 513 49 l 546 -64 b 436 -240 546 -189 515 -240 b 412 -239 429 -240 421 -240 b 460 -176 446 -225 460 -204 b 395 -115 460 -138 432 -115 b 326 -183 351 -115 326 -143 b 439 -261 326 -232 364 -261 b 671 160 631 -261 671 -66 z "},"ī":{"ha":407,"x_min":0,"x_max":0,"o":"m 390 954 l 390 989 l -16 989 l -16 954 z m 271 730 b 126 711 231 717 180 711 b 40 715 98 711 69 713 l 40 686 b 146 564 121 686 146 647 l 146 129 b 40 29 146 52 117 29 l 40 0 b 208 5 72 1 144 5 b 376 0 272 5 345 1 l 376 29 b 271 129 300 29 271 52 z "},"į":{"ha":407,"x_min":0,"x_max":0,"o":"m 196 885 b 285 974 244 885 285 925 b 196 1063 285 1022 244 1063 b 107 974 147 1063 107 1022 b 196 885 107 925 147 885 z m 371 -149 b 286 -195 353 -174 321 -195 b 227 -134 248 -195 227 -170 b 347 -3 227 -89 257 -41 b 357 1 350 -2 353 -1 l 376 0 l 376 29 b 271 129 300 29 271 52 l 271 730 b 126 711 231 717 180 711 b 40 715 98 711 69 713 l 40 686 b 146 564 121 686 146 647 l 146 129 b 40 29 146 52 117 29 l 40 0 b 208 5 72 1 144 5 b 313 3 243 5 281 4 b 125 -171 193 -37 125 -99 b 235 -261 125 -225 168 -261 b 391 -167 296 -261 349 -232 z "},"ĩ":{"ha":407,"x_min":0,"x_max":0,"o":"m 94 1067 b -72 924 22 1067 -43 1026 l -52 914 b 55 989 -20 966 16 989 b 266 896 135 989 164 896 b 430 1039 335 896 401 936 l 410 1048 b 303 975 378 996 342 975 b 94 1067 222 975 193 1067 z m 271 730 b 126 711 231 717 180 711 b 40 715 98 711 69 713 l 40 686 b 146 564 121 686 146 647 l 146 129 b 40 29 146 52 117 29 l 40 0 b 208 5 72 1 144 5 b 376 0 272 5 345 1 l 376 29 b 271 129 300 29 271 52 z "},"j":{"ha":371,"x_min":0,"x_max":0,"o":"m 184 1055 b 96 966 136 1055 96 1015 b 184 878 96 918 136 878 b 273 966 233 878 273 918 b 184 1055 273 1015 233 1055 z m 261 730 b 117 711 221 717 171 711 b 31 715 89 711 60 713 l 31 686 b 136 564 111 686 136 647 l 136 -90 b 104 -208 136 -147 123 -184 b 26 -240 83 -231 57 -240 b 3 -239 20 -240 11 -240 b 56 -172 37 -227 56 -203 b -17 -104 56 -125 25 -104 b -89 -176 -60 -104 -89 -134 b -58 -240 -89 -204 -78 -225 b 20 -261 -39 -254 -11 -261 b 187 -176 78 -261 143 -233 b 261 160 250 -97 261 32 z "},"ȷ":{"ha":371,"x_min":0,"x_max":0,"o":"m 261 730 b 117 711 221 717 171 711 b 31 715 89 711 60 713 l 31 686 b 136 564 111 686 136 647 l 136 -90 b 104 -208 136 -147 123 -184 b 26 -240 83 -231 57 -240 b 3 -239 20 -240 11 -240 b 56 -172 37 -227 56 -203 b -17 -104 56 -125 25 -104 b -89 -176 -60 -104 -89 -134 b -58 -240 -89 -204 -78 -225 b 20 -261 -39 -254 -11 -261 b 187 -176 78 -261 143 -233 b 261 160 250 -97 261 32 z "},"ĵ":{"ha":371,"x_min":0,"x_max":0,"o":"m 173 1114 b -59 875 136 1021 48 928 l -47 856 b 158 994 30 890 111 945 b 419 856 216 945 319 890 l 430 875 b 198 1114 323 928 235 1021 z m 261 730 b 117 711 221 717 171 711 b 31 715 89 711 60 713 l 31 686 b 136 564 111 686 136 647 l 136 -90 b 104 -208 136 -147 123 -184 b 26 -240 83 -231 57 -240 b 3 -239 20 -240 11 -240 b 56 -172 37 -227 56 -203 b -17 -104 56 -125 25 -104 b -89 -176 -60 -104 -89 -134 b -58 -240 -89 -204 -78 -225 b 20 -261 -39 -254 -11 -261 b 187 -176 78 -261 143 -233 b 261 160 250 -97 261 32 z "},"k":{"ha":764,"x_min":0,"x_max":0,"o":"m 406 445 l 575 623 b 700 688 614 663 654 684 l 700 715 b 579 710 672 713 625 710 b 422 715 539 710 471 713 l 422 688 b 525 640 481 688 525 674 b 481 564 525 621 512 596 l 378 457 b 258 399 346 424 313 407 l 258 1089 b 114 1069 218 1075 168 1069 b 28 1074 86 1069 57 1071 l 28 1044 b 134 922 109 1044 134 1006 l 134 129 b 28 29 134 52 104 29 l 28 0 b 196 5 60 1 132 5 b 350 0 254 5 321 1 l 350 29 b 258 129 283 29 258 52 l 258 371 b 363 310 307 369 329 357 l 522 77 b 530 56 528 69 530 62 b 488 29 530 40 514 29 l 488 0 b 642 5 517 1 583 5 b 754 0 684 5 733 1 l 754 29 b 657 102 713 35 689 58 z "},"ķ":{"ha":764,"x_min":0,"x_max":0,"o":"m 406 445 l 575 623 b 700 688 614 663 654 684 l 700 715 b 579 710 672 713 625 710 b 422 715 539 710 471 713 l 422 688 b 525 640 481 688 525 674 b 481 564 525 621 512 596 l 378 457 b 258 399 346 424 313 407 l 258 1089 b 114 1069 218 1075 168 1069 b 28 1074 86 1069 57 1071 l 28 1044 b 134 922 109 1044 134 1006 l 134 129 b 28 29 134 52 104 29 l 28 0 b 196 5 60 1 132 5 b 350 0 254 5 321 1 l 350 29 b 258 129 283 29 258 52 l 258 371 b 363 310 307 369 329 357 l 522 77 b 530 56 528 69 530 62 b 488 29 530 40 514 29 l 488 0 b 642 5 517 1 583 5 b 754 0 684 5 733 1 l 754 29 b 657 102 713 35 689 58 z m 380 -96 b 302 -170 337 -96 302 -127 b 375 -244 302 -218 334 -244 b 433 -222 398 -244 419 -235 b 347 -310 435 -267 390 -297 l 357 -335 b 471 -193 446 -302 471 -260 b 380 -96 471 -139 435 -96 z "},"ĸ":{"ha":782,"x_min":0,"x_max":0,"o":"m 399 400 l 602 623 b 726 688 648 675 681 684 l 726 715 b 633 711 703 713 673 711 b 490 715 593 711 539 713 l 490 688 b 564 650 538 688 564 673 b 545 611 564 640 558 626 l 379 429 b 271 368 347 396 321 376 l 271 730 b 126 711 231 717 180 711 b 40 715 98 711 69 713 l 40 686 b 146 564 121 686 146 647 l 146 129 b 40 29 146 52 117 29 l 40 0 b 208 5 72 1 144 5 b 363 0 267 5 334 1 l 363 29 b 271 129 296 29 271 52 l 271 339 b 349 282 297 336 320 317 l 534 77 b 544 56 541 70 544 62 b 500 29 544 41 527 29 l 500 0 b 654 5 529 1 596 5 b 766 0 696 5 746 1 l 766 29 b 668 106 734 35 701 69 z "},"l":{"ha":397,"x_min":0,"x_max":0,"o":"m 261 1089 b 117 1069 221 1075 171 1069 b 31 1074 89 1069 60 1071 l 31 1044 b 136 922 111 1044 136 1006 l 136 129 b 31 29 136 52 107 29 l 31 0 b 199 5 62 1 135 5 b 367 0 262 5 335 1 l 367 29 b 261 129 290 29 261 52 z "},"ĺ":{"ha":397,"x_min":0,"x_max":0,"o":"m 347 1375 b 114 1179 289 1337 241 1276 l 123 1161 b 403 1284 267 1234 343 1249 b 439 1339 429 1301 439 1321 b 432 1365 439 1348 437 1357 b 389 1388 422 1379 408 1388 b 347 1375 376 1388 362 1384 z m 261 1089 b 117 1069 221 1075 171 1069 b 31 1074 89 1069 60 1071 l 31 1044 b 136 922 111 1044 136 1006 l 136 129 b 31 29 136 52 107 29 l 31 0 b 199 5 62 1 135 5 b 367 0 262 5 335 1 l 367 29 b 261 129 290 29 261 52 z "},"ľ":{"ha":397,"x_min":0,"x_max":0,"o":"m 261 1089 b 117 1069 221 1075 171 1069 b 31 1074 89 1069 60 1071 l 31 1044 b 136 922 111 1044 136 1006 l 136 129 b 31 29 136 52 107 29 l 31 0 b 199 5 62 1 135 5 b 367 0 262 5 335 1 l 367 29 b 261 129 290 29 261 52 z m 452 1089 b 370 1073 430 1080 406 1073 b 347 1074 363 1073 355 1073 l 347 1044 b 375 989 370 1044 375 1025 b 347 787 375 964 369 913 l 366 782 b 460 1032 423 901 460 978 b 452 1089 460 1048 456 1079 z "},"ļ":{"ha":397,"x_min":0,"x_max":0,"o":"m 261 1089 b 117 1069 221 1075 171 1069 b 31 1074 89 1069 60 1071 l 31 1044 b 136 922 111 1044 136 1006 l 136 129 b 31 29 136 52 107 29 l 31 0 b 199 5 62 1 135 5 b 367 0 262 5 335 1 l 367 29 b 261 129 290 29 261 52 z m 189 -96 b 111 -170 146 -96 111 -127 b 184 -244 111 -218 143 -244 b 242 -222 207 -244 228 -235 b 156 -310 243 -267 199 -297 l 165 -335 b 279 -193 254 -302 279 -260 b 189 -96 279 -139 243 -96 z "},"ŀ":{"ha":591,"x_min":0,"x_max":0,"o":"m 261 1089 b 117 1069 221 1075 171 1069 b 31 1074 89 1069 60 1071 l 31 1044 b 136 922 111 1044 136 1006 l 136 129 b 31 29 136 52 107 29 l 31 0 b 199 5 62 1 135 5 b 367 0 262 5 335 1 l 367 29 b 261 129 290 29 261 52 z m 494 498 b 406 410 446 498 406 458 b 494 321 406 361 446 321 b 583 410 543 321 583 361 b 494 498 583 458 543 498 z "},"ł":{"ha":397,"x_min":0,"x_max":0,"o":"m 261 556 l 418 693 l 418 734 l 261 598 l 261 1089 b 117 1069 221 1075 171 1069 b 31 1074 89 1069 60 1071 l 31 1044 b 136 922 111 1044 136 1006 l 136 503 l -21 367 l -21 325 l 136 461 l 136 129 b 31 29 136 52 107 29 l 31 0 b 199 5 62 1 135 5 b 367 0 262 5 335 1 l 367 29 b 261 129 290 29 261 52 z "},"m":{"ha":1234,"x_min":0,"x_max":0,"o":"m 1107 500 b 1061 682 1107 587 1096 644 b 917 734 1029 715 982 734 b 686 570 829 734 735 696 b 643 682 680 620 667 656 b 498 734 611 715 564 734 b 271 567 410 734 318 688 l 271 730 b 126 711 231 717 180 711 b 40 715 98 711 69 713 l 40 686 b 146 564 121 686 146 647 l 146 129 b 40 29 146 52 117 29 l 40 0 b 207 5 72 1 146 5 b 363 0 268 5 334 1 l 363 29 b 271 129 296 29 271 52 l 271 437 b 458 690 271 579 350 690 b 564 530 558 690 564 616 l 564 129 b 472 29 564 52 539 29 l 472 0 b 628 5 501 1 567 5 b 794 0 689 5 762 1 l 794 29 b 689 129 718 29 689 52 l 689 439 b 876 690 689 581 768 690 b 982 530 977 690 982 616 l 982 129 b 890 29 982 52 957 29 l 890 0 b 1046 5 920 1 985 5 b 1213 0 1107 5 1181 1 l 1213 29 b 1107 129 1136 29 1107 52 z "},"n":{"ha":829,"x_min":0,"x_max":0,"o":"m 507 734 b 271 567 412 734 319 692 l 271 730 b 126 711 231 717 180 711 b 40 715 98 711 69 713 l 40 686 b 146 564 121 686 146 647 l 146 129 b 40 29 146 52 117 29 l 40 0 b 207 5 72 1 146 5 b 363 0 268 5 334 1 l 363 29 b 271 129 296 29 271 52 l 271 437 b 465 690 271 579 349 690 b 578 530 566 690 578 616 l 578 129 b 486 29 578 52 553 29 l 486 0 b 642 5 515 1 581 5 b 808 0 703 5 777 1 l 808 29 b 703 129 732 29 703 52 l 703 500 b 654 682 703 595 689 644 b 507 734 623 715 578 734 z "},"ń":{"ha":829,"x_min":0,"x_max":0,"o":"m 574 1129 b 543 1139 565 1136 555 1139 b 490 1108 526 1139 507 1131 b 339 844 449 1054 425 979 l 354 832 b 574 1043 464 949 531 989 b 593 1090 587 1060 593 1076 b 574 1129 593 1106 585 1120 z m 507 734 b 271 567 412 734 319 692 l 271 730 b 126 711 231 717 180 711 b 40 715 98 711 69 713 l 40 686 b 146 564 121 686 146 647 l 146 129 b 40 29 146 52 117 29 l 40 0 b 207 5 72 1 146 5 b 363 0 268 5 334 1 l 363 29 b 271 129 296 29 271 52 l 271 437 b 465 690 271 579 349 690 b 578 530 566 690 578 616 l 578 129 b 486 29 578 52 553 29 l 486 0 b 642 5 515 1 581 5 b 808 0 703 5 777 1 l 808 29 b 703 129 732 29 703 52 l 703 500 b 654 682 703 595 689 644 b 507 734 623 715 578 734 z "},"ŉ":{"ha":829,"x_min":0,"x_max":0,"o":"m 44 1055 b -45 966 -5 1055 -45 1018 b 44 878 -45 911 -5 878 b 96 896 64 878 81 885 b 100 867 98 888 100 879 b -6 730 100 812 51 754 l 7 705 b 150 920 105 751 150 829 b 126 1011 150 942 146 981 b 44 1055 109 1038 84 1055 z m 507 734 b 271 567 412 734 319 692 l 271 730 b 126 711 231 717 180 711 b 40 715 98 711 69 713 l 40 686 b 146 564 121 686 146 647 l 146 129 b 40 29 146 52 117 29 l 40 0 b 207 5 72 1 146 5 b 363 0 268 5 334 1 l 363 29 b 271 129 296 29 271 52 l 271 437 b 465 690 271 579 349 690 b 578 530 566 690 578 616 l 578 129 b 486 29 578 52 553 29 l 486 0 b 642 5 515 1 581 5 b 808 0 703 5 777 1 l 808 29 b 703 129 732 29 703 52 l 703 500 b 654 682 703 595 689 644 b 507 734 623 715 578 734 z "},"ň":{"ha":829,"x_min":0,"x_max":0,"o":"m 645 1114 b 439 975 567 1079 486 1025 b 178 1114 381 1025 278 1079 l 167 1095 b 399 856 274 1042 361 949 l 424 856 b 656 1095 461 949 549 1042 z m 507 734 b 271 567 412 734 319 692 l 271 730 b 126 711 231 717 180 711 b 40 715 98 711 69 713 l 40 686 b 146 564 121 686 146 647 l 146 129 b 40 29 146 52 117 29 l 40 0 b 207 5 72 1 146 5 b 363 0 268 5 334 1 l 363 29 b 271 129 296 29 271 52 l 271 437 b 465 690 271 579 349 690 b 578 530 566 690 578 616 l 578 129 b 486 29 578 52 553 29 l 486 0 b 642 5 515 1 581 5 b 808 0 703 5 777 1 l 808 29 b 703 129 732 29 703 52 l 703 500 b 654 682 703 595 689 644 b 507 734 623 715 578 734 z "},"ņ":{"ha":829,"x_min":0,"x_max":0,"o":"m 507 734 b 271 567 412 734 319 692 l 271 730 b 126 711 231 717 180 711 b 40 715 98 711 69 713 l 40 686 b 146 564 121 686 146 647 l 146 129 b 40 29 146 52 117 29 l 40 0 b 207 5 72 1 146 5 b 363 0 268 5 334 1 l 363 29 b 271 129 296 29 271 52 l 271 437 b 465 690 271 579 349 690 b 578 530 566 690 578 616 l 578 129 b 486 29 578 52 553 29 l 486 0 b 642 5 515 1 581 5 b 808 0 703 5 777 1 l 808 29 b 703 129 732 29 703 52 l 703 500 b 654 682 703 595 689 644 b 507 734 623 715 578 734 z m 429 -96 b 351 -170 386 -96 351 -127 b 424 -244 351 -218 383 -244 b 482 -222 447 -244 468 -235 b 396 -310 484 -267 439 -297 l 406 -335 b 519 -193 494 -302 519 -260 b 429 -96 519 -139 484 -96 z "},"ŋ":{"ha":804,"x_min":0,"x_max":0,"o":"m 507 733 b 271 567 412 733 319 692 l 271 730 b 126 711 231 717 180 711 b 40 715 98 711 69 713 l 40 686 b 146 564 121 686 146 647 l 146 129 b 40 29 146 52 117 29 l 40 0 b 207 5 72 1 146 5 b 363 0 268 5 334 1 l 363 29 b 271 129 296 29 271 52 l 271 437 b 465 689 271 579 349 689 b 578 529 566 689 578 615 l 578 -90 b 571 -161 578 -118 575 -142 b 550 -205 567 -179 559 -195 b 473 -240 533 -227 509 -236 b 496 -184 492 -221 496 -199 b 433 -122 496 -150 471 -122 b 368 -187 393 -122 368 -150 b 461 -261 368 -227 397 -261 b 629 -176 519 -261 585 -233 b 703 160 692 -97 703 32 l 703 498 b 654 681 703 593 689 643 b 507 733 623 714 578 733 z "},"ñ":{"ha":829,"x_min":0,"x_max":0,"o":"m 323 1067 b 157 924 252 1067 186 1026 l 177 914 b 284 989 209 966 245 989 b 495 896 364 989 393 896 b 659 1039 564 896 630 936 l 640 1048 b 532 975 608 996 572 975 b 323 1067 452 975 422 1067 z m 507 734 b 271 567 412 734 319 692 l 271 730 b 126 711 231 717 180 711 b 40 715 98 711 69 713 l 40 686 b 146 564 121 686 146 647 l 146 129 b 40 29 146 52 117 29 l 40 0 b 207 5 72 1 146 5 b 363 0 268 5 334 1 l 363 29 b 271 129 296 29 271 52 l 271 437 b 465 690 271 579 349 690 b 578 530 566 690 578 616 l 578 129 b 486 29 578 52 553 29 l 486 0 b 642 5 515 1 581 5 b 808 0 703 5 777 1 l 808 29 b 703 129 732 29 703 52 l 703 500 b 654 682 703 595 689 644 b 507 734 623 715 578 734 z "},"o":{"ha":761,"x_min":0,"x_max":0,"o":"m 380 734 b 65 357 204 734 65 624 b 380 -20 65 90 204 -20 b 696 357 557 -20 696 90 b 380 734 696 624 557 734 z m 380 707 b 561 357 486 707 561 606 b 380 8 561 109 486 8 b 200 357 275 8 200 109 b 380 707 200 606 275 707 z "},"ó":{"ha":761,"x_min":0,"x_max":0,"o":"m 533 1129 b 503 1139 524 1136 514 1139 b 450 1108 486 1139 467 1131 b 298 844 408 1054 385 979 l 313 832 b 533 1043 423 949 490 989 b 552 1090 546 1060 552 1076 b 533 1129 552 1106 545 1120 z m 380 734 b 65 357 204 734 65 624 b 380 -20 65 90 204 -20 b 696 357 557 -20 696 90 b 380 734 696 624 557 734 z m 380 707 b 561 357 486 707 561 606 b 380 8 561 109 486 8 b 200 357 275 8 200 109 b 380 707 200 606 275 707 z "},"ŏ":{"ha":761,"x_min":0,"x_max":0,"o":"m 608 1095 b 383 961 571 1032 503 961 b 158 1095 264 961 196 1032 l 135 1082 b 383 879 174 989 256 879 b 632 1082 511 879 593 989 z m 380 734 b 65 357 204 734 65 624 b 380 -20 65 90 204 -20 b 696 357 557 -20 696 90 b 380 734 696 624 557 734 z m 380 707 b 561 357 486 707 561 606 b 380 8 561 109 486 8 b 200 357 275 8 200 109 b 380 707 200 606 275 707 z "},"ô":{"ha":761,"x_min":0,"x_max":0,"o":"m 372 1114 b 140 875 334 1021 247 928 l 151 856 b 357 994 229 890 309 945 b 618 856 415 945 517 890 l 629 875 b 397 1114 522 928 434 1021 z m 380 734 b 65 357 204 734 65 624 b 380 -20 65 90 204 -20 b 696 357 557 -20 696 90 b 380 734 696 624 557 734 z m 380 707 b 561 357 486 707 561 606 b 380 8 561 109 486 8 b 200 357 275 8 200 109 b 380 707 200 606 275 707 z "},"ö":{"ha":761,"x_min":0,"x_max":0,"o":"m 239 1032 b 158 951 195 1032 158 994 b 239 871 158 907 195 871 b 319 951 282 871 319 907 b 239 1032 319 994 282 1032 z m 533 1032 b 453 951 489 1032 453 994 b 533 871 453 907 489 871 b 614 951 576 871 614 907 b 533 1032 614 994 576 1032 z m 380 734 b 65 357 204 734 65 624 b 380 -20 65 90 204 -20 b 696 357 557 -20 696 90 b 380 734 696 624 557 734 z m 380 707 b 561 357 486 707 561 606 b 380 8 561 109 486 8 b 200 357 275 8 200 109 b 380 707 200 606 275 707 z "},"ò":{"ha":761,"x_min":0,"x_max":0,"o":"m 214 1129 b 195 1090 202 1120 195 1106 b 214 1043 195 1076 201 1060 b 433 832 256 989 323 949 l 448 844 b 297 1108 362 979 338 1054 b 243 1139 280 1131 261 1139 b 214 1129 233 1139 222 1136 z m 380 734 b 65 357 204 734 65 624 b 380 -20 65 90 204 -20 b 696 357 557 -20 696 90 b 380 734 696 624 557 734 z m 380 707 b 561 357 486 707 561 606 b 380 8 561 109 486 8 b 200 357 275 8 200 109 b 380 707 200 606 275 707 z "},"ő":{"ha":761,"x_min":0,"x_max":0,"o":"m 435 1129 b 406 1139 427 1136 416 1139 b 352 1108 388 1139 369 1131 b 201 844 311 1054 287 979 l 216 832 b 435 1043 326 949 393 989 b 454 1090 448 1060 454 1076 b 435 1129 454 1106 447 1120 z m 683 1129 b 652 1139 674 1136 664 1139 b 600 1108 635 1139 616 1131 b 448 844 558 1054 534 979 l 463 832 b 683 1043 573 949 640 989 b 702 1090 696 1060 702 1076 b 683 1129 702 1106 694 1120 z m 380 734 b 65 357 204 734 65 624 b 380 -20 65 90 204 -20 b 696 357 557 -20 696 90 b 380 734 696 624 557 734 z m 380 707 b 561 357 486 707 561 606 b 380 8 561 109 486 8 b 200 357 275 8 200 109 b 380 707 200 606 275 707 z "},"ō":{"ha":761,"x_min":0,"x_max":0,"o":"m 597 954 l 597 989 l 163 989 l 163 954 z m 380 734 b 65 357 204 734 65 624 b 380 -20 65 90 204 -20 b 696 357 557 -20 696 90 b 380 734 696 624 557 734 z m 380 707 b 561 357 486 707 561 606 b 380 8 561 109 486 8 b 200 357 275 8 200 109 b 380 707 200 606 275 707 z "},"ø":{"ha":760,"x_min":0,"x_max":0,"o":"m 701 798 l 675 815 l 576 671 b 380 734 523 715 455 734 b 65 357 204 734 65 624 b 161 64 65 220 102 125 l 61 -82 l 90 -102 l 187 41 b 380 -20 241 -1 307 -20 b 696 357 557 -20 696 90 b 601 649 696 493 660 589 z m 380 707 b 520 606 439 707 488 675 l 228 143 b 200 357 210 196 200 267 b 380 707 200 606 275 707 z m 380 8 b 243 104 323 8 275 37 l 534 568 b 561 357 551 515 561 445 b 380 8 561 109 486 8 z "},"õ":{"ha":761,"x_min":0,"x_max":0,"o":"m 282 1067 b 117 924 211 1067 146 1026 l 136 914 b 243 989 168 966 204 989 b 454 896 323 989 353 896 b 618 1039 524 896 589 936 l 599 1048 b 492 975 567 996 531 975 b 282 1067 411 975 382 1067 z m 380 734 b 65 357 204 734 65 624 b 380 -20 65 90 204 -20 b 696 357 557 -20 696 90 b 380 734 696 624 557 734 z m 380 707 b 561 357 486 707 561 606 b 380 8 561 109 486 8 b 200 357 275 8 200 109 b 380 707 200 606 275 707 z "},"œ":{"ha":1160,"x_min":0,"x_max":0,"o":"m 1072 178 b 882 39 1026 74 960 39 b 669 340 775 39 669 150 b 674 429 669 371 671 403 l 1095 429 b 848 734 1095 639 1003 734 b 606 570 739 734 654 675 b 368 733 559 684 470 733 b 66 357 200 733 66 624 b 368 -20 66 90 200 -20 b 604 138 469 -20 555 28 b 854 -20 650 40 736 -20 b 1100 167 985 -20 1071 74 z m 843 708 b 961 456 926 708 965 591 l 672 456 b 843 708 688 631 760 708 z m 368 8 b 201 357 271 8 201 109 b 368 705 201 606 271 705 b 534 357 465 705 534 606 b 368 8 534 109 465 8 z "},"p":{"ha":807,"x_min":0,"x_max":0,"o":"m 484 734 b 261 584 385 734 303 680 l 261 730 b 117 711 221 717 171 711 b 31 715 89 711 60 713 l 31 686 b 136 564 111 686 136 647 l 136 -136 b 45 -222 136 -203 111 -222 l 45 -252 b 195 -245 74 -250 136 -245 b 395 -252 275 -245 354 -250 l 395 -222 b 261 -122 311 -222 261 -201 l 261 56 b 424 -20 292 12 351 -20 b 742 390 650 -20 742 189 b 484 734 742 614 629 734 z m 408 12 b 261 102 335 12 287 50 l 261 517 b 446 693 291 635 365 693 b 607 371 551 693 607 591 b 408 12 607 174 562 12 z "},"þ":{"ha":777,"x_min":0,"x_max":0,"o":"m 453 734 b 231 584 355 734 273 680 l 231 1088 b 86 1068 191 1074 140 1068 b 0 1072 58 1068 29 1069 l 0 1043 b 106 921 81 1043 106 1004 l 106 -136 b 14 -222 106 -203 81 -222 l 14 -252 b 164 -245 43 -250 106 -245 b 364 -252 244 -245 323 -250 l 364 -222 b 231 -122 281 -222 231 -201 l 231 56 b 393 -20 262 12 321 -20 b 711 390 619 -20 711 189 b 453 734 711 614 599 734 z m 378 12 b 231 102 304 12 256 50 l 231 517 b 415 693 260 635 334 693 b 576 371 521 693 576 591 b 378 12 576 174 532 12 z "},"q":{"ha":782,"x_min":0,"x_max":0,"o":"m 671 647 b 681 728 671 675 673 703 l 657 737 b 558 633 623 703 591 668 b 363 734 517 705 456 734 b 65 357 196 734 65 610 b 351 -20 65 103 192 -20 b 546 117 437 -20 509 29 l 546 -122 b 412 -222 546 -201 496 -222 l 412 -252 b 612 -245 453 -250 532 -245 b 762 -252 671 -245 733 -250 l 762 -222 b 671 -136 696 -222 671 -203 z m 392 22 b 200 357 268 22 200 134 b 374 703 200 591 264 703 b 546 610 448 703 509 673 l 546 183 b 392 22 521 77 457 22 z "},"r":{"ha":618,"x_min":0,"x_max":0,"o":"m 472 734 b 271 557 375 734 300 637 l 271 730 b 126 711 231 717 180 711 b 40 715 98 711 69 713 l 40 686 b 146 564 121 686 146 647 l 146 129 b 40 29 146 52 117 29 l 40 0 b 204 5 72 1 140 5 b 418 0 290 5 375 1 l 418 29 b 271 143 326 29 271 53 l 271 437 b 464 699 271 541 347 699 b 493 685 476 699 486 694 b 446 610 468 669 446 644 b 519 538 446 564 481 538 b 599 625 568 538 599 578 b 472 734 599 685 547 734 z "},"ŕ":{"ha":618,"x_min":0,"x_max":0,"o":"m 476 1129 b 446 1139 467 1136 457 1139 b 393 1108 429 1139 410 1131 b 241 844 351 1054 328 979 l 256 832 b 476 1043 366 949 433 989 b 495 1090 489 1060 495 1076 b 476 1129 495 1106 488 1120 z m 472 734 b 271 557 375 734 300 637 l 271 730 b 126 711 231 717 180 711 b 40 715 98 711 69 713 l 40 686 b 146 564 121 686 146 647 l 146 129 b 40 29 146 52 117 29 l 40 0 b 204 5 72 1 140 5 b 418 0 290 5 375 1 l 418 29 b 271 143 326 29 271 53 l 271 437 b 464 699 271 541 347 699 b 493 685 476 699 486 694 b 446 610 468 669 446 644 b 519 538 446 564 481 538 b 599 625 568 538 599 578 b 472 734 599 685 547 734 z "},"ř":{"ha":618,"x_min":0,"x_max":0,"o":"m 547 1114 b 342 975 469 1079 389 1025 b 81 1114 283 1025 180 1079 l 69 1095 b 301 856 176 1042 264 949 l 326 856 b 558 1095 363 949 451 1042 z m 472 734 b 271 557 375 734 300 637 l 271 730 b 126 711 231 717 180 711 b 40 715 98 711 69 713 l 40 686 b 146 564 121 686 146 647 l 146 129 b 40 29 146 52 117 29 l 40 0 b 204 5 72 1 140 5 b 418 0 290 5 375 1 l 418 29 b 271 143 326 29 271 53 l 271 437 b 464 699 271 541 347 699 b 493 685 476 699 486 694 b 446 610 468 669 446 644 b 519 538 446 564 481 538 b 599 625 568 538 599 578 b 472 734 599 685 547 734 z "},"ŗ":{"ha":618,"x_min":0,"x_max":0,"o":"m 472 734 b 271 557 375 734 300 637 l 271 730 b 126 711 231 717 180 711 b 40 715 98 711 69 713 l 40 686 b 146 564 121 686 146 647 l 146 129 b 40 29 146 52 117 29 l 40 0 b 204 5 72 1 140 5 b 418 0 290 5 375 1 l 418 29 b 271 143 326 29 271 53 l 271 437 b 464 699 271 541 347 699 b 493 685 476 699 486 694 b 446 610 468 669 446 644 b 519 538 446 564 481 538 b 599 625 568 538 599 578 b 472 734 599 685 547 734 z m 225 -96 b 147 -170 182 -96 147 -127 b 220 -244 147 -218 179 -244 b 278 -222 243 -244 264 -235 b 192 -310 279 -267 235 -297 l 201 -335 b 315 -193 290 -302 315 -260 b 225 -96 315 -139 279 -96 z "},"s":{"ha":619,"x_min":0,"x_max":0,"o":"m 288 734 b 82 555 178 734 82 679 b 273 322 82 440 172 386 b 431 140 364 265 431 221 b 307 8 431 41 363 8 b 114 268 168 8 132 113 l 82 268 b 77 -9 82 127 81 50 l 109 -9 b 137 43 114 25 125 43 b 150 37 141 43 146 41 b 207 0 168 22 187 9 b 317 -20 240 -14 277 -20 b 554 175 443 -20 554 47 b 364 418 554 289 469 350 b 186 602 269 479 186 518 b 300 708 186 671 235 708 b 489 497 425 708 472 600 l 521 497 b 526 733 521 616 522 682 l 494 733 b 463 672 490 692 479 672 b 439 684 456 672 448 676 b 288 734 414 704 361 734 z "},"ś":{"ha":619,"x_min":0,"x_max":0,"o":"m 465 1129 b 435 1139 456 1136 446 1139 b 382 1108 418 1139 399 1131 b 231 844 340 1054 317 979 l 245 832 b 465 1043 355 949 422 989 b 484 1090 478 1060 484 1076 b 465 1129 484 1106 477 1120 z m 288 734 b 82 555 178 734 82 679 b 273 322 82 440 172 386 b 431 140 364 265 431 221 b 307 8 431 41 363 8 b 114 268 168 8 132 113 l 82 268 b 77 -9 82 127 81 50 l 109 -9 b 137 43 114 25 125 43 b 150 37 141 43 146 41 b 207 0 168 22 187 9 b 317 -20 240 -14 277 -20 b 554 175 443 -20 554 47 b 364 418 554 289 469 350 b 186 602 269 479 186 518 b 300 708 186 671 235 708 b 489 497 425 708 472 600 l 521 497 b 526 733 521 616 522 682 l 494 733 b 463 672 490 692 479 672 b 439 684 456 672 448 676 b 288 734 414 704 361 734 z "},"š":{"ha":619,"x_min":0,"x_max":0,"o":"m 536 1114 b 331 975 458 1079 378 1025 b 70 1114 273 1025 170 1079 l 58 1095 b 290 856 165 1042 253 949 l 315 856 b 547 1095 353 949 440 1042 z m 288 734 b 82 555 178 734 82 679 b 273 322 82 440 172 386 b 431 140 364 265 431 221 b 307 8 431 41 363 8 b 114 268 168 8 132 113 l 82 268 b 77 -9 82 127 81 50 l 109 -9 b 137 43 114 25 125 43 b 150 37 141 43 146 41 b 207 0 168 22 187 9 b 317 -20 240 -14 277 -20 b 554 175 443 -20 554 47 b 364 418 554 289 469 350 b 186 602 269 479 186 518 b 300 708 186 671 235 708 b 489 497 425 708 472 600 l 521 497 b 526 733 521 616 522 682 l 494 733 b 463 672 490 692 479 672 b 439 684 456 672 448 676 b 288 734 414 704 361 734 z "},"ş":{"ha":619,"x_min":0,"x_max":0,"o":"m 317 -20 b 554 175 443 -20 554 47 b 364 418 554 289 469 350 b 186 602 269 479 186 518 b 300 708 186 671 235 708 b 489 497 425 708 472 600 l 521 497 b 526 733 521 616 522 682 l 494 733 b 463 672 490 692 479 672 b 439 684 456 672 448 676 b 288 734 414 704 361 734 b 82 555 178 734 82 679 b 273 322 82 440 172 386 b 431 140 364 265 431 221 b 307 8 431 41 363 8 b 114 268 168 8 132 113 l 82 268 b 77 -9 82 127 81 50 l 109 -9 b 137 43 114 25 125 43 b 150 37 141 43 146 41 b 207 0 168 22 187 9 b 267 -16 226 -7 245 -13 l 227 -134 b 296 -123 248 -126 280 -123 b 354 -163 333 -123 354 -136 b 229 -225 354 -212 283 -225 b 176 -221 207 -225 186 -222 l 170 -245 b 286 -261 195 -254 235 -261 b 443 -155 353 -261 443 -233 b 358 -90 443 -114 410 -90 b 276 -100 328 -90 300 -94 l 302 -20 z "},"ŝ":{"ha":619,"x_min":0,"x_max":0,"o":"m 304 1114 b 72 875 267 1021 179 928 l 83 856 b 289 994 161 890 241 945 b 550 856 347 945 450 890 l 561 875 b 329 1114 454 928 366 1021 z m 288 734 b 82 555 178 734 82 679 b 273 322 82 440 172 386 b 431 140 364 265 431 221 b 307 8 431 41 363 8 b 114 268 168 8 132 113 l 82 268 b 77 -9 82 127 81 50 l 109 -9 b 137 43 114 25 125 43 b 150 37 141 43 146 41 b 207 0 168 22 187 9 b 317 -20 240 -14 277 -20 b 554 175 443 -20 554 47 b 364 418 554 289 469 350 b 186 602 269 479 186 518 b 300 708 186 671 235 708 b 489 497 425 708 472 600 l 521 497 b 526 733 521 616 522 682 l 494 733 b 463 672 490 692 479 672 b 439 684 456 672 448 676 b 288 734 414 704 361 734 z "},"ș":{"ha":619,"x_min":0,"x_max":0,"o":"m 288 734 b 82 555 178 734 82 679 b 273 322 82 440 172 386 b 431 140 364 265 431 221 b 307 8 431 41 363 8 b 114 268 168 8 132 113 l 82 268 b 77 -9 82 127 81 50 l 109 -9 b 137 43 114 25 125 43 b 150 37 141 43 146 41 b 207 0 168 22 187 9 b 317 -20 240 -14 277 -20 b 554 175 443 -20 554 47 b 364 418 554 289 469 350 b 186 602 269 479 186 518 b 300 708 186 671 235 708 b 489 497 425 708 472 600 l 521 497 b 526 733 521 616 522 682 l 494 733 b 463 672 490 692 479 672 b 439 684 456 672 448 676 b 288 734 414 704 361 734 z m 307 -96 b 229 -170 264 -96 229 -127 b 302 -244 229 -218 261 -244 b 360 -222 325 -244 346 -235 b 274 -310 361 -267 317 -297 l 283 -335 b 397 -193 372 -302 397 -260 b 307 -96 397 -139 361 -96 z "},"ß":{"ha":811,"x_min":0,"x_max":0,"o":"m 408 1086 b 135 747 248 1086 135 996 l 135 151 b 29 29 135 68 110 29 l 29 0 b 115 4 58 3 87 4 b 260 -16 170 4 220 -1 l 260 867 b 393 1065 260 1039 342 1065 b 529 882 482 1065 529 999 b 401 607 529 762 494 679 b 351 618 383 614 364 618 b 319 591 330 618 319 607 b 347 568 319 576 334 568 b 399 589 364 568 383 579 b 629 216 558 539 629 372 b 490 1 629 54 554 1 b 418 35 454 1 424 18 b 478 107 458 47 478 74 b 404 175 478 150 446 175 b 332 100 358 175 332 144 b 501 -20 332 17 427 -20 b 753 243 633 -20 753 79 b 418 602 753 427 595 561 b 654 888 494 632 654 743 b 408 1086 654 1010 568 1086 z "},"t":{"ha":492,"x_min":0,"x_max":0,"o":"m 264 714 l 264 946 b 139 926 229 933 184 928 l 139 714 l 5 714 l 5 686 l 139 686 l 139 221 b 193 26 139 122 153 68 b 325 -20 224 -4 261 -20 b 505 172 437 -20 486 64 l 478 179 b 353 31 449 71 408 31 b 264 149 297 31 264 61 l 264 686 l 469 686 l 469 714 z "},"ŧ":{"ha":522,"x_min":0,"x_max":0,"o":"m 482 179 b 357 31 453 71 412 31 b 268 149 301 31 268 61 l 268 557 l 473 557 l 473 585 l 268 585 l 268 686 l 473 686 l 473 714 l 268 714 l 268 946 b 143 926 233 933 189 928 l 143 714 l 9 714 l 9 686 l 143 686 l 143 585 l 9 585 l 9 557 l 143 557 l 143 221 b 197 26 143 122 157 68 b 329 -20 228 -4 265 -20 b 509 172 441 -20 490 64 z "},"ť":{"ha":492,"x_min":0,"x_max":0,"o":"m 464 1088 b 381 1072 441 1079 418 1072 b 359 1072 374 1072 367 1072 l 359 1043 b 387 987 382 1043 387 1023 b 359 786 387 962 380 911 l 378 781 b 471 1031 435 900 471 977 b 464 1088 471 1047 468 1078 z m 264 714 l 264 946 b 139 926 229 933 184 928 l 139 714 l 5 714 l 5 686 l 139 686 l 139 221 b 193 26 139 122 153 68 b 325 -20 224 -4 261 -20 b 505 172 437 -20 486 64 l 478 179 b 353 31 449 71 408 31 b 264 149 297 31 264 61 l 264 686 l 469 686 l 469 714 z "},"ţ":{"ha":492,"x_min":0,"x_max":0,"o":"m 366 -90 b 284 -100 336 -90 308 -94 l 311 -20 l 325 -20 b 505 172 437 -20 486 64 l 478 179 b 353 31 449 71 408 31 b 264 149 297 31 264 61 l 264 686 l 469 686 l 469 714 l 264 714 l 264 946 b 139 926 229 933 184 928 l 139 714 l 5 714 l 5 686 l 139 686 l 139 221 b 193 26 139 122 153 68 b 275 -16 215 5 239 -9 l 235 -134 b 304 -123 256 -126 288 -123 b 362 -163 341 -123 362 -136 b 237 -225 362 -212 291 -225 b 184 -221 215 -225 194 -222 l 178 -245 b 294 -261 203 -254 243 -261 b 451 -155 361 -261 451 -233 b 366 -90 451 -114 418 -90 z "},"ț":{"ha":492,"x_min":0,"x_max":0,"o":"m 264 714 l 264 946 b 139 926 229 933 184 928 l 139 714 l 5 714 l 5 686 l 139 686 l 139 221 b 193 26 139 122 153 68 b 325 -20 224 -4 261 -20 b 505 172 437 -20 486 64 l 478 179 b 353 31 449 71 408 31 b 264 149 297 31 264 61 l 264 686 l 469 686 l 469 714 z m 315 -96 b 237 -170 272 -96 237 -127 b 310 -244 237 -218 269 -244 b 368 -222 333 -244 354 -235 b 282 -310 370 -267 325 -297 l 292 -335 b 406 -193 380 -302 406 -260 b 315 -96 406 -139 370 -96 z "},"u":{"ha":807,"x_min":0,"x_max":0,"o":"m 671 730 b 526 711 631 717 581 711 b 440 715 498 711 469 713 l 440 686 b 546 564 521 686 546 647 l 546 277 b 358 25 546 135 467 25 b 253 184 258 25 253 98 l 253 730 b 109 711 212 717 163 711 b 22 715 81 711 52 713 l 22 686 b 127 564 103 686 127 647 l 127 215 b 174 33 127 127 139 71 b 318 -20 205 0 253 -20 b 546 147 407 -20 498 26 l 546 -17 b 690 3 586 -3 636 3 b 777 -1 718 3 747 1 l 777 28 b 671 150 696 28 671 66 z "},"ú":{"ha":807,"x_min":0,"x_max":0,"o":"m 537 1129 b 507 1139 528 1136 518 1139 b 454 1108 490 1139 471 1131 b 302 844 412 1054 389 979 l 317 832 b 537 1043 427 949 494 989 b 556 1090 550 1060 556 1076 b 537 1129 556 1106 549 1120 z m 671 730 b 526 711 631 717 581 711 b 440 715 498 711 469 713 l 440 686 b 546 564 521 686 546 647 l 546 277 b 358 25 546 135 467 25 b 253 184 258 25 253 98 l 253 730 b 109 711 212 717 163 711 b 22 715 81 711 52 713 l 22 686 b 127 564 103 686 127 647 l 127 215 b 174 33 127 127 139 71 b 318 -20 205 0 253 -20 b 546 147 407 -20 498 26 l 546 -17 b 690 3 586 -3 636 3 b 777 -1 718 3 747 1 l 777 28 b 671 150 696 28 671 66 z "},"ŭ":{"ha":807,"x_min":0,"x_max":0,"o":"m 612 1095 b 387 961 575 1032 507 961 b 162 1095 268 961 200 1032 l 139 1082 b 387 879 178 989 260 879 b 636 1082 515 879 597 989 z m 671 730 b 526 711 631 717 581 711 b 440 715 498 711 469 713 l 440 686 b 546 564 521 686 546 647 l 546 277 b 358 25 546 135 467 25 b 253 184 258 25 253 98 l 253 730 b 109 711 212 717 163 711 b 22 715 81 711 52 713 l 22 686 b 127 564 103 686 127 647 l 127 215 b 174 33 127 127 139 71 b 318 -20 205 0 253 -20 b 546 147 407 -20 498 26 l 546 -17 b 690 3 586 -3 636 3 b 777 -1 718 3 747 1 l 777 28 b 671 150 696 28 671 66 z "},"û":{"ha":807,"x_min":0,"x_max":0,"o":"m 376 1114 b 144 875 338 1021 251 928 l 155 856 b 361 994 233 890 313 945 b 622 856 419 945 522 890 l 633 875 b 401 1114 526 928 438 1021 z m 671 730 b 526 711 631 717 581 711 b 440 715 498 711 469 713 l 440 686 b 546 564 521 686 546 647 l 546 277 b 358 25 546 135 467 25 b 253 184 258 25 253 98 l 253 730 b 109 711 212 717 163 711 b 22 715 81 711 52 713 l 22 686 b 127 564 103 686 127 647 l 127 215 b 174 33 127 127 139 71 b 318 -20 205 0 253 -20 b 546 147 407 -20 498 26 l 546 -17 b 690 3 586 -3 636 3 b 777 -1 718 3 747 1 l 777 28 b 671 150 696 28 671 66 z "},"ü":{"ha":807,"x_min":0,"x_max":0,"o":"m 243 1032 b 162 951 199 1032 162 994 b 243 871 162 907 199 871 b 323 951 286 871 323 907 b 243 1032 323 994 286 1032 z m 537 1032 b 457 951 493 1032 457 994 b 537 871 457 907 493 871 b 618 951 581 871 618 907 b 537 1032 618 994 581 1032 z m 671 730 b 526 711 631 717 581 711 b 440 715 498 711 469 713 l 440 686 b 546 564 521 686 546 647 l 546 277 b 358 25 546 135 467 25 b 253 184 258 25 253 98 l 253 730 b 109 711 212 717 163 711 b 22 715 81 711 52 713 l 22 686 b 127 564 103 686 127 647 l 127 215 b 174 33 127 127 139 71 b 318 -20 205 0 253 -20 b 546 147 407 -20 498 26 l 546 -17 b 690 3 586 -3 636 3 b 777 -1 718 3 747 1 l 777 28 b 671 150 696 28 671 66 z "},"ù":{"ha":807,"x_min":0,"x_max":0,"o":"m 218 1129 b 199 1090 206 1120 199 1106 b 218 1043 199 1076 205 1060 b 437 832 260 989 327 949 l 452 844 b 301 1108 366 979 342 1054 b 248 1139 284 1131 265 1139 b 218 1129 237 1139 227 1136 z m 671 730 b 526 711 631 717 581 711 b 440 715 498 711 469 713 l 440 686 b 546 564 521 686 546 647 l 546 277 b 358 25 546 135 467 25 b 253 184 258 25 253 98 l 253 730 b 109 711 212 717 163 711 b 22 715 81 711 52 713 l 22 686 b 127 564 103 686 127 647 l 127 215 b 174 33 127 127 139 71 b 318 -20 205 0 253 -20 b 546 147 407 -20 498 26 l 546 -17 b 690 3 586 -3 636 3 b 777 -1 718 3 747 1 l 777 28 b 671 150 696 28 671 66 z "},"ű":{"ha":807,"x_min":0,"x_max":0,"o":"m 439 1129 b 410 1139 431 1136 420 1139 b 356 1108 392 1139 373 1131 b 205 844 315 1054 291 979 l 220 832 b 439 1043 330 949 397 989 b 458 1090 452 1060 458 1076 b 439 1129 458 1106 451 1120 z m 687 1129 b 656 1139 678 1136 668 1139 b 604 1108 640 1139 621 1131 b 452 844 562 1054 538 979 l 467 832 b 687 1043 577 949 644 989 b 706 1090 700 1060 706 1076 b 687 1129 706 1106 699 1120 z m 671 730 b 526 711 631 717 581 711 b 440 715 498 711 469 713 l 440 686 b 546 564 521 686 546 647 l 546 277 b 358 25 546 135 467 25 b 253 184 258 25 253 98 l 253 730 b 109 711 212 717 163 711 b 22 715 81 711 52 713 l 22 686 b 127 564 103 686 127 647 l 127 215 b 174 33 127 127 139 71 b 318 -20 205 0 253 -20 b 546 147 407 -20 498 26 l 546 -17 b 690 3 586 -3 636 3 b 777 -1 718 3 747 1 l 777 28 b 671 150 696 28 671 66 z "},"ū":{"ha":807,"x_min":0,"x_max":0,"o":"m 601 954 l 601 989 l 168 989 l 168 954 z m 671 730 b 526 711 631 717 581 711 b 440 715 498 711 469 713 l 440 686 b 546 564 521 686 546 647 l 546 277 b 358 25 546 135 467 25 b 253 184 258 25 253 98 l 253 730 b 109 711 212 717 163 711 b 22 715 81 711 52 713 l 22 686 b 127 564 103 686 127 647 l 127 215 b 174 33 127 127 139 71 b 318 -20 205 0 253 -20 b 546 147 407 -20 498 26 l 546 -17 b 690 3 586 -3 636 3 b 777 -1 718 3 747 1 l 777 28 b 671 150 696 28 671 66 z "},"ų":{"ha":807,"x_min":0,"x_max":0,"o":"m 768 -149 b 684 -195 750 -174 718 -195 b 624 -134 646 -195 624 -170 b 745 -3 624 -89 654 -41 b 753 1 747 -2 750 -1 l 777 -1 l 777 28 b 671 150 696 28 671 66 l 671 730 b 526 711 631 717 581 711 b 440 715 498 711 469 713 l 440 686 b 546 564 521 686 546 647 l 546 277 b 358 25 546 135 467 25 b 253 184 258 25 253 98 l 253 730 b 109 711 212 717 163 711 b 22 715 81 711 52 713 l 22 686 b 127 564 103 686 127 647 l 127 215 b 174 33 127 127 139 71 b 318 -20 205 0 253 -20 b 546 147 407 -20 498 26 l 546 -17 b 690 3 586 -3 636 3 l 709 3 b 522 -171 590 -37 522 -99 b 632 -261 522 -225 566 -261 b 789 -167 693 -261 746 -232 z "},"ů":{"ha":807,"x_min":0,"x_max":0,"o":"m 389 1099 b 256 972 318 1099 256 1050 b 389 844 256 893 318 844 b 524 972 461 844 524 893 b 389 1099 524 1050 461 1099 z m 389 1069 b 485 971 435 1069 485 1035 b 389 873 485 905 435 873 b 294 971 345 873 294 905 b 389 1069 294 1035 345 1069 z m 671 730 b 526 711 631 717 581 711 b 440 715 498 711 469 713 l 440 686 b 546 564 521 686 546 647 l 546 277 b 358 25 546 135 467 25 b 253 184 258 25 253 98 l 253 730 b 109 711 212 717 163 711 b 22 715 81 711 52 713 l 22 686 b 127 564 103 686 127 647 l 127 215 b 174 33 127 127 139 71 b 318 -20 205 0 253 -20 b 546 147 407 -20 498 26 l 546 -17 b 690 3 586 -3 636 3 b 777 -1 718 3 747 1 l 777 28 b 671 150 696 28 671 66 z "},"ũ":{"ha":807,"x_min":0,"x_max":0,"o":"m 286 1067 b 121 924 215 1067 150 1026 l 140 914 b 248 989 172 966 208 989 b 458 896 328 989 357 896 b 623 1039 528 896 593 936 l 603 1048 b 496 975 571 996 535 975 b 286 1067 415 975 386 1067 z m 671 730 b 526 711 631 717 581 711 b 440 715 498 711 469 713 l 440 686 b 546 564 521 686 546 647 l 546 277 b 358 25 546 135 467 25 b 253 184 258 25 253 98 l 253 730 b 109 711 212 717 163 711 b 22 715 81 711 52 713 l 22 686 b 127 564 103 686 127 647 l 127 215 b 174 33 127 127 139 71 b 318 -20 205 0 253 -20 b 546 147 407 -20 498 26 l 546 -17 b 690 3 586 -3 636 3 b 777 -1 718 3 747 1 l 777 28 b 671 150 696 28 671 66 z "},"v":{"ha":679,"x_min":0,"x_max":0,"o":"m 570 711 b 453 715 526 711 501 713 l 453 688 b 555 621 524 683 555 665 b 541 557 555 604 551 583 l 387 155 l 216 578 b 201 639 206 604 201 623 b 300 686 201 686 247 686 l 300 715 b 119 710 244 711 176 710 b -3 715 72 710 33 713 l -3 686 b 78 608 17 686 47 681 l 334 -7 l 357 -7 l 585 590 b 675 688 611 661 640 684 l 675 715 b 570 711 646 713 612 711 z "},"w":{"ha":1069,"x_min":0,"x_max":0,"o":"m 960 711 b 843 715 917 711 892 713 l 843 688 b 946 620 915 683 946 665 b 933 557 946 603 941 583 l 803 159 l 590 721 l 558 721 l 359 170 l 220 570 b 205 635 210 598 205 619 b 302 686 205 687 250 686 l 302 715 b 122 707 248 711 179 707 b 0 715 75 707 36 710 l 0 686 b 81 608 20 686 52 682 l 309 -7 l 332 -7 l 530 552 l 750 -7 l 774 -7 l 975 590 b 1065 688 999 663 1031 684 l 1065 715 b 960 711 1036 713 1003 711 z "},"ẃ":{"ha":1069,"x_min":0,"x_max":0,"o":"m 720 1043 b 739 1090 732 1060 739 1076 b 720 1129 739 1106 731 1120 b 689 1139 711 1136 701 1139 b 636 1108 672 1139 653 1131 b 485 844 595 1054 571 979 l 500 832 b 720 1043 610 949 677 989 z m 960 711 b 843 715 917 711 892 713 l 843 688 b 946 620 915 683 946 665 b 933 557 946 603 941 583 l 803 159 l 590 721 l 558 721 l 359 170 l 220 570 b 205 635 210 598 205 619 b 302 686 205 687 250 686 l 302 715 b 122 707 248 711 179 707 b 0 715 75 707 36 710 l 0 686 b 81 608 20 686 52 682 l 309 -7 l 332 -7 l 530 552 l 750 -7 l 774 -7 l 975 590 b 1065 688 999 663 1031 684 l 1065 715 b 960 711 1036 713 1003 711 z "},"ŵ":{"ha":1069,"x_min":0,"x_max":0,"o":"m 543 994 b 804 856 602 945 704 890 l 815 875 b 583 1114 708 928 621 1021 l 558 1114 b 326 875 521 1021 433 928 l 338 856 b 543 994 415 890 496 945 z m 960 711 b 843 715 917 711 892 713 l 843 688 b 946 620 915 683 946 665 b 933 557 946 603 941 583 l 803 159 l 590 721 l 558 721 l 359 170 l 220 570 b 205 635 210 598 205 619 b 302 686 205 687 250 686 l 302 715 b 122 707 248 711 179 707 b 0 715 75 707 36 710 l 0 686 b 81 608 20 686 52 682 l 309 -7 l 332 -7 l 530 552 l 750 -7 l 774 -7 l 975 590 b 1065 688 999 663 1031 684 l 1065 715 b 960 711 1036 713 1003 711 z "},"ẅ":{"ha":1069,"x_min":0,"x_max":0,"o":"m 425 871 b 506 951 469 871 506 907 b 425 1032 506 994 469 1032 b 345 951 381 1032 345 994 b 425 871 345 907 381 871 z m 720 871 b 800 951 763 871 800 907 b 720 1032 800 994 763 1032 b 640 951 675 1032 640 994 b 720 871 640 907 675 871 z m 960 711 b 843 715 917 711 892 713 l 843 688 b 946 620 915 683 946 665 b 933 557 946 603 941 583 l 803 159 l 590 721 l 558 721 l 359 170 l 220 570 b 205 635 210 598 205 619 b 302 686 205 687 250 686 l 302 715 b 122 707 248 711 179 707 b 0 715 75 707 36 710 l 0 686 b 81 608 20 686 52 682 l 309 -7 l 332 -7 l 530 552 l 750 -7 l 774 -7 l 975 590 b 1065 688 999 663 1031 684 l 1065 715 b 960 711 1036 713 1003 711 z "},"ẁ":{"ha":1069,"x_min":0,"x_max":0,"o":"m 635 844 b 484 1108 549 979 525 1054 b 430 1139 467 1131 448 1139 b 400 1129 419 1139 409 1136 b 381 1090 389 1120 381 1106 b 400 1043 381 1076 387 1060 b 619 832 443 989 509 949 z m 960 711 b 843 715 917 711 892 713 l 843 688 b 946 620 915 683 946 665 b 933 557 946 603 941 583 l 803 159 l 590 721 l 558 721 l 359 170 l 220 570 b 205 635 210 598 205 619 b 302 686 205 687 250 686 l 302 715 b 122 707 248 711 179 707 b 0 715 75 707 36 710 l 0 686 b 81 608 20 686 52 682 l 309 -7 l 332 -7 l 530 552 l 750 -7 l 774 -7 l 975 590 b 1065 688 999 663 1031 684 l 1065 715 b 960 711 1036 713 1003 711 z "},"x":{"ha":721,"x_min":0,"x_max":0,"o":"m 412 396 l 553 590 b 675 688 597 652 640 684 l 675 715 b 570 711 646 713 612 711 b 453 715 526 711 501 713 l 453 688 b 532 644 508 684 532 670 b 490 557 532 623 517 595 l 394 422 l 245 639 b 240 655 241 645 240 650 b 294 686 240 675 266 686 l 294 715 b 131 710 265 714 189 710 b 32 715 94 710 50 714 l 32 686 b 118 616 65 682 81 671 l 311 336 l 151 125 b 29 28 98 56 64 32 l 29 0 b 135 4 58 3 92 4 b 293 0 178 4 244 3 l 293 28 b 191 92 230 32 191 52 b 229 175 191 113 203 141 l 331 307 l 489 77 b 495 60 493 71 495 65 b 440 29 495 41 469 29 l 440 0 b 604 5 469 1 546 5 b 703 0 640 5 685 1 l 703 29 b 616 98 667 36 648 53 z "},"y":{"ha":700,"x_min":0,"x_max":0,"o":"m 581 711 b 464 715 538 711 513 713 l 464 688 b 568 621 534 683 568 665 b 553 557 568 604 562 583 l 399 155 l 232 570 b 214 638 220 600 214 622 b 311 686 214 686 259 686 l 311 715 b 131 707 256 711 187 707 b -5 715 78 707 35 710 l -5 686 b 89 608 17 686 53 681 l 341 2 l 292 -125 b 174 -233 262 -201 224 -233 b 165 -232 171 -233 168 -233 b 203 -170 184 -221 203 -201 b 132 -104 203 -126 171 -104 b 58 -178 86 -104 58 -134 b 153 -261 58 -232 100 -261 b 261 -225 186 -261 231 -253 b 321 -127 283 -205 302 -175 l 368 -7 l 596 590 b 686 688 623 661 652 684 l 686 715 b 581 711 657 713 624 711 z "},"ý":{"ha":700,"x_min":0,"x_max":0,"o":"m 501 1043 b 520 1090 514 1060 520 1076 b 501 1129 520 1106 513 1120 b 471 1139 492 1136 482 1139 b 418 1108 454 1139 435 1131 b 267 844 376 1054 353 979 l 281 832 b 501 1043 391 949 458 989 z m 581 711 b 464 715 538 711 513 713 l 464 688 b 568 621 534 683 568 665 b 553 557 568 604 562 583 l 399 155 l 232 570 b 214 638 220 600 214 622 b 311 686 214 686 259 686 l 311 715 b 131 707 256 711 187 707 b -5 715 78 707 35 710 l -5 686 b 89 608 17 686 53 681 l 341 2 l 292 -125 b 174 -233 262 -201 224 -233 b 165 -232 171 -233 168 -233 b 203 -170 184 -221 203 -201 b 132 -104 203 -126 171 -104 b 58 -178 86 -104 58 -134 b 153 -261 58 -232 100 -261 b 261 -225 186 -261 231 -253 b 321 -127 283 -205 302 -175 l 368 -7 l 596 590 b 686 688 623 661 652 684 l 686 715 b 581 711 657 713 624 711 z "},"ŷ":{"ha":700,"x_min":0,"x_max":0,"o":"m 325 994 b 586 856 383 945 486 890 l 597 875 b 365 1114 490 928 402 1021 l 340 1114 b 108 875 302 1021 215 928 l 119 856 b 325 994 197 890 277 945 z m 581 711 b 464 715 538 711 513 713 l 464 688 b 568 621 534 683 568 665 b 553 557 568 604 562 583 l 399 155 l 232 570 b 214 638 220 600 214 622 b 311 686 214 686 259 686 l 311 715 b 131 707 256 711 187 707 b -5 715 78 707 35 710 l -5 686 b 89 608 17 686 53 681 l 341 2 l 292 -125 b 174 -233 262 -201 224 -233 b 165 -232 171 -233 168 -233 b 203 -170 184 -221 203 -201 b 132 -104 203 -126 171 -104 b 58 -178 86 -104 58 -134 b 153 -261 58 -232 100 -261 b 261 -225 186 -261 231 -253 b 321 -127 283 -205 302 -175 l 368 -7 l 596 590 b 686 688 623 661 652 684 l 686 715 b 581 711 657 713 624 711 z "},"ÿ":{"ha":700,"x_min":0,"x_max":0,"o":"m 207 871 b 288 951 250 871 288 907 b 207 1032 288 994 250 1032 b 126 951 163 1032 126 994 b 207 871 126 907 163 871 z m 501 871 b 582 951 545 871 582 907 b 501 1032 582 994 545 1032 b 421 951 457 1032 421 994 b 501 871 421 907 457 871 z m 581 711 b 464 715 538 711 513 713 l 464 688 b 568 621 534 683 568 665 b 553 557 568 604 562 583 l 399 155 l 232 570 b 214 638 220 600 214 622 b 311 686 214 686 259 686 l 311 715 b 131 707 256 711 187 707 b -5 715 78 707 35 710 l -5 686 b 89 608 17 686 53 681 l 341 2 l 292 -125 b 174 -233 262 -201 224 -233 b 165 -232 171 -233 168 -233 b 203 -170 184 -221 203 -201 b 132 -104 203 -126 171 -104 b 58 -178 86 -104 58 -134 b 153 -261 58 -232 100 -261 b 261 -225 186 -261 231 -253 b 321 -127 283 -205 302 -175 l 368 -7 l 596 590 b 686 688 623 661 652 684 l 686 715 b 581 711 657 713 624 711 z "},"ỳ":{"ha":700,"x_min":0,"x_max":0,"o":"m 416 844 b 265 1108 330 979 307 1054 b 212 1139 248 1131 229 1139 b 182 1129 201 1139 191 1136 b 163 1090 170 1120 163 1106 b 182 1043 163 1076 169 1060 b 401 832 224 989 291 949 z m 581 711 b 464 715 538 711 513 713 l 464 688 b 568 621 534 683 568 665 b 553 557 568 604 562 583 l 399 155 l 232 570 b 214 638 220 600 214 622 b 311 686 214 686 259 686 l 311 715 b 131 707 256 711 187 707 b -5 715 78 707 35 710 l -5 686 b 89 608 17 686 53 681 l 341 2 l 292 -125 b 174 -233 262 -201 224 -233 b 165 -232 171 -233 168 -233 b 203 -170 184 -221 203 -201 b 132 -104 203 -126 171 -104 b 58 -178 86 -104 58 -134 b 153 -261 58 -232 100 -261 b 261 -225 186 -261 231 -253 b 321 -127 283 -205 302 -175 l 368 -7 l 596 590 b 686 688 623 661 652 684 l 686 715 b 581 711 657 713 624 711 z "},"z":{"ha":661,"x_min":0,"x_max":0,"o":"m 208 21 l 610 722 b 329 715 521 718 422 715 b 71 721 241 715 153 717 b 77 471 75 669 77 590 l 109 471 b 301 694 121 632 178 694 l 454 694 l 53 -7 b 334 0 142 -3 240 0 b 591 -5 421 0 510 -1 b 586 244 587 46 586 125 l 554 244 b 361 21 542 83 471 21 z "},"ź":{"ha":661,"x_min":0,"x_max":0,"o":"m 501 1129 b 471 1139 492 1136 482 1139 b 418 1108 454 1139 435 1131 b 267 844 376 1054 353 979 l 281 832 b 501 1043 391 949 458 989 b 520 1090 514 1060 520 1076 b 501 1129 520 1106 513 1120 z m 208 21 l 610 722 b 329 715 521 718 422 715 b 71 721 241 715 153 717 b 77 471 75 669 77 590 l 109 471 b 301 694 121 632 178 694 l 454 694 l 53 -7 b 334 0 142 -3 240 0 b 591 -5 421 0 510 -1 b 586 244 587 46 586 125 l 554 244 b 361 21 542 83 471 21 z "},"ž":{"ha":661,"x_min":0,"x_max":0,"o":"m 572 1114 b 367 975 494 1079 414 1025 b 106 1114 309 1025 205 1079 l 94 1095 b 326 856 201 1042 289 949 l 351 856 b 583 1095 389 949 476 1042 z m 208 21 l 610 722 b 329 715 521 718 422 715 b 71 721 241 715 153 717 b 77 471 75 669 77 590 l 109 471 b 301 694 121 632 178 694 l 454 694 l 53 -7 b 334 0 142 -3 240 0 b 591 -5 421 0 510 -1 b 586 244 587 46 586 125 l 554 244 b 361 21 542 83 471 21 z "},"ż":{"ha":661,"x_min":0,"x_max":0,"o":"m 353 1063 b 264 974 304 1063 264 1022 b 353 885 264 925 304 885 b 441 974 401 885 441 925 b 353 1063 441 1022 401 1063 z m 208 21 l 610 722 b 329 715 521 718 422 715 b 71 721 241 715 153 717 b 77 471 75 669 77 590 l 109 471 b 301 694 121 632 178 694 l 454 694 l 53 -7 b 334 0 142 -3 240 0 b 591 -5 421 0 510 -1 b 586 244 587 46 586 125 l 554 244 b 361 21 542 83 471 21 z "},"ﬁ":{"ha":860,"x_min":0,"x_max":0,"o":"m 507 1086 b 248 996 385 1086 300 1046 b 147 714 175 928 147 832 l 36 714 l 36 686 l 147 686 l 147 129 b 41 29 147 52 118 29 l 41 0 b 210 5 74 1 140 5 b 392 0 279 5 354 1 l 392 29 b 272 129 317 29 272 50 l 272 686 l 496 686 b 602 564 576 686 602 647 l 602 129 b 496 29 602 52 572 29 l 496 0 b 664 5 528 1 600 5 b 832 0 728 5 800 1 l 832 29 b 726 129 755 29 726 52 l 726 730 b 496 714 665 717 606 714 l 272 714 b 310 958 272 848 283 911 b 507 1065 346 1023 410 1065 b 608 1044 543 1065 585 1060 b 562 966 581 1029 562 1000 b 652 878 562 918 603 878 b 741 968 700 878 741 918 b 693 1044 741 1002 722 1026 b 507 1086 653 1069 585 1086 z "},"ﬂ":{"ha":863,"x_min":0,"x_max":0,"o":"m 726 1089 b 602 1069 686 1075 636 1069 b 424 1086 532 1069 481 1086 b 236 1022 355 1086 288 1067 b 147 714 157 954 147 850 l 36 714 l 36 686 l 147 686 l 147 129 b 41 29 147 52 118 29 l 41 0 b 210 5 74 1 140 5 b 392 0 279 5 354 1 l 392 29 b 272 129 317 29 272 50 l 272 686 l 449 686 l 449 714 l 272 714 l 272 844 b 321 1022 272 914 278 979 b 431 1065 342 1044 376 1065 b 564 1018 469 1065 528 1054 b 602 903 587 994 602 962 l 602 129 b 496 29 602 52 572 29 l 496 0 b 664 5 528 1 600 5 b 832 0 728 5 800 1 l 832 29 b 726 129 755 29 726 52 z "},"ª":{"ha":643,"x_min":0,"x_max":0,"o":"m 313 1003 b 160 971 248 1003 203 991 b 93 884 122 953 93 924 b 160 821 93 846 119 821 b 221 882 192 821 221 846 b 174 947 221 917 199 940 b 277 977 205 968 245 977 b 371 863 336 977 371 946 l 371 838 b 260 760 371 802 311 779 b 79 608 155 721 79 688 b 208 500 79 533 146 500 b 371 566 268 500 323 519 b 464 500 374 525 395 500 b 589 551 519 500 558 522 l 574 572 b 517 549 558 557 538 549 b 482 600 492 549 482 561 l 482 827 b 313 1003 482 950 432 1003 z m 371 593 b 269 549 340 566 304 549 b 193 633 224 549 193 583 b 293 743 193 682 225 713 b 371 794 349 768 364 779 z "},"º":{"ha":631,"x_min":0,"x_max":0,"o":"m 315 1003 b 69 751 193 1003 69 917 b 315 500 69 586 193 500 b 561 751 437 500 561 586 b 315 1003 561 917 437 1003 z m 315 978 b 446 751 386 978 446 913 b 315 525 446 590 386 525 b 184 751 244 525 184 590 b 315 978 184 913 244 978 z "},"А":{"ha":875,"x_min":0,"x_max":0,"o":"m 449 990 l 427 990 l 100 149 b -9 28 68 65 26 36 l -9 0 b 94 4 18 3 47 4 b 254 0 143 4 201 3 l 254 28 b 134 111 175 30 134 51 b 161 225 134 140 142 177 l 218 372 l 553 372 l 639 144 b 655 79 650 117 655 96 b 557 28 655 41 624 31 l 557 0 b 734 4 596 3 663 4 b 884 0 787 4 846 3 l 884 28 b 787 117 854 29 815 46 z m 543 400 l 229 400 l 388 814 z "},"Б":{"ha":828,"x_min":0,"x_max":0,"o":"m 428 585 b 300 583 405 585 356 583 l 300 836 b 412 951 300 937 318 951 l 486 951 b 672 733 633 951 654 897 l 704 733 b 700 819 701 754 700 786 b 710 983 700 851 703 918 b 461 979 636 979 533 979 b 58 983 378 979 195 979 l 58 956 b 171 836 153 951 171 937 l 171 147 b 58 28 171 46 153 32 l 58 0 b 222 4 97 3 170 4 b 397 0 313 4 349 0 b 762 293 685 0 762 150 b 428 585 762 463 652 585 z m 393 28 b 300 147 313 28 300 49 l 300 557 b 380 558 332 557 365 558 b 624 292 561 558 624 473 b 393 28 624 146 583 28 z "},"В":{"ha":865,"x_min":0,"x_max":0,"o":"m 519 522 b 730 764 675 570 730 665 b 437 982 730 892 632 982 b 228 979 404 982 315 979 b 58 983 167 979 97 981 l 58 956 b 171 836 153 951 171 937 l 171 147 b 58 28 171 46 153 32 l 58 0 b 231 4 97 3 165 4 b 469 0 345 4 428 0 b 803 269 677 0 803 111 b 519 519 803 382 739 490 z m 403 956 b 597 749 542 956 597 885 b 393 522 597 628 557 522 l 300 522 l 300 836 b 403 956 300 932 318 956 z m 404 32 b 300 147 318 32 300 50 l 300 498 l 416 498 b 664 275 593 498 664 416 b 404 32 664 119 586 32 z "},"Г":{"ha":733,"x_min":0,"x_max":0,"o":"m 696 983 b 461 979 627 979 529 979 b 58 983 378 979 195 979 l 58 956 b 171 836 153 951 171 937 l 171 147 b 58 28 171 46 153 32 l 58 0 b 236 4 97 3 164 4 b 440 0 311 4 392 3 l 440 28 b 300 147 323 32 300 46 l 300 836 b 412 951 300 937 318 951 l 444 951 b 659 692 618 951 639 885 l 690 692 b 686 806 688 721 686 761 b 696 983 686 840 689 913 z "},"Ѓ":{"ha":733,"x_min":0,"x_max":0,"o":"m 498 1286 b 265 1090 440 1249 393 1187 l 275 1072 b 554 1196 418 1145 494 1160 b 591 1251 580 1213 591 1232 b 583 1276 591 1259 588 1268 b 541 1299 574 1291 559 1299 b 498 1286 528 1299 513 1295 z m 696 983 b 461 979 627 979 529 979 b 58 983 378 979 195 979 l 58 956 b 171 836 153 951 171 937 l 171 147 b 58 28 171 46 153 32 l 58 0 b 236 4 97 3 164 4 b 440 0 311 4 392 3 l 440 28 b 300 147 323 32 300 46 l 300 836 b 412 951 300 937 318 951 l 444 951 b 659 692 618 951 639 885 l 690 692 b 686 806 688 721 686 761 b 696 983 686 840 689 913 z "},"Ґ":{"ha":726,"x_min":0,"x_max":0,"o":"m 659 1202 b 472 983 640 1038 619 983 b 267 979 415 983 322 979 b 58 983 222 979 131 979 l 58 956 b 171 836 153 951 171 937 l 171 147 b 58 28 171 46 153 32 l 58 0 b 236 4 97 3 164 4 b 440 0 311 4 392 3 l 440 28 b 300 147 323 32 300 46 l 300 836 b 412 951 300 937 318 951 l 696 951 b 686 1116 689 1017 686 1083 b 690 1202 686 1149 688 1181 z "},"Д":{"ha":873,"x_min":0,"x_max":0,"o":"m 804 28 b 692 147 710 28 692 46 l 692 836 b 804 956 692 937 710 951 l 804 983 b 639 979 765 981 693 979 b 440 983 559 979 511 983 b 318 979 400 983 359 979 b 175 983 273 979 214 981 l 175 956 b 288 864 265 952 288 937 b 288 836 288 855 288 846 b 29 28 265 467 243 28 l 4 28 b 14 -136 11 -37 14 -104 b 9 -222 14 -170 12 -201 l 41 -222 b 228 0 60 -58 81 0 l 624 0 b 810 -222 771 0 791 -58 l 842 -222 b 838 -136 839 -201 838 -170 b 847 28 838 -104 840 -37 z m 562 147 b 450 28 562 46 545 28 l 123 28 b 319 836 295 138 294 564 b 432 956 329 935 334 956 l 450 956 b 562 836 545 956 562 937 z "},"Е":{"ha":846,"x_min":0,"x_max":0,"o":"m 770 178 b 774 278 770 216 771 253 l 742 278 b 514 32 722 94 688 32 l 412 32 b 300 147 318 32 300 46 l 300 481 l 392 481 b 525 297 513 481 514 386 l 557 297 b 549 494 550 403 549 449 b 548 561 549 515 548 535 b 553 692 548 593 549 633 l 521 692 b 392 509 510 625 513 509 l 300 509 l 300 836 b 412 951 300 937 318 951 l 528 951 b 714 733 675 951 696 897 l 746 733 b 742 819 743 754 742 786 b 751 983 742 851 745 918 b 461 979 665 979 546 979 b 58 983 378 979 195 979 l 58 956 b 171 836 153 951 171 937 l 171 147 b 58 28 171 46 153 32 l 58 0 b 461 4 195 4 378 4 b 779 0 554 4 685 4 b 770 178 772 71 770 143 z "},"Ё":{"ha":846,"x_min":0,"x_max":0,"o":"m 278 1072 b 359 1153 321 1072 359 1108 b 278 1234 359 1196 321 1234 b 197 1153 233 1234 197 1196 b 278 1072 197 1108 233 1072 z m 572 1072 b 653 1153 616 1072 653 1108 b 572 1234 653 1196 616 1234 b 492 1153 528 1234 492 1196 b 572 1072 492 1108 528 1072 z m 770 178 b 774 278 770 216 771 253 l 742 278 b 514 32 722 94 688 32 l 412 32 b 300 147 318 32 300 46 l 300 481 l 392 481 b 525 297 513 481 514 386 l 557 297 b 549 494 550 403 549 449 b 548 561 549 515 548 535 b 553 692 548 593 549 633 l 521 692 b 392 509 510 625 513 509 l 300 509 l 300 836 b 412 951 300 937 318 951 l 528 951 b 714 733 675 951 696 897 l 746 733 b 742 819 743 754 742 786 b 751 983 742 851 745 918 b 461 979 665 979 546 979 b 58 983 378 979 195 979 l 58 956 b 171 836 153 951 171 937 l 171 147 b 58 28 171 46 153 32 l 58 0 b 461 4 195 4 378 4 b 779 0 554 4 685 4 b 770 178 772 71 770 143 z "},"Ж":{"ha":1365,"x_min":0,"x_max":0,"o":"m 1343 85 b 1267 32 1318 52 1301 32 b 1198 146 1228 32 1217 63 l 1158 321 b 882 522 1123 476 1013 516 l 1143 854 b 1307 956 1196 921 1250 947 l 1307 983 b 1189 979 1279 981 1236 979 b 1029 983 1140 979 1082 981 l 1029 956 b 1115 905 1088 954 1115 937 b 1044 772 1115 875 1090 830 l 911 603 b 747 522 876 558 825 524 l 747 836 b 860 956 747 937 765 951 l 860 983 b 682 979 821 981 754 979 b 505 983 618 979 549 981 l 505 956 b 618 836 600 951 618 937 l 618 522 b 454 603 541 524 489 558 l 321 772 b 250 905 275 830 250 875 b 336 956 250 937 277 954 l 336 983 b 176 979 283 981 225 979 b 58 983 129 979 86 981 l 58 956 b 222 854 115 947 170 921 l 484 522 b 207 321 353 516 242 476 l 167 146 b 98 32 148 63 137 32 b 22 85 64 32 48 52 l 1 69 b 150 -20 37 17 72 -20 b 298 131 215 -20 271 7 l 338 302 b 526 496 364 418 385 496 l 618 496 l 618 147 b 505 28 618 46 600 32 l 505 0 b 682 4 549 3 618 4 b 860 0 754 4 821 3 l 860 28 b 747 147 765 32 747 46 l 747 496 l 839 496 b 1028 302 981 496 1002 418 l 1067 131 b 1215 -20 1095 7 1150 -20 b 1364 69 1293 -20 1328 17 z "},"З":{"ha":762,"x_min":0,"x_max":0,"o":"m 372 1003 b 205 951 277 1003 240 972 b 160 932 183 937 171 932 b 127 993 139 932 134 954 l 96 993 b 103 710 100 945 103 885 l 135 710 b 355 977 143 842 214 977 b 510 779 468 977 510 905 b 346 528 510 648 472 570 b 285 536 326 532 307 536 b 256 514 268 536 256 528 b 285 490 256 497 269 490 b 345 509 307 490 326 498 b 564 252 486 504 564 396 b 323 4 564 110 489 4 b 140 57 243 4 160 29 b 199 127 175 64 199 89 b 122 203 199 175 165 203 b 49 129 79 203 49 172 b 114 31 49 87 77 54 b 319 -20 153 7 216 -20 b 701 265 518 -20 701 81 b 367 521 701 435 526 518 b 648 795 490 551 648 639 b 372 1003 648 923 537 1003 z "},"И":{"ha":1079,"x_min":0,"x_max":0,"o":"m 1021 983 b 843 979 982 981 916 979 b 667 983 779 979 710 981 l 667 956 b 779 858 753 951 776 939 l 300 178 l 300 836 b 412 956 300 937 318 951 l 412 983 b 236 979 370 981 300 979 b 58 983 164 979 97 981 l 58 956 b 171 836 153 951 171 937 l 171 147 b 58 28 171 46 153 32 l 58 0 b 236 4 97 3 164 4 b 412 0 300 4 370 3 l 412 28 b 300 126 325 32 303 44 l 779 804 l 779 147 b 667 28 779 46 761 32 l 667 0 b 843 4 710 3 779 4 b 1021 0 916 4 982 3 l 1021 28 b 908 147 926 32 908 46 l 908 836 b 1021 956 908 937 926 951 z "},"Й":{"ha":1079,"x_min":0,"x_max":0,"o":"m 323 1139 b 541 1086 372 1109 444 1086 b 757 1139 636 1086 709 1109 b 824 1234 803 1166 824 1194 b 750 1310 824 1280 793 1310 b 673 1235 709 1310 673 1282 b 732 1164 673 1196 697 1171 b 541 1114 689 1124 599 1114 b 349 1164 482 1114 392 1124 b 407 1235 383 1171 407 1196 b 331 1310 407 1282 374 1310 b 257 1234 288 1310 257 1280 b 323 1139 257 1194 278 1166 z m 1021 983 b 843 979 982 981 916 979 b 667 983 779 979 710 981 l 667 956 b 779 858 753 951 776 939 l 300 178 l 300 836 b 412 956 300 937 318 951 l 412 983 b 236 979 370 981 300 979 b 58 983 164 979 97 981 l 58 956 b 171 836 153 951 171 937 l 171 147 b 58 28 171 46 153 32 l 58 0 b 236 4 97 3 164 4 b 412 0 300 4 370 3 l 412 28 b 300 126 325 32 303 44 l 779 804 l 779 147 b 667 28 779 46 761 32 l 667 0 b 843 4 710 3 779 4 b 1021 0 916 4 982 3 l 1021 28 b 908 147 926 32 908 46 l 908 836 b 1021 956 908 937 926 951 z "},"Ѝ":{"ha":1079,"x_min":0,"x_max":0,"o":"m 345 1196 b 624 1072 404 1160 481 1145 l 633 1090 b 400 1286 506 1187 458 1249 b 358 1299 385 1295 371 1299 b 315 1276 340 1299 325 1291 b 308 1251 311 1268 308 1259 b 345 1196 308 1232 319 1213 z m 1021 983 b 843 979 982 981 916 979 b 667 983 779 979 710 981 l 667 956 b 779 858 753 951 776 939 l 300 178 l 300 836 b 412 956 300 937 318 951 l 412 983 b 236 979 370 981 300 979 b 58 983 164 979 97 981 l 58 956 b 171 836 153 951 171 937 l 171 147 b 58 28 171 46 153 32 l 58 0 b 236 4 97 3 164 4 b 412 0 300 4 370 3 l 412 28 b 300 126 325 32 303 44 l 779 804 l 779 147 b 667 28 779 46 761 32 l 667 0 b 843 4 710 3 779 4 b 1021 0 916 4 982 3 l 1021 28 b 908 147 926 32 908 46 l 908 836 b 1021 956 908 937 926 951 z "},"К":{"ha":942,"x_min":0,"x_max":0,"o":"m 896 85 b 819 32 870 52 854 32 b 751 146 781 32 770 63 l 711 321 b 434 522 675 476 566 516 l 696 854 b 860 956 749 921 803 947 l 860 983 b 742 979 832 981 789 979 b 582 983 693 979 635 981 l 582 956 b 668 905 641 954 668 937 b 597 772 668 875 643 830 l 464 603 b 300 522 429 558 378 524 l 300 836 b 412 956 300 937 318 951 l 412 983 b 236 979 370 981 300 979 b 58 983 164 979 97 981 l 58 956 b 171 836 153 951 171 937 l 171 147 b 58 28 171 46 153 32 l 58 0 b 236 4 97 3 164 4 b 412 0 300 4 370 3 l 412 28 b 300 147 318 32 300 46 l 300 496 l 392 496 b 581 302 533 496 554 418 l 619 131 b 768 -20 647 7 703 -20 b 917 69 846 -20 880 17 z "},"Ќ":{"ha":942,"x_min":0,"x_max":0,"o":"m 692 1196 b 728 1251 718 1213 728 1232 b 721 1276 728 1259 726 1268 b 678 1299 711 1291 696 1299 b 636 1286 665 1299 651 1295 b 403 1090 578 1249 530 1187 l 412 1072 b 692 1196 555 1145 632 1160 z m 896 85 b 819 32 870 52 854 32 b 751 146 781 32 770 63 l 711 321 b 434 522 675 476 566 516 l 696 854 b 860 956 749 921 803 947 l 860 983 b 742 979 832 981 789 979 b 582 983 693 979 635 981 l 582 956 b 668 905 641 954 668 937 b 597 772 668 875 643 830 l 464 603 b 300 522 429 558 378 524 l 300 836 b 412 956 300 937 318 951 l 412 983 b 236 979 370 981 300 979 b 58 983 164 979 97 981 l 58 956 b 171 836 153 951 171 937 l 171 147 b 58 28 171 46 153 32 l 58 0 b 236 4 97 3 164 4 b 412 0 300 4 370 3 l 412 28 b 300 147 318 32 300 46 l 300 496 l 392 496 b 581 302 533 496 554 418 l 619 131 b 768 -20 647 7 703 -20 b 917 69 846 -20 880 17 z "},"Л":{"ha":956,"x_min":0,"x_max":0,"o":"m 897 983 b 732 979 859 981 786 979 b 533 983 653 979 604 983 b 411 979 493 983 453 979 b 268 983 367 979 307 981 l 268 956 b 382 867 357 952 382 937 b 380 836 382 858 381 848 b 122 7 358 453 336 7 b 89 8 115 7 102 7 b 149 93 127 31 149 52 b 78 154 149 131 118 154 b -4 75 31 154 -4 123 b 122 -20 -4 5 61 -20 b 412 836 389 -20 385 510 b 525 956 421 935 427 956 l 543 956 b 656 836 637 956 656 937 l 656 147 b 515 28 656 46 632 32 l 515 0 b 720 4 564 3 644 4 b 897 0 791 4 859 3 l 897 28 b 785 147 803 32 785 46 l 785 836 b 897 956 785 937 803 951 z "},"М":{"ha":1210,"x_min":0,"x_max":0,"o":"m 1152 983 b 975 979 1108 981 1039 979 l 909 979 l 611 178 l 306 983 b 187 979 275 981 228 979 b 58 983 140 979 89 981 l 58 956 b 171 836 153 951 171 937 l 171 161 b 58 28 171 60 153 32 l 58 0 b 187 4 89 3 140 4 b 329 0 235 4 296 3 l 329 28 b 203 161 221 32 203 60 l 203 895 l 553 -7 l 575 -7 l 909 890 l 909 147 b 798 28 909 46 892 32 l 798 0 b 975 4 836 3 903 4 b 1152 0 1039 4 1108 3 l 1152 28 b 1039 147 1057 32 1039 46 l 1039 836 b 1152 956 1039 937 1057 951 z "},"Н":{"ha":1051,"x_min":0,"x_max":0,"o":"m 993 983 b 815 979 954 981 888 979 b 639 983 751 979 682 981 l 639 956 b 751 836 733 951 751 937 l 751 509 l 300 509 l 300 836 b 412 956 300 937 318 951 l 412 983 b 236 979 370 981 300 979 b 58 983 164 979 97 981 l 58 956 b 171 836 153 951 171 937 l 171 147 b 58 28 171 46 153 32 l 58 0 b 236 4 97 3 164 4 b 412 0 300 4 370 3 l 412 28 b 300 147 318 32 300 46 l 300 481 l 751 481 l 751 147 b 639 28 751 46 733 32 l 639 0 b 815 4 682 3 751 4 b 993 0 888 4 954 3 l 993 28 b 880 147 899 32 880 46 l 880 836 b 993 956 880 937 899 951 z "},"О":{"ha":1029,"x_min":0,"x_max":0,"o":"m 515 1003 b 74 484 257 1003 74 794 b 514 -20 74 165 250 -20 b 956 500 772 -20 956 189 b 515 1003 956 818 779 1003 z m 510 978 b 817 494 681 978 817 790 b 519 5 817 207 700 5 b 212 489 349 5 212 193 b 510 978 212 777 329 978 z "},"П":{"ha":1051,"x_min":0,"x_max":0,"o":"m 993 983 b 815 979 954 981 888 979 b 528 983 707 979 593 983 b 236 979 463 983 345 979 b 58 983 164 979 97 981 l 58 956 b 171 836 153 951 171 937 l 171 147 b 58 28 171 46 153 32 l 58 0 b 236 4 97 3 164 4 b 412 0 300 4 370 3 l 412 28 b 300 147 318 32 300 46 l 300 836 b 412 956 300 937 318 956 l 639 956 b 751 836 733 956 751 937 l 751 147 b 639 28 751 46 733 32 l 639 0 b 815 4 682 3 751 4 b 993 0 888 4 954 3 l 993 28 b 880 147 899 32 880 46 l 880 836 b 993 956 880 937 899 951 z "},"Р":{"ha":812,"x_min":0,"x_max":0,"o":"m 300 397 l 407 397 b 772 708 694 397 772 574 b 437 982 772 869 661 982 b 228 979 404 982 315 979 b 58 983 167 979 97 981 l 58 956 b 171 836 153 951 171 937 l 171 147 b 58 28 171 46 153 32 l 58 0 b 236 4 97 3 164 4 b 440 0 311 4 392 3 l 440 28 b 300 147 323 32 300 46 z m 403 956 b 633 693 571 956 633 868 b 393 425 633 551 590 425 l 300 425 l 300 836 b 403 956 300 932 318 956 z "},"С":{"ha":956,"x_min":0,"x_max":0,"o":"m 515 1003 b 74 484 257 1003 74 794 b 514 -20 74 165 250 -20 b 771 71 633 -20 703 22 b 800 82 783 78 792 82 b 833 0 819 82 829 57 l 865 0 b 860 334 861 71 860 165 l 828 334 b 764 114 814 221 804 168 b 526 8 711 39 610 8 b 212 489 347 8 212 179 b 513 978 212 790 332 978 b 758 869 608 978 700 945 b 828 664 798 819 808 782 l 860 664 b 865 983 860 825 861 916 l 833 983 b 798 901 829 926 817 901 b 771 913 790 901 781 905 b 515 1003 710 960 637 1003 z "},"Т":{"ha":863,"x_min":0,"x_max":0,"o":"m 822 983 b 432 979 707 979 546 979 b 40 983 318 979 155 979 b 50 806 47 913 50 840 b 46 692 50 761 49 721 l 78 692 b 292 951 97 885 118 951 l 367 951 l 367 161 b 227 28 367 49 343 32 l 227 0 b 432 4 271 3 349 4 b 636 0 507 4 587 3 l 636 28 b 496 161 519 32 496 49 l 496 951 l 571 951 b 785 692 745 951 765 885 l 817 692 b 812 806 814 721 812 761 b 822 983 812 840 815 913 z "},"У":{"ha":899,"x_min":0,"x_max":0,"o":"m 807 979 b 647 983 758 979 700 981 l 647 956 b 770 882 724 954 770 937 b 732 762 770 853 758 814 l 513 325 l 231 852 b 216 901 220 871 216 888 b 314 954 216 942 261 954 l 314 983 b 119 979 254 979 180 979 b -3 983 72 979 33 981 l -3 954 b 78 876 17 954 40 945 l 450 193 l 412 115 b 293 8 379 46 343 8 b 285 9 290 8 288 8 b 322 72 304 21 322 43 b 252 138 322 115 290 138 b 178 64 210 138 178 109 b 275 -20 178 9 220 -20 b 379 21 309 -20 350 -8 b 440 114 399 40 416 65 l 496 226 l 800 832 b 911 956 842 914 875 947 l 911 983 b 807 979 884 981 854 979 z "},"Ў":{"ha":899,"x_min":0,"x_max":0,"o":"m 245 1139 b 463 1086 294 1109 366 1086 b 679 1139 558 1086 631 1109 b 746 1234 725 1166 746 1194 b 672 1310 746 1280 715 1310 b 595 1235 631 1310 595 1282 b 654 1164 595 1196 619 1171 b 463 1114 611 1124 521 1114 b 271 1164 404 1114 314 1124 b 329 1235 305 1171 329 1196 b 253 1310 329 1282 296 1310 b 179 1234 210 1310 179 1280 b 245 1139 179 1194 200 1166 z m 807 979 b 647 983 758 979 700 981 l 647 956 b 770 882 724 954 770 937 b 732 762 770 853 758 814 l 513 325 l 231 852 b 216 901 220 871 216 888 b 314 954 216 942 261 954 l 314 983 b 119 979 254 979 180 979 b -3 983 72 979 33 981 l -3 954 b 78 876 17 954 40 945 l 450 193 l 412 115 b 293 8 379 46 343 8 b 285 9 290 8 288 8 b 322 72 304 21 322 43 b 252 138 322 115 290 138 b 178 64 210 138 178 109 b 275 -20 178 9 220 -20 b 379 21 309 -20 350 -8 b 440 114 399 40 416 65 l 496 226 l 800 832 b 911 956 842 914 875 947 l 911 983 b 807 979 884 981 854 979 z "},"Ф":{"ha":1179,"x_min":0,"x_max":0,"o":"m 1141 500 b 656 890 1141 734 950 872 l 656 939 b 768 1059 656 1040 673 1054 l 768 1086 b 591 1082 725 1083 656 1082 b 414 1086 519 1082 453 1083 l 414 1059 b 526 939 509 1054 526 1042 l 526 890 b 37 497 236 870 37 718 b 526 94 37 254 231 111 l 526 45 b 414 -75 526 -57 509 -71 l 414 -103 b 591 -98 453 -100 519 -98 b 768 -103 656 -98 725 -100 l 768 -75 b 656 45 673 -71 656 -58 l 656 94 b 1141 500 945 115 1141 273 z m 176 503 b 526 864 176 699 313 842 l 526 121 b 176 503 323 146 176 288 z m 1003 494 b 656 120 1003 292 868 144 l 656 862 b 1003 494 857 836 1003 700 z "},"Х":{"ha":880,"x_min":0,"x_max":0,"o":"m 490 538 l 685 828 b 842 956 736 904 785 947 l 842 983 b 724 979 814 981 771 979 b 564 983 675 979 616 981 l 564 956 b 671 900 633 954 671 941 b 611 766 671 871 652 828 l 475 562 l 258 893 b 246 924 251 905 246 916 b 339 954 246 944 273 954 l 339 983 b 143 978 288 981 218 978 b 24 983 96 978 47 982 l 24 954 b 117 885 65 951 82 939 l 389 468 l 179 155 b 22 28 127 79 79 36 l 22 0 b 140 4 50 3 93 4 b 328 0 189 4 275 3 l 328 28 b 204 94 254 30 204 45 b 257 216 204 122 220 162 l 407 440 l 644 77 b 654 52 651 66 654 58 b 555 29 654 33 624 29 l 555 0 b 751 5 593 1 676 5 b 871 0 799 5 847 1 l 871 29 b 778 98 829 32 812 45 z "},"Ч":{"ha":935,"x_min":0,"x_max":0,"o":"m 876 983 b 700 979 833 981 764 979 b 522 983 628 979 561 981 l 522 956 b 635 836 616 951 635 937 l 635 467 b 418 436 585 449 510 436 b 258 596 275 436 258 509 l 258 854 b 350 954 258 932 283 954 l 350 983 b 195 978 321 982 256 978 b 24 983 134 978 56 982 l 24 954 b 129 854 100 954 129 932 l 129 627 b 196 440 129 529 144 479 b 374 392 235 411 294 392 b 635 443 471 392 582 418 l 635 147 b 494 28 635 46 611 32 l 494 0 b 699 4 543 3 624 4 b 876 0 771 4 838 3 l 876 28 b 764 147 782 32 764 46 l 764 836 b 876 956 764 937 782 951 z "},"Ц":{"ha":1063,"x_min":0,"x_max":0,"o":"m 993 983 b 815 979 954 981 888 979 b 639 983 751 979 682 981 l 639 956 b 751 836 733 951 751 937 l 751 147 b 639 28 751 46 733 28 l 412 28 b 300 147 318 28 300 46 l 300 836 b 412 956 300 937 318 951 l 412 983 b 236 979 370 981 300 979 b 58 983 164 979 97 981 l 58 956 b 171 836 153 951 171 937 l 171 147 b 58 28 171 46 153 32 l 58 0 b 236 4 97 3 164 4 b 528 0 345 4 463 0 l 812 0 b 999 -222 960 0 981 -58 l 1031 -222 b 1026 -136 1028 -201 1026 -170 b 1036 28 1026 -104 1029 -37 l 993 28 b 880 147 899 28 880 46 l 880 836 b 993 956 880 937 899 951 z "},"Ш":{"ha":1398,"x_min":0,"x_max":0,"o":"m 1340 983 b 1162 979 1301 981 1235 979 b 1000 983 1104 979 1040 981 l 1000 956 b 1099 836 1084 951 1099 937 l 1099 147 b 986 28 1099 46 1080 28 l 876 28 b 764 147 782 28 764 46 l 764 836 b 863 956 764 937 778 951 l 863 983 b 699 979 827 981 765 979 b 536 983 640 979 576 981 l 536 956 b 635 836 621 951 635 937 l 635 147 b 522 28 635 46 616 28 l 412 28 b 300 147 318 28 300 46 l 300 836 b 399 956 300 937 315 951 l 399 983 b 236 979 358 981 294 979 b 58 983 164 979 97 981 l 58 956 b 171 836 153 951 171 937 l 171 147 b 58 28 171 46 153 32 l 58 0 b 236 4 97 3 164 4 b 482 0 306 4 380 0 b 701 4 571 0 648 4 b 916 0 753 4 828 0 b 1162 4 1014 0 1092 4 b 1340 0 1235 4 1301 3 l 1340 28 b 1227 147 1246 32 1227 46 l 1227 836 b 1340 956 1227 937 1246 951 z "},"Щ":{"ha":1382,"x_min":0,"x_max":0,"o":"m 1312 983 b 1135 979 1274 981 1207 979 b 972 983 1076 979 1013 981 l 972 956 b 1071 836 1057 951 1071 937 l 1071 147 b 958 28 1071 46 1053 28 l 863 28 b 750 147 768 28 750 46 l 750 836 b 848 956 750 937 764 951 l 848 983 b 685 979 812 981 751 979 b 522 983 627 979 562 981 l 522 956 b 621 836 607 951 621 937 l 621 147 b 509 28 621 46 603 28 l 412 28 b 300 147 318 28 300 46 l 300 836 b 399 956 300 937 315 951 l 399 983 b 236 979 358 981 294 979 b 58 983 164 979 97 981 l 58 956 b 171 836 153 951 171 937 l 171 147 b 58 28 171 46 153 32 l 58 0 b 236 4 97 3 164 4 b 468 0 306 4 380 0 b 688 4 557 0 635 4 b 901 0 739 4 814 0 l 1132 0 b 1318 -222 1279 0 1300 -58 l 1350 -222 b 1346 -136 1348 -201 1346 -170 b 1356 28 1346 -104 1349 -37 l 1312 28 b 1200 147 1218 28 1200 46 l 1200 836 b 1312 956 1200 937 1218 951 z "},"Џ":{"ha":1051,"x_min":0,"x_max":0,"o":"m 993 983 b 815 979 954 981 888 979 b 639 983 751 979 682 981 l 639 956 b 751 836 733 951 751 937 l 751 147 b 639 28 751 46 733 28 l 412 28 b 300 147 318 28 300 46 l 300 836 b 412 956 300 937 318 951 l 412 983 b 236 979 370 981 300 979 b 58 983 164 979 97 981 l 58 956 b 171 836 153 951 171 937 l 171 147 b 58 28 171 46 153 32 l 58 0 b 236 4 97 3 164 4 b 357 3 276 4 318 3 l 357 3 b 515 -222 482 3 500 -58 l 547 -222 b 705 3 562 -58 581 3 l 703 3 b 815 4 740 3 778 4 b 993 0 888 4 954 3 l 993 28 b 880 147 899 32 880 46 l 880 836 b 993 956 880 937 899 951 z "},"Я":{"ha":907,"x_min":0,"x_max":0,"o":"m 848 983 b 679 979 810 981 741 979 b 469 982 591 979 503 982 b 135 741 245 982 135 876 b 399 473 135 633 194 505 l 380 471 b 180 288 257 450 207 403 l 149 146 b 80 32 132 65 119 32 b 4 85 47 32 30 52 l -17 69 b 132 -20 22 12 57 -20 b 281 131 201 -20 254 12 l 311 269 b 468 467 338 387 358 467 l 607 467 l 607 147 b 494 28 607 46 589 32 l 494 0 b 671 4 538 3 607 4 b 848 0 743 4 810 3 l 848 28 b 736 147 754 32 736 46 l 736 836 b 848 956 736 937 754 951 z m 273 734 b 504 956 273 871 336 956 b 607 836 589 956 607 932 l 607 494 l 514 494 b 273 734 317 494 273 597 z "},"Ь":{"ha":806,"x_min":0,"x_max":0,"o":"m 428 585 b 300 583 405 585 356 583 l 300 836 b 440 956 300 937 323 951 l 440 983 b 236 979 392 981 311 979 b 58 983 164 979 97 981 l 58 956 b 171 836 153 951 171 937 l 171 147 b 58 28 171 46 153 32 l 58 0 b 236 4 97 3 164 4 b 397 0 300 4 354 0 b 762 307 685 0 762 172 b 428 585 762 468 652 585 z m 397 28 b 300 147 313 28 300 46 l 300 557 b 393 558 331 557 365 558 b 624 292 561 558 624 467 b 397 28 624 150 583 28 z "},"Ъ":{"ha":1014,"x_min":0,"x_max":0,"o":"m 636 585 b 509 583 614 585 565 583 l 509 836 b 648 956 509 937 532 951 l 648 983 b 444 979 600 981 519 979 b 39 983 314 979 158 979 b 49 806 46 913 49 840 b 45 692 49 761 47 721 l 77 692 b 290 951 96 885 117 951 l 379 951 l 379 147 b 267 28 379 46 361 32 l 267 0 b 444 4 306 3 372 4 b 606 0 509 4 562 0 b 971 307 893 0 971 172 b 636 585 971 468 860 585 z m 606 28 b 509 147 521 28 509 46 l 509 557 b 602 558 540 557 574 558 b 832 292 770 558 832 467 b 606 28 832 150 791 28 z "},"Ы":{"ha":1235,"x_min":0,"x_max":0,"o":"m 428 585 b 300 583 405 585 356 583 l 300 836 b 440 956 300 937 323 951 l 440 983 b 236 979 392 981 311 979 b 58 983 164 979 97 981 l 58 956 b 171 836 153 951 171 937 l 171 147 b 58 28 171 46 153 32 l 58 0 b 236 4 97 3 164 4 b 397 0 300 4 354 0 b 762 307 685 0 762 172 b 428 585 762 468 652 585 z m 1177 983 b 1000 979 1133 981 1064 979 b 822 983 928 979 861 981 l 822 956 b 935 836 917 951 935 937 l 935 147 b 822 28 935 46 917 32 l 822 0 b 1000 4 861 3 928 4 b 1177 0 1064 4 1133 3 l 1177 28 b 1064 147 1082 32 1064 46 l 1064 836 b 1177 956 1064 937 1082 951 z m 397 28 b 300 147 313 28 300 46 l 300 557 b 393 558 331 557 365 558 b 624 292 561 558 624 467 b 397 28 624 150 583 28 z "},"Љ":{"ha":1289,"x_min":0,"x_max":0,"o":"m 1247 265 b 913 517 1247 410 1136 517 b 785 515 867 517 825 516 l 785 836 b 897 956 785 937 803 951 l 897 983 b 732 979 859 981 786 979 b 533 983 653 979 604 983 b 411 979 493 983 453 979 b 268 983 367 979 307 981 l 268 956 b 382 867 357 952 382 937 b 380 836 382 858 381 848 b 122 7 358 453 336 7 b 89 8 115 7 102 7 b 149 93 127 31 149 52 b 78 154 149 131 118 154 b -4 75 31 154 -4 123 b 122 -20 -4 5 61 -20 b 412 836 389 -20 385 510 b 525 956 421 935 427 956 l 543 956 b 656 836 637 956 656 937 l 656 147 b 515 28 656 46 632 32 l 515 0 b 720 4 564 3 644 4 b 806 3 750 4 779 4 b 882 0 835 1 863 0 b 896 0 886 0 891 0 l 897 0 b 1247 265 1172 5 1247 138 z m 892 28 b 785 147 802 33 785 48 l 785 490 l 865 490 b 1108 264 1046 490 1108 416 b 892 28 1108 137 1070 33 z "},"Њ":{"ha":1385,"x_min":0,"x_max":0,"o":"m 1343 265 b 1008 517 1343 410 1232 517 b 880 515 963 517 921 516 l 880 836 b 993 956 880 937 899 951 l 993 983 b 815 979 954 981 888 979 b 639 983 751 979 682 981 l 639 956 b 751 836 733 951 751 937 l 751 509 l 300 509 l 300 836 b 412 956 300 937 318 951 l 412 983 b 236 979 370 981 300 979 b 58 983 164 979 97 981 l 58 956 b 171 836 153 951 171 937 l 171 147 b 58 28 171 46 153 32 l 58 0 b 236 4 97 3 164 4 b 412 0 300 4 370 3 l 412 28 b 300 147 318 32 300 46 l 300 481 l 751 481 l 751 147 b 639 28 751 46 733 32 l 639 0 b 815 4 682 3 751 4 b 902 3 846 4 876 4 b 978 0 930 1 959 0 b 991 0 983 0 987 0 l 993 0 b 1343 265 1268 5 1343 138 z m 988 28 b 880 147 898 33 880 47 l 880 490 l 961 490 b 1204 264 1141 490 1204 416 b 988 28 1204 137 1166 33 z "},"Ѕ":{"ha":750,"x_min":0,"x_max":0,"o":"m 355 999 b 94 758 218 999 94 922 b 342 447 94 602 210 526 b 558 193 471 370 558 306 b 378 8 558 62 468 8 b 125 323 200 8 136 155 l 93 323 b 87 -9 93 127 92 47 l 119 -9 b 150 52 125 31 132 52 b 197 32 161 52 175 46 b 387 -20 237 7 289 -20 b 682 244 549 -20 682 68 b 432 557 682 393 576 467 b 199 811 307 635 199 685 b 368 972 199 907 269 972 b 596 705 522 972 586 838 l 628 705 b 635 989 628 880 631 940 l 603 989 b 572 928 597 949 590 928 b 525 947 559 928 547 933 b 355 999 488 972 447 999 z "},"Є":{"ha":960,"x_min":0,"x_max":0,"o":"m 828 334 b 764 114 814 221 804 168 b 526 8 711 39 610 8 b 213 448 355 8 224 164 b 319 510 237 494 276 510 b 618 404 433 510 493 404 b 807 547 704 404 782 452 l 786 557 b 672 479 768 501 720 479 b 376 585 562 479 496 585 b 212 484 307 585 244 551 l 212 489 b 513 978 212 790 332 978 b 758 869 608 978 700 945 b 828 664 798 819 808 782 l 860 664 b 865 983 860 825 861 916 l 833 983 b 798 901 829 926 817 901 b 771 913 790 901 781 905 b 515 1003 710 960 637 1003 b 74 484 257 1003 74 794 b 514 -20 74 165 250 -20 b 771 71 633 -20 703 22 b 800 82 783 78 792 82 b 833 0 819 82 829 57 l 865 0 b 860 334 861 71 860 165 z "},"Э":{"ha":961,"x_min":0,"x_max":0,"o":"m 446 1003 b 191 913 323 1003 252 960 b 163 901 180 905 171 901 b 127 983 144 901 133 926 l 96 983 b 102 664 100 916 102 825 l 134 664 b 203 869 153 782 164 819 b 449 978 261 945 353 978 b 747 549 617 978 732 814 b 640 486 722 503 683 486 b 340 591 526 486 465 591 b 150 449 254 591 176 545 l 171 439 b 286 517 191 494 239 517 b 583 411 396 517 463 411 b 748 517 654 411 717 446 l 749 489 b 435 8 749 179 614 8 b 197 114 351 8 250 39 b 134 334 157 168 147 221 l 102 334 b 96 0 102 165 100 71 l 127 0 b 161 82 133 57 142 82 b 191 71 170 82 179 78 b 447 -20 258 22 328 -20 b 888 484 711 -20 888 165 b 446 1003 888 794 704 1003 z "},"І":{"ha":471,"x_min":0,"x_max":0,"o":"m 412 983 b 236 979 370 981 300 979 b 58 983 164 979 97 981 l 58 956 b 171 836 153 951 171 937 l 171 147 b 58 28 171 46 153 32 l 58 0 b 236 4 97 3 164 4 b 412 0 300 4 370 3 l 412 28 b 300 147 318 32 300 46 l 300 836 b 412 956 300 937 318 951 z "},"Ї":{"ha":471,"x_min":0,"x_max":0,"o":"m 89 1234 b 8 1153 44 1234 8 1196 b 89 1072 8 1108 44 1072 b 170 1153 132 1072 170 1108 b 89 1234 170 1196 132 1234 z m 383 1234 b 302 1153 339 1234 302 1196 b 383 1072 302 1108 339 1072 b 464 1153 427 1072 464 1108 b 383 1234 464 1196 427 1234 z m 412 983 b 236 979 370 981 300 979 b 58 983 164 979 97 981 l 58 956 b 171 836 153 951 171 937 l 171 147 b 58 28 171 46 153 32 l 58 0 b 236 4 97 3 164 4 b 412 0 300 4 370 3 l 412 28 b 300 147 318 32 300 46 l 300 836 b 412 956 300 937 318 951 z "},"Ј":{"ha":453,"x_min":0,"x_max":0,"o":"m 404 983 b 228 979 361 981 292 979 b 50 983 155 979 89 981 l 50 956 b 163 836 144 951 163 937 l 163 201 b 139 -117 163 9 158 -58 b -28 -235 114 -191 53 -235 b -117 -212 -52 -235 -98 -231 b -58 -142 -82 -205 -58 -182 b -135 -66 -58 -94 -92 -66 b -208 -140 -178 -66 -208 -97 b -142 -236 -208 -179 -187 -212 b -25 -261 -117 -249 -77 -261 b 268 -35 134 -261 237 -163 b 292 328 290 58 292 212 l 292 836 b 404 956 292 937 310 951 z "},"Ћ":{"ha":1131,"x_min":0,"x_max":0,"o":"m 1002 357 b 935 543 1002 454 986 504 b 757 591 896 572 836 591 b 496 541 660 591 549 566 l 496 951 l 571 951 b 785 692 745 951 765 885 l 817 692 b 812 806 814 721 812 761 b 822 983 812 840 815 913 b 432 979 707 979 546 979 b 40 983 318 979 155 979 b 50 806 47 913 50 840 b 46 692 50 761 49 721 l 78 692 b 292 951 97 885 118 951 l 367 951 l 367 161 b 227 28 367 49 343 32 l 227 0 b 432 4 271 3 349 4 b 636 0 507 4 587 3 l 636 28 b 496 161 519 32 496 49 l 496 517 b 713 547 546 534 621 547 b 872 387 856 547 872 475 l 872 129 b 781 29 872 52 847 29 l 781 0 b 936 5 810 1 875 5 b 1107 0 997 5 1075 1 l 1107 29 b 1002 129 1031 29 1002 52 z "},"Ю":{"ha":1406,"x_min":0,"x_max":0,"o":"m 904 1003 b 476 503 660 1003 484 803 l 300 503 l 300 836 b 412 956 300 937 318 951 l 412 983 b 236 979 370 981 300 979 b 58 983 164 979 97 981 l 58 956 b 171 836 153 951 171 937 l 171 147 b 58 28 171 46 153 32 l 58 0 b 236 4 97 3 164 4 b 412 0 300 4 370 3 l 412 28 b 300 147 318 32 300 46 l 300 475 l 476 475 b 903 -20 479 162 649 -20 b 1331 500 1153 -20 1331 189 b 904 1003 1331 818 1160 1003 z m 908 5 b 615 489 746 5 615 193 b 899 978 615 777 726 978 b 1192 494 1061 978 1192 790 b 908 5 1192 207 1080 5 z "},"Ђ":{"ha":1084,"x_min":0,"x_max":0,"o":"m 749 578 b 496 485 641 578 547 534 l 496 951 l 571 951 b 785 692 745 951 765 885 l 817 692 b 812 806 814 721 812 761 b 822 983 812 840 815 913 b 432 979 707 979 546 979 b 40 983 318 979 155 979 b 50 806 47 913 50 840 b 46 692 50 761 49 721 l 78 692 b 292 951 97 885 118 951 l 367 951 l 367 161 b 227 28 367 49 343 32 l 227 0 b 313 4 256 3 285 4 b 496 -16 378 4 447 -1 l 496 456 b 700 533 535 500 616 533 b 904 272 871 533 904 422 b 728 1 904 94 850 1 b 652 35 686 1 657 18 b 711 107 692 47 711 74 b 637 175 711 150 679 175 b 566 100 591 175 566 144 b 745 -20 566 17 657 -20 b 1039 285 895 -20 1039 71 b 749 578 1039 484 917 578 z "},"а":{"ha":692,"x_min":0,"x_max":0,"o":"m 346 734 b 151 682 257 734 191 708 b 86 583 113 656 86 624 b 161 497 86 533 114 497 b 243 572 211 497 243 525 b 178 657 243 618 212 648 b 315 707 210 697 268 707 b 444 567 387 707 444 684 l 444 481 b 278 363 444 425 371 401 b 54 146 139 304 54 256 b 231 -9 54 37 138 -9 b 444 114 297 -9 385 16 b 564 -9 444 49 467 -9 b 690 41 623 -9 652 12 l 675 65 b 612 36 656 49 637 36 b 570 102 581 36 570 57 l 570 488 b 514 682 570 586 558 637 b 346 734 482 714 424 734 z m 444 151 b 288 46 397 75 343 46 b 176 168 224 46 176 85 b 311 345 176 275 250 315 b 444 424 399 387 429 401 z "},"б":{"ha":779,"x_min":0,"x_max":0,"o":"m 414 707 b 123 478 288 707 172 652 l 122 479 b 358 884 150 765 207 857 b 500 897 406 892 471 896 b 644 943 570 901 614 918 b 722 1086 681 972 703 1025 l 701 1092 b 532 997 672 1032 635 1004 b 368 983 496 994 425 993 b 201 900 293 971 237 940 b 87 433 92 778 87 496 b 383 -20 87 102 207 -20 b 714 361 581 -20 714 132 b 414 707 714 541 632 707 z m 407 8 b 220 350 313 8 220 102 b 408 677 220 602 314 677 b 579 366 509 677 579 591 b 407 8 579 224 551 8 z "},"в":{"ha":758,"x_min":0,"x_max":0,"o":"m 448 372 b 657 546 588 394 657 465 b 386 714 657 646 590 714 b 204 708 336 714 271 708 b 40 714 146 708 72 713 l 40 685 b 146 585 117 685 146 663 l 146 129 b 40 29 146 52 117 29 l 40 0 b 204 5 72 1 146 5 b 390 0 272 5 334 0 b 701 201 619 0 701 90 b 448 372 701 302 631 363 z m 372 685 b 529 534 503 685 529 621 b 326 376 529 429 493 379 l 271 376 l 271 585 b 372 685 271 660 297 685 z m 376 29 b 271 129 297 29 271 52 l 271 353 l 396 353 b 571 200 497 353 571 318 b 376 29 571 109 532 29 z "},"г":{"ha":646,"x_min":0,"x_max":0,"o":"m 387 714 b 207 708 334 714 268 708 b 40 714 146 708 72 713 l 40 685 b 146 585 117 685 146 663 l 146 129 b 40 29 146 52 117 29 l 40 0 b 204 5 72 1 140 5 b 418 0 290 5 375 1 l 418 29 b 271 143 326 29 271 53 l 271 585 b 363 686 271 663 296 686 l 422 686 b 567 467 536 686 553 631 l 599 467 b 595 553 596 488 595 519 b 604 714 595 585 597 648 z "},"ѓ":{"ha":646,"x_min":0,"x_max":0,"o":"m 472 1129 b 441 1139 463 1136 453 1139 b 389 1108 425 1139 406 1131 b 237 844 347 1054 323 979 l 252 832 b 472 1043 362 949 429 989 b 491 1090 485 1060 491 1076 b 472 1129 491 1106 484 1120 z m 387 714 b 207 708 334 714 268 708 b 40 714 146 708 72 713 l 40 685 b 146 585 117 685 146 663 l 146 129 b 40 29 146 52 117 29 l 40 0 b 204 5 72 1 140 5 b 418 0 290 5 375 1 l 418 29 b 271 143 326 29 271 53 l 271 585 b 363 686 271 663 296 686 l 422 686 b 567 467 536 686 553 631 l 599 467 b 595 553 596 488 595 519 b 604 714 595 585 597 648 z "},"ґ":{"ha":640,"x_min":0,"x_max":0,"o":"m 567 933 b 380 714 553 742 494 714 b 207 708 343 714 256 708 b 40 714 146 708 72 713 l 40 685 b 146 585 117 685 146 663 l 146 129 b 40 29 146 52 117 29 l 40 0 b 204 5 72 1 140 5 b 418 0 290 5 375 1 l 418 29 b 271 143 326 29 271 53 l 271 585 b 363 686 271 663 296 686 l 604 686 b 595 847 597 751 595 815 b 599 933 595 880 596 913 z "},"д":{"ha":728,"x_min":0,"x_max":0,"o":"m 697 29 b 576 129 597 29 576 52 l 576 585 b 682 685 576 663 606 685 l 682 714 b 514 708 650 713 578 708 b 363 714 452 708 414 714 b 215 708 311 714 261 708 b 121 714 170 708 136 713 l 121 685 b 231 598 193 685 231 665 b 231 585 231 594 231 589 b 153 134 218 421 199 254 b 36 29 134 82 94 29 l 9 29 b 20 -132 17 -36 20 -100 b 16 -218 20 -165 18 -197 l 47 -218 b 192 0 61 -54 78 0 b 515 5 378 0 427 5 b 660 -218 629 5 646 -54 l 692 -218 b 688 -132 689 -197 688 -165 b 697 29 688 -100 690 -36 z m 452 129 b 359 29 452 52 427 29 l 106 29 b 175 126 139 52 159 90 b 256 585 227 250 243 433 b 347 685 262 663 281 685 l 359 685 b 452 585 427 685 452 663 z "},"е":{"ha":703,"x_min":0,"x_max":0,"o":"m 615 178 b 411 39 567 74 494 39 b 199 340 304 39 199 150 b 203 429 199 371 200 403 l 637 429 b 378 734 637 639 541 734 b 64 340 187 734 64 585 b 383 -20 64 127 182 -20 b 643 167 521 -20 612 74 z m 372 708 b 504 456 465 708 509 591 l 201 456 b 372 708 216 631 290 708 z "},"ё":{"ha":703,"x_min":0,"x_max":0,"o":"m 231 871 b 311 951 274 871 311 907 b 231 1032 311 994 274 1032 b 150 951 186 1032 150 994 b 231 871 150 907 186 871 z m 525 871 b 606 951 568 871 606 907 b 525 1032 606 994 568 1032 b 445 951 481 1032 445 994 b 525 871 445 907 481 871 z m 615 178 b 411 39 567 74 494 39 b 199 340 304 39 199 150 b 203 429 199 371 200 403 l 637 429 b 378 734 637 639 541 734 b 64 340 187 734 64 585 b 383 -20 64 127 182 -20 b 643 167 521 -20 612 74 z m 372 708 b 504 456 465 708 509 591 l 201 456 b 372 708 216 631 290 708 z "},"ж":{"ha":1169,"x_min":0,"x_max":0,"o":"m 1043 106 b 970 288 1019 160 1000 237 b 757 383 928 353 861 380 b 882 534 832 409 857 470 b 962 684 911 610 929 668 l 962 673 b 1043 585 962 621 993 585 b 1117 659 1089 585 1117 616 b 1028 734 1117 697 1093 734 b 864 558 920 734 890 636 b 647 381 827 450 793 394 l 647 585 b 739 685 647 663 672 685 l 739 714 b 585 708 710 713 643 708 b 431 714 526 708 460 713 l 431 685 b 522 585 497 685 522 663 l 522 381 b 306 558 376 394 342 450 b 142 734 279 636 250 734 b 53 659 77 734 53 697 b 126 585 53 616 81 585 b 207 673 176 585 207 621 l 207 684 b 288 534 240 668 260 607 b 413 383 313 470 338 409 b 200 288 319 380 245 359 b 126 106 170 237 150 160 b 28 29 106 58 85 35 l 28 0 b 113 -9 57 -5 86 -9 b 250 102 184 -9 227 20 b 323 290 260 134 283 235 b 522 357 365 347 430 359 l 522 129 b 431 29 522 52 497 29 l 431 0 b 585 5 460 1 526 5 b 739 0 643 5 710 1 l 739 29 b 647 129 672 29 647 52 l 647 357 b 846 290 746 359 805 346 b 920 102 885 236 905 149 b 1057 -9 943 20 985 -9 b 1141 0 1083 -9 1112 -5 l 1141 29 b 1043 106 1084 35 1064 58 z "},"з":{"ha":648,"x_min":0,"x_max":0,"o":"m 349 734 b 195 686 271 734 228 708 b 147 663 174 672 158 663 b 117 724 129 663 122 684 l 85 724 b 94 553 88 691 94 636 b 92 468 94 528 93 499 l 123 468 b 321 708 119 612 221 708 b 429 555 395 708 429 646 b 321 389 429 481 406 414 b 262 397 301 393 281 397 b 231 375 243 397 231 392 b 261 351 231 358 243 351 b 319 370 281 351 301 359 b 465 186 411 368 465 289 b 294 4 465 81 407 4 b 140 57 231 4 157 29 b 199 127 175 64 199 89 b 122 203 199 175 165 203 b 49 127 79 203 49 172 b 114 31 49 86 77 56 b 293 -20 155 3 212 -20 b 593 197 452 -20 593 64 b 342 382 593 315 494 376 b 553 572 436 404 551 458 b 349 734 553 668 473 734 z "},"и":{"ha":869,"x_min":0,"x_max":0,"o":"m 829 714 b 663 708 798 713 724 708 b 507 714 602 708 536 713 l 507 685 b 599 597 570 685 596 665 l 271 145 l 271 585 b 363 685 271 663 296 685 l 363 714 b 207 708 334 713 268 708 b 40 714 146 708 72 713 l 40 685 b 146 585 117 685 146 663 l 146 129 b 40 29 146 52 117 29 l 40 0 b 207 5 72 1 146 5 b 363 0 268 5 334 1 l 363 29 b 272 100 304 29 278 46 l 599 552 l 599 129 b 507 29 599 52 574 29 l 507 0 b 663 5 536 1 602 5 b 829 0 724 5 798 1 l 829 29 b 724 129 753 29 724 52 l 724 585 b 829 685 724 663 753 685 z "},"й":{"ha":869,"x_min":0,"x_max":0,"o":"m 241 929 b 432 879 281 903 340 879 b 622 929 524 879 583 903 b 688 1029 661 956 688 990 b 614 1103 688 1072 657 1103 b 537 1028 572 1103 537 1075 b 595 957 537 989 561 964 b 432 907 558 917 482 907 b 268 957 382 907 305 917 b 326 1028 302 964 326 989 b 250 1103 326 1075 292 1103 b 176 1029 207 1103 176 1072 b 241 929 176 990 203 956 z m 829 714 b 663 708 798 713 724 708 b 507 714 602 708 536 713 l 507 685 b 599 597 570 685 596 665 l 271 145 l 271 585 b 363 685 271 663 296 685 l 363 714 b 207 708 334 713 268 708 b 40 714 146 708 72 713 l 40 685 b 146 585 117 685 146 663 l 146 129 b 40 29 146 52 117 29 l 40 0 b 207 5 72 1 146 5 b 363 0 268 5 334 1 l 363 29 b 272 100 304 29 278 46 l 599 552 l 599 129 b 507 29 599 52 574 29 l 507 0 b 663 5 536 1 602 5 b 829 0 724 5 798 1 l 829 29 b 724 129 753 29 724 52 l 724 585 b 829 685 724 663 753 685 z "},"ѝ":{"ha":869,"x_min":0,"x_max":0,"o":"m 498 844 b 347 1108 412 979 389 1054 b 294 1139 330 1131 311 1139 b 264 1129 283 1139 273 1136 b 245 1090 252 1120 245 1106 b 264 1043 245 1076 251 1060 b 483 832 307 989 373 949 z m 829 714 b 663 708 798 713 724 708 b 507 714 602 708 536 713 l 507 685 b 599 597 570 685 596 665 l 271 145 l 271 585 b 363 685 271 663 296 685 l 363 714 b 207 708 334 713 268 708 b 40 714 146 708 72 713 l 40 685 b 146 585 117 685 146 663 l 146 129 b 40 29 146 52 117 29 l 40 0 b 207 5 72 1 146 5 b 363 0 268 5 334 1 l 363 29 b 272 100 304 29 278 46 l 599 552 l 599 129 b 507 29 599 52 574 29 l 507 0 b 663 5 536 1 602 5 b 829 0 724 5 798 1 l 829 29 b 724 129 753 29 724 52 l 724 585 b 829 685 724 663 753 685 z "},"к":{"ha":794,"x_min":0,"x_max":0,"o":"m 668 106 b 595 288 644 160 625 239 b 380 383 551 357 476 381 b 505 534 456 408 480 469 b 586 684 539 623 555 669 l 586 673 b 667 585 586 621 616 585 b 741 659 713 585 741 616 b 652 734 741 697 717 734 b 488 558 543 734 514 636 b 271 380 452 453 418 390 l 271 585 b 363 685 271 663 296 685 l 363 714 b 205 708 334 713 267 708 b 40 714 144 708 72 713 l 40 685 b 146 585 117 685 146 663 l 146 129 b 40 29 146 52 117 29 l 40 0 b 205 5 72 1 144 5 b 363 0 267 5 334 1 l 363 29 b 271 129 296 29 271 52 l 271 357 b 471 290 370 359 430 347 b 545 102 510 236 530 149 b 681 -9 566 32 597 -9 b 766 0 707 -9 736 -5 l 766 29 b 668 106 710 35 689 58 z "},"ќ":{"ha":794,"x_min":0,"x_max":0,"o":"m 575 1043 b 594 1090 588 1060 594 1076 b 575 1129 594 1106 587 1120 b 545 1139 566 1136 556 1139 b 492 1108 528 1139 509 1131 b 340 844 450 1054 427 979 l 355 832 b 575 1043 465 949 532 989 z m 668 106 b 595 288 644 160 625 239 b 380 383 551 357 476 381 b 505 534 456 408 480 469 b 586 684 539 623 555 669 l 586 673 b 667 585 586 621 616 585 b 741 659 713 585 741 616 b 652 734 741 697 717 734 b 488 558 543 734 514 636 b 271 380 452 453 418 390 l 271 585 b 363 685 271 663 296 685 l 363 714 b 205 708 334 713 267 708 b 40 714 144 708 72 713 l 40 685 b 146 585 117 685 146 663 l 146 129 b 40 29 146 52 117 29 l 40 0 b 205 5 72 1 144 5 b 363 0 267 5 334 1 l 363 29 b 271 129 296 29 271 52 l 271 357 b 471 290 370 359 430 347 b 545 102 510 236 530 149 b 681 -9 566 32 597 -9 b 766 0 707 -9 736 -5 l 766 29 b 668 106 710 35 689 58 z "},"л":{"ha":782,"x_min":0,"x_max":0,"o":"m 742 714 b 574 708 710 713 637 708 b 422 708 511 708 473 708 l 304 708 b 210 714 258 708 225 713 l 210 685 b 320 598 281 685 320 665 b 319 585 320 594 319 589 b 241 134 307 415 286 249 b 115 1 224 86 183 1 b 102 3 113 1 104 1 b 154 71 139 17 154 40 b 85 138 154 115 123 138 b 9 64 40 138 9 110 b 107 -20 9 8 57 -20 b 264 126 191 -20 236 58 b 345 585 314 252 329 412 b 407 685 351 663 361 685 l 419 685 b 511 585 486 685 511 663 l 511 129 b 378 29 511 50 461 29 l 378 0 b 572 5 418 1 500 5 b 742 0 644 5 710 1 l 742 29 b 636 129 665 29 636 52 l 636 585 b 742 685 636 663 665 685 z "},"м":{"ha":986,"x_min":0,"x_max":0,"o":"m 947 715 b 775 711 903 713 839 711 l 710 711 l 487 153 l 275 715 b 168 711 244 713 208 711 b 39 715 121 711 69 713 l 39 688 b 151 568 134 684 151 669 l 151 147 b 39 28 151 46 134 32 l 39 0 b 168 4 69 3 121 4 b 294 0 215 4 261 3 l 294 28 b 182 147 200 32 182 46 l 182 627 l 429 -7 l 452 -7 l 710 635 l 710 147 b 597 28 710 46 692 32 l 597 0 b 775 4 636 3 703 4 b 947 0 839 4 904 3 l 947 28 b 835 147 852 32 835 46 l 835 568 b 947 688 835 669 852 684 z "}}}
